# "Copyright by Hugo Chargois"
# "Licensed under the WTFPL"

name: GohuFont
family: GohuFont
foundry: Gohu
revision: 003.000
point-size: 11
weight: bold
dpi: 100 100
spacing: monospace
x-height: 4
cap-height: 7
ascent: 9
offset: 0 -2
encoding: unicode
converter: monobit v0.12
source-name: gohufont-uni-11b.bdf
source-format: BDF v2.1
bdf.FONTNAME-REGISTRY: ""
bdf.FONT-NAME: "GohuFont"
bdf.UNDERLINE-POSITION: -1
bdf.UNDERLINE-THICKNESS: 1
bdf.RAW-ASCENT: 818
bdf.RAW-DESCENT: 182
bdf.NORM-SPACE: 6
bdf.FIGURE-WIDTH: 6
bdf.AVG-LOWERCASE-WIDTH: 60
bdf.AVG-UPPERCASE-WIDTH: "60"

u+0000:
<control>:
    ......
    ......
    @.@.@.
    ......
    @...@.
    ......
    ......
    @...@.
    ......
    @.@.@.
    ......

u+0020:
SPACE:
    ......
    ......
    ......
    ......
    ......
    ......
    ......
    ......
    ......
    ......
    ......
    ......

u+0021:
EXCLAMATION MARK:
    ......
    ......
    ..@@..
    ..@@..
    ..@@..
    ..@@..
    ..@@..
    ......
    ..@@..
    ......
    ......

u+0022:
QUOTATION MARK:
    ......
    ......
    ......
    ......
    ......
    ......
    ......
    .@@.@@
    .@@.@@
    .@@.@@
    ......

u+0023:
NUMBER SIGN:
    ......
    ......
    ......
    ......
    .@@.@.
    @@@@@@
    .@@.@.
    @@@@@@
    .@@.@.
    ......
    ......

u+0024:
DOLLAR SIGN:
    ......
    ..@@..
    .@@@@.
    @.@@.@
    @.@@..
    .@@@@.
    ..@@.@
    @.@@.@
    .@@@@.
    ..@@..
    ......

u+0025:
PERCENT SIGN:
    ......
    ......
    .@..@.
    @.@.@.
    .@.@..
    ..@...
    .@.@..
    @.@.@.
    @..@..
    ......
    ......

u+0026:
AMPERSAND:
    ......
    ......
    .@@@..
    @@..@.
    @@.@..
    .@@...
    @@.@.@
    @@..@.
    .@@@.@
    ......
    ......

u+0027:
APOSTROPHE:
    ......
    ......
    ......
    ......
    ......
    ......
    ......
    ..@@..
    ..@@..
    ..@@..
    ......

u+0028:
LEFT PARENTHESIS:
    ......
    ...@@.
    ..@@..
    ..@@..
    .@@...
    .@@...
    .@@...
    ..@@..
    ..@@..
    ...@@.
    ......

u+0029:
RIGHT PARENTHESIS:
    ......
    .@@...
    ..@@..
    ..@@..
    ...@@.
    ...@@.
    ...@@.
    ..@@..
    ..@@..
    .@@...
    ......

u+002a:
ASTERISK:
    ......
    ......
    ......
    ..@@..
    @.@@.@
    .@@@@.
    @.@@.@
    ..@@..
    ......
    ......
    ......

u+002b:
PLUS SIGN:
    ......
    ......
    ......
    ..@@..
    ..@@..
    @@@@@@
    ..@@..
    ..@@..
    ......
    ......
    ......

u+002c:
COMMA:
    .@@@..
    .@@@..
    ..@@..
    .@@...
    ......
    ......
    ......
    ......
    ......
    ......
    ......

u+002d:
HYPHEN-MINUS:
    ......
    ......
    ......
    ......
    ......
    @@@@@.
    ......
    ......
    ......
    ......
    ......

u+002e:
FULL STOP:
    ......
    ......
    ..@@@.
    ..@@@.
    ......
    ......
    ......
    ......
    ......
    ......
    ......

u+002f:
SOLIDUS:
    ....@@
    ....@@
    ...@@.
    ...@@.
    ..@@..
    ..@@..
    .@@...
    .@@...
    @@....
    @@....
    ......

u+0030:
DIGIT ZERO:
    ......
    ......
    .@@@..
    @@.@@.
    @@.@@.
    @@@@@.
    @@.@@.
    @@.@@.
    .@@@..
    ......
    ......

u+0031:
DIGIT ONE:
    ......
    ......
    ..@@..
    .@@@..
    @.@@..
    ..@@..
    ..@@..
    ..@@..
    ..@@..
    ......
    ......

u+0032:
DIGIT TWO:
    ......
    ......
    .@@@..
    @@.@@.
    ...@@.
    ..@@..
    .@@...
    @@....
    @@@@@.
    ......
    ......

u+0033:
DIGIT THREE:
    ......
    ......
    .@@@..
    @@.@@.
    ...@@.
    ..@@..
    ...@@.
    @@.@@.
    .@@@..
    ......
    ......

u+0034:
DIGIT FOUR:
    ......
    ......
    ...@..
    ..@@..
    .@@@..
    @.@@..
    @@@@@.
    ..@@..
    ..@@..
    ......
    ......

u+0035:
DIGIT FIVE:
    ......
    ......
    @@@@@.
    @@....
    @@@@..
    ...@@.
    ...@@.
    @@.@@.
    .@@@..
    ......
    ......

u+0036:
DIGIT SIX:
    ......
    ......
    .@@@..
    @@....
    @@@@..
    @@.@@.
    @@.@@.
    @@.@@.
    .@@@..
    ......
    ......

u+0037:
DIGIT SEVEN:
    ......
    ......
    @@@@@.
    ...@@.
    ..@@..
    ..@@..
    .@@...
    .@@...
    .@@...
    ......
    ......

u+0038:
DIGIT EIGHT:
    ......
    ......
    .@@@..
    @@.@@.
    @@.@@.
    .@@@..
    @@.@@.
    @@.@@.
    .@@@..
    ......
    ......

u+0039:
DIGIT NINE:
    ......
    ......
    .@@@..
    @@.@@.
    @@.@@.
    .@@@@.
    ...@@.
    ...@@.
    .@@@..
    ......
    ......

u+003a:
COLON:
    ......
    ......
    ..@@@.
    ..@@@.
    ......
    ..@@@.
    ..@@@.
    ......
    ......
    ......
    ......

u+003b:
SEMICOLON:
    .@@@..
    .@@@..
    ......
    .@@@..
    .@@@..
    ..@@..
    .@@...
    ......
    ......
    ......
    ......

u+003c:
LESS-THAN SIGN:
    ......
    ......
    ...@@.
    ..@@..
    .@@...
    @@....
    .@@...
    ..@@..
    ...@@.
    ......
    ......

u+003d:
EQUALS SIGN:
    ......
    ......
    ......
    ......
    @@@@@.
    ......
    @@@@@.
    ......
    ......
    ......
    ......

u+003e:
GREATER-THAN SIGN:
    ......
    ......
    .@@...
    ..@@..
    ...@@.
    ....@@
    ...@@.
    ..@@..
    .@@...
    ......
    ......

u+003f:
QUESTION MARK:
    ......
    ......
    .@@@..
    @..@@.
    ...@@.
    ...@..
    ..@...
    ......
    ..@...
    ......
    ......

u+0040:
COMMERCIAL AT:
    ......
    ......
    .@@@..
    @@..@.
    @@.@@.
    @@.@@.
    @@.@@.
    @@....
    .@@@@.
    ......
    ......

u+0041:
LATIN CAPITAL LETTER A:
    ......
    ......
    .@@@..
    @@.@@.
    @@.@@.
    @@@@@.
    @@.@@.
    @@.@@.
    @@.@@.
    @@.@@.
    ......

u+0042:
LATIN CAPITAL LETTER B:
    ......
    ......
    @@@@..
    @@.@@.
    @@.@@.
    @@@@..
    @@.@@.
    @@.@@.
    @@.@@.
    @@@@..
    ......

u+0043:
LATIN CAPITAL LETTER C:
    ......
    ......
    .@@@..
    @@..@.
    @@....
    @@....
    @@....
    @@....
    @@..@.
    .@@@..
    ......

u+0044:
LATIN CAPITAL LETTER D:
    ......
    ......
    @@@@..
    @@.@..
    @@.@@.
    @@.@@.
    @@.@@.
    @@.@@.
    @@.@..
    @@@@..
    ......

u+0045:
LATIN CAPITAL LETTER E:
    ......
    ......
    @@@@@.
    @@....
    @@....
    @@@@..
    @@....
    @@....
    @@....
    @@@@@.
    ......

u+0046:
LATIN CAPITAL LETTER F:
    ......
    ......
    @@@@@.
    @@....
    @@....
    @@@@..
    @@....
    @@....
    @@....
    @@....
    ......

u+0047:
LATIN CAPITAL LETTER G:
    ......
    ......
    .@@@..
    @@..@.
    @@....
    @@.@@.
    @@..@.
    @@..@.
    @@..@.
    .@@@..
    ......

u+0048:
LATIN CAPITAL LETTER H:
    ......
    ......
    @@.@@.
    @@.@@.
    @@.@@.
    @@@@@.
    @@.@@.
    @@.@@.
    @@.@@.
    @@.@@.
    ......

u+0049:
LATIN CAPITAL LETTER I:
    ......
    ......
    .@@@@.
    ..@@..
    ..@@..
    ..@@..
    ..@@..
    ..@@..
    ..@@..
    .@@@@.
    ......

u+004a:
LATIN CAPITAL LETTER J:
    ......
    ......
    ...@@.
    ...@@.
    ...@@.
    ...@@.
    ...@@.
    @@.@@.
    @@.@@.
    .@@@..
    ......

u+004b:
LATIN CAPITAL LETTER K:
    ......
    ......
    @@..@.
    @@.@..
    @@@...
    @@....
    @@@...
    @@.@..
    @@..@.
    @@..@.
    ......

u+004c:
LATIN CAPITAL LETTER L:
    ......
    ......
    @@....
    @@....
    @@....
    @@....
    @@....
    @@....
    @@....
    @@@@@.
    ......

u+004d:
LATIN CAPITAL LETTER M:
    ......
    ......
    @...@.
    @@.@@.
    @@@@@.
    @@@@@.
    @@.@@.
    @@.@@.
    @@.@@.
    @@.@@.
    ......

u+004e:
LATIN CAPITAL LETTER N:
    ......
    ......
    @...@.
    @@..@.
    @@..@.
    @@@.@.
    @@@.@.
    @@@@@.
    @@.@@.
    @@..@.
    ......

u+004f:
LATIN CAPITAL LETTER O:
    ......
    ......
    .@@@..
    @@.@@.
    @@.@@.
    @@.@@.
    @@.@@.
    @@.@@.
    @@.@@.
    .@@@..
    ......

u+0050:
LATIN CAPITAL LETTER P:
    ......
    ......
    @@@@..
    @@.@@.
    @@.@@.
    @@@@..
    @@....
    @@....
    @@....
    @@....
    ......

u+0051:
LATIN CAPITAL LETTER Q:
    ......
    .@@@..
    @@.@@.
    @@.@@.
    @@.@@.
    @@.@@.
    @@@@@.
    @@.@@.
    .@@@@.
    ....@.
    ......

u+0052:
LATIN CAPITAL LETTER R:
    ......
    ......
    @@@@..
    @@.@@.
    @@.@@.
    @@@@..
    @@@@..
    @@.@@.
    @@.@@.
    @@.@@.
    ......

u+0053:
LATIN CAPITAL LETTER S:
    ......
    ......
    .@@@..
    @@..@.
    @@....
    .@@@..
    ...@@.
    ...@@.
    @..@@.
    .@@@..
    ......

u+0054:
LATIN CAPITAL LETTER T:
    ......
    ......
    @@@@@@
    ..@@..
    ..@@..
    ..@@..
    ..@@..
    ..@@..
    ..@@..
    ..@@..
    ......

u+0055:
LATIN CAPITAL LETTER U:
    ......
    ......
    @@.@@.
    @@.@@.
    @@.@@.
    @@.@@.
    @@.@@.
    @@.@@.
    @@.@@.
    .@@@..
    ......

u+0056:
LATIN CAPITAL LETTER V:
    ......
    ......
    @@.@@.
    @@.@@.
    @@.@@.
    @@@@@.
    .@@@..
    .@@@..
    .@@@..
    ..@...
    ......

u+0057:
LATIN CAPITAL LETTER W:
    ......
    ......
    @@.@@.
    @@.@@.
    @@.@@.
    @@.@@.
    @@@@@.
    @@@@@.
    @@.@@.
    .@.@..
    ......

u+0058:
LATIN CAPITAL LETTER X:
    ......
    ......
    @@.@@.
    @@.@@.
    .@.@..
    ..@...
    .@.@..
    @@.@@.
    @@.@@.
    @@.@@.
    ......

u+0059:
LATIN CAPITAL LETTER Y:
    ......
    ......
    @@.@@.
    @@.@@.
    @@.@@.
    .@@@@.
    ..@@..
    ..@@..
    ..@@..
    ..@@..
    ......

u+005a:
LATIN CAPITAL LETTER Z:
    ......
    ......
    @@@@@.
    ...@@.
    ..@@@.
    .@@@..
    @@@...
    @@....
    @@....
    @@@@@.
    ......

u+005b:
LEFT SQUARE BRACKET:
    ......
    .@@@@.
    .@@...
    .@@...
    .@@...
    .@@...
    .@@...
    .@@...
    .@@...
    .@@@@.
    ......

u+005c:
REVERSE SOLIDUS:
    @@....
    @@....
    .@@...
    .@@...
    ..@@..
    ..@@..
    ...@@.
    ...@@.
    ....@@
    ....@@
    ......

u+005d:
RIGHT SQUARE BRACKET:
    ......
    @@@@..
    ..@@..
    ..@@..
    ..@@..
    ..@@..
    ..@@..
    ..@@..
    ..@@..
    @@@@..
    ......

u+005e:
CIRCUMFLEX ACCENT:
    ......
    ......
    ......
    ......
    ......
    ......
    ..@@..
    .@@@@.
    @@..@@
    ......
    ......

u+005f:
LOW LINE:
    ......
    @@@@@@
    ......
    ......
    ......
    ......
    ......
    ......
    ......
    ......
    ......

u+0060:
GRAVE ACCENT:
    ......
    ......
    ......
    ......
    ......
    ......
    ......
    .@....
    .@@...
    ..@@..
    ......

u+0061:
LATIN SMALL LETTER A:
    ......
    ......
    .@@@..
    ...@@.
    .@@@@.
    @@.@@.
    .@@@@.
    ......
    ......
    ......
    ......

u+0062:
LATIN SMALL LETTER B:
    ......
    ......
    @@....
    @@....
    @@....
    @@@@..
    @@.@@.
    @@.@@.
    @@.@@.
    @@@@..
    ......

u+0063:
LATIN SMALL LETTER C:
    ......
    ......
    .@@@@.
    @@....
    @@....
    @@....
    .@@@@.
    ......
    ......
    ......
    ......

u+0064:
LATIN SMALL LETTER D:
    ......
    ......
    ...@@.
    ...@@.
    ...@@.
    .@@@@.
    @@.@@.
    @@.@@.
    @@.@@.
    .@@.@.
    ......

u+0065:
LATIN SMALL LETTER E:
    ......
    ......
    .@@@..
    @@.@@.
    @@@@@.
    @@....
    .@@@@.
    ......
    ......
    ......
    ......

u+0066:
LATIN SMALL LETTER F:
    ......
    ......
    ..@@@.
    .@@...
    .@@...
    .@@@@.
    .@@...
    .@@...
    .@@...
    .@@...
    ......

u+0067:
LATIN SMALL LETTER G:
    .@@@@.
    @@.@@.
    @@.@@.
    @@.@@.
    .@@@@.
    ...@@.
    .@@@..
    ......
    ......
    ......
    ......

u+0068:
LATIN SMALL LETTER H:
    ......
    ......
    @@....
    @@....
    @@....
    @@@@..
    @@.@@.
    @@.@@.
    @@.@@.
    @@.@@.
    ......

u+0069:
LATIN SMALL LETTER I:
    ......
    ......
    ..@@..
    ......
    .@@@..
    ..@@..
    ..@@..
    ..@@..
    ..@@@.
    ......
    ......

u+006a:
LATIN SMALL LETTER J:
    ..@@..
    ......
    .@@@..
    ..@@..
    ..@@..
    ..@@..
    ..@@..
    ..@@..
    @@@...
    ......
    ......

u+006b:
LATIN SMALL LETTER K:
    ......
    ......
    @@....
    @@....
    @@....
    @@.@..
    @@@...
    @@@...
    @@.@..
    @@..@.
    ......

u+006c:
LATIN SMALL LETTER L:
    ......
    ......
    .@@@..
    ..@@..
    ..@@..
    ..@@..
    ..@@..
    ..@@..
    ..@@..
    ...@@.
    ......

u+006d:
LATIN SMALL LETTER M:
    ......
    ......
    @@@@@.
    @@.@.@
    @@.@.@
    @@.@.@
    @@.@.@
    ......
    ......
    ......
    ......

u+006e:
LATIN SMALL LETTER N:
    ......
    ......
    @@@@..
    @@..@.
    @@..@.
    @@..@.
    @@..@.
    ......
    ......
    ......
    ......

u+006f:
LATIN SMALL LETTER O:
    ......
    ......
    .@@@..
    @@.@@.
    @@.@@.
    @@.@@.
    .@@@..
    ......
    ......
    ......
    ......

u+0070:
LATIN SMALL LETTER P:
    @.@@..
    @@.@@.
    @@.@@.
    @@.@@.
    @@@@..
    @@....
    @@....
    ......
    ......
    ......
    ......

u+0071:
LATIN SMALL LETTER Q:
    .@@@@.
    @@.@@.
    @@.@@.
    @@.@@.
    .@@@@.
    ...@@.
    ...@@.
    ......
    ......
    ......
    ......

u+0072:
LATIN SMALL LETTER R:
    ......
    ......
    @.@@..
    @@.@@.
    @@....
    @@....
    @@....
    ......
    ......
    ......
    ......

u+0073:
LATIN SMALL LETTER S:
    ......
    ......
    .@@@..
    @@....
    .@@@..
    ...@@.
    @@@@..
    ......
    ......
    ......
    ......

u+0074:
LATIN SMALL LETTER T:
    ......
    ......
    ..@@..
    ..@@..
    ..@@..
    .@@@@.
    ..@@..
    ..@@..
    ..@@..
    ...@@.
    ......

u+0075:
LATIN SMALL LETTER U:
    ......
    ......
    @@.@@.
    @@.@@.
    @@.@@.
    @@.@@.
    .@@.@.
    ......
    ......
    ......
    ......

u+0076:
LATIN SMALL LETTER V:
    ......
    ......
    @@.@@.
    @@.@@.
    .@@@..
    .@@@..
    ..@...
    ......
    ......
    ......
    ......

u+0077:
LATIN SMALL LETTER W:
    ......
    ......
    @@.@.@
    @@.@.@
    @@.@.@
    @@.@.@
    ..@.@.
    ......
    ......
    ......
    ......

u+0078:
LATIN SMALL LETTER X:
    ......
    ......
    @@..@@
    .@@@@.
    ..@@..
    .@@@@.
    @@..@@
    ......
    ......
    ......
    ......

u+0079:
LATIN SMALL LETTER Y:
    @@.@@.
    @@.@@.
    @@.@@.
    @@.@@.
    .@@@@.
    ...@@.
    .@@@..
    ......
    ......
    ......
    ......

u+007a:
LATIN SMALL LETTER Z:
    ......
    ......
    @@@@@.
    ...@@.
    ..@@..
    .@@...
    @@@@@.
    ......
    ......
    ......
    ......

u+007b:
LEFT CURLY BRACKET:
    ...@@.
    ..@@..
    ..@@..
    ..@@..
    ..@@..
    @@@...
    ..@@..
    ..@@..
    ..@@..
    ..@@..
    ...@@.

u+007c:
VERTICAL LINE:
    ......
    ..@@..
    ..@@..
    ..@@..
    ..@@..
    ..@@..
    ..@@..
    ..@@..
    ..@@..
    ..@@..
    ......

u+007d:
RIGHT CURLY BRACKET:
    .@@...
    ..@@..
    ..@@..
    ..@@..
    ..@@..
    ...@@@
    ..@@..
    ..@@..
    ..@@..
    ..@@..
    .@@...

u+007e:
TILDE:
    ......
    ......
    ......
    ......
    ......
    .@@.@.
    @.@@..
    ......
    ......
    ......
    ......

u+00a0:
NO-BREAK SPACE:
    ......
    ......
    ......
    ......
    ......
    ......
    ......
    ......
    ......
    ......
    ......
    ......

u+00a1:
INVERTED EXCLAMATION MARK:
    ......
    ......
    ..@...
    ......
    ..@...
    ..@...
    ..@...
    ..@...
    ..@...
    ..@...
    ......

u+00a2:
CENT SIGN:
    ......
    ..@...
    .@@@@.
    @.@...
    @.@...
    @.@...
    .@@@@.
    ..@...
    ......
    ......
    ......

u+00a3:
POUND SIGN:
    ......
    ......
    ..@@..
    .@..@.
    .@....
    .@....
    @@@...
    .@....
    .@..@.
    @.@@..
    ......

u+00a4:
CURRENCY SIGN:
    ......
    ......
    @...@.
    .@@@..
    .@.@..
    .@@@..
    @...@.
    ......
    ......
    ......
    ......

u+00a5:
YEN SIGN:
    ......
    @...@.
    @...@.
    .@.@..
    ..@...
    @@@@@.
    ..@...
    @@@@@.
    ..@...
    ..@...
    ......

u+00a6:
BROKEN BAR:
    ......
    ..@...
    ..@...
    ..@...
    ..@...
    ......
    ..@...
    ..@...
    ..@...
    ..@...
    ......

u+00a7:
SECTION SIGN:
    ......
    ..@@@.
    .@....
    .@....
    .@@@..
    .@..@.
    ..@@@.
    ....@.
    ....@.
    .@@@..
    ......

u+00a8:
DIAERESIS:
    ......
    ......
    ......
    ......
    ......
    ......
    ......
    ......
    ......
    .@.@..
    ......

u+00a9:
COPYRIGHT SIGN:
    ......
    ......
    .@@@..
    @...@.
    @.@.@.
    @@..@.
    @.@.@.
    @...@.
    .@@@..
    ......
    ......

u+00aa:
FEMININE ORDINAL INDICATOR:
    ......
    ......
    ......
    ..@@@.
    .@..@.
    .@.@@.
    ..@.@.
    ......
    .@@@@.
    ......
    ......

u+00ab:
LEFT-POINTING DOUBLE ANGLE QUOTATION MARK:
    ......
    ......
    ......
    ..@..@
    .@..@.
    @..@..
    .@..@.
    ..@..@
    ......
    ......
    ......

u+00ac:
NOT SIGN:
    ......
    ......
    ......
    ......
    .@@@@.
    ....@.
    ......
    ......
    ......
    ......
    ......

u+00ad:
SOFT HYPHEN:
    ......
    ......
    ......
    ......
    ......
    .@@@@.
    ......
    ......
    ......
    ......
    ......

u+00ae:
REGISTERED SIGN:
    ......
    ......
    .@@@..
    @...@.
    @@@.@.
    @@..@.
    @@..@.
    @...@.
    .@@@..
    ......
    ......

u+00af:
MACRON:
    ......
    ......
    ......
    ......
    ......
    ......
    ......
    ......
    ......
    @@@@@.
    ......

u+00b0:
DEGREE SIGN:
    ......
    ......
    ......
    ......
    ......
    ......
    ..@...
    .@.@..
    ..@...
    ......
    ......

u+00b1:
PLUS-MINUS SIGN:
    ......
    ......
    ..@...
    ..@...
    @@@@@.
    ..@...
    ..@...
    @@@@@.
    ......
    ......
    ......

u+00b2:
SUPERSCRIPT TWO:
    ......
    ......
    ......
    ......
    ......
    ..@@..
    .@..@.
    ...@..
    ..@...
    .@@@@.
    ......

u+00b3:
SUPERSCRIPT THREE:
    ......
    ......
    ......
    ......
    ......
    .@@@..
    ....@.
    ..@@..
    ....@.
    .@@@..
    ......

u+00b4:
ACUTE ACCENT:
    ......
    ......
    ......
    ......
    ......
    ......
    ......
    ......
    ...@..
    ..@...
    ......

u+00b5:
MICRO SIGN:
    ......
    @...@.
    @...@.
    @...@.
    @@..@.
    @.@@..
    @.....
    ......
    ......
    ......
    ......

u+00b6:
PILCROW SIGN:
    ......
    ......
    .@@@@.
    @@@.@.
    @@@.@.
    .@@.@.
    ..@.@.
    ..@.@.
    ..@.@.
    ......
    ......

u+00b7:
MIDDLE DOT:
    ......
    ......
    ......
    ......
    ......
    ..@...
    ......
    ......
    ......
    ......
    ......

u+00b8:
CEDILLA:
    ...@..
    ..@...
    ......
    ......
    ......
    ......
    ......
    ......
    ......
    ......
    ......

u+00b9:
SUPERSCRIPT ONE:
    ......
    ......
    ......
    ......
    ......
    ..@...
    .@@...
    ..@...
    ..@...
    .@@@..
    ......

u+00ba:
MASCULINE ORDINAL INDICATOR:
    ......
    ......
    ......
    ..@@..
    .@..@.
    .@..@.
    ..@@..
    ......
    .@@@@.
    ......
    ......

u+00bb:
RIGHT-POINTING DOUBLE ANGLE QUOTATION MARK:
    ......
    ......
    ......
    @..@..
    .@..@.
    ..@..@
    .@..@.
    @..@..
    ......
    ......
    ......

u+00bc:
VULGAR FRACTION ONE QUARTER:
    ......
    .@....
    @@....
    .@....
    .@....
    @@@..@
    ....@@
    ...@.@
    ..@@@@
    .....@
    ......

u+00bd:
VULGAR FRACTION ONE HALF:
    ......
    .@....
    @@....
    .@....
    .@....
    @@@.@.
    ...@.@
    .....@
    ....@.
    ...@@@
    ......

u+00be:
VULGAR FRACTION THREE QUARTERS:
    ......
    @@....
    ..@...
    .@....
    ..@...
    @@..@.
    ...@@.
    ..@.@.
    .@@@@.
    ....@.
    ......

u+00bf:
INVERTED QUESTION MARK:
    ......
    ......
    ..@...
    ......
    ..@...
    .@....
    @.....
    @...@.
    .@@@..
    ......
    ......

u+00c0:
LATIN CAPITAL LETTER A WITH GRAVE:
    ......
    ......
    .@....
    ..@...
    .@@@..
    @@.@@.
    @@.@@.
    @@@@@.
    @@.@@.
    @@.@@.
    @@.@@.

u+00c1:
LATIN CAPITAL LETTER A WITH ACUTE:
    ......
    ......
    ...@..
    ..@...
    .@@@..
    @@.@@.
    @@.@@.
    @@@@@.
    @@.@@.
    @@.@@.
    @@.@@.

u+00c2:
LATIN CAPITAL LETTER A WITH CIRCUMFLEX:
    ......
    ......
    ..@...
    .@.@..
    ......
    .@@@..
    @@.@@.
    @@.@@.
    @@@@@.
    @@.@@.
    @@.@@.

u+00c3:
LATIN CAPITAL LETTER A WITH TILDE:
    ......
    ......
    .@@.@.
    @.@@..
    ......
    .@@@..
    @@.@@.
    @@.@@.
    @@@@@.
    @@.@@.
    @@.@@.

u+00c4:
LATIN CAPITAL LETTER A WITH DIAERESIS:
    ......
    ......
    .@.@..
    ......
    .@@@..
    @@.@@.
    @@.@@.
    @@@@@.
    @@.@@.
    @@.@@.
    @@.@@.

u+00c5:
LATIN CAPITAL LETTER A WITH RING ABOVE:
    ......
    ......
    ..@...
    .@.@..
    ..@...
    .@@@..
    @@.@@.
    @@.@@.
    @@@@@.
    @@.@@.
    @@.@@.

u+00c6:
LATIN CAPITAL LETTER AE:
    ......
    ......
    .@@@@.
    @.@...
    @.@...
    @@@@..
    @.@...
    @.@...
    @.@@@.
    ......
    ......

u+00c7:
LATIN CAPITAL LETTER C WITH CEDILLA:
    .@@@..
    @@..@.
    @@....
    @@....
    @@....
    @@..@.
    .@@@..
    ..@...
    .@....
    ......
    ......

u+00c8:
LATIN CAPITAL LETTER E WITH GRAVE:
    ......
    ......
    .@....
    ..@...
    @@@@@.
    @@....
    @@....
    @@@@..
    @@....
    @@....
    @@@@@.

u+00c9:
LATIN CAPITAL LETTER E WITH ACUTE:
    ......
    ......
    ...@..
    ..@...
    @@@@@.
    @@....
    @@....
    @@@@..
    @@....
    @@....
    @@@@@.

u+00ca:
LATIN CAPITAL LETTER E WITH CIRCUMFLEX:
    ......
    ......
    ..@...
    .@.@..
    @@@@@.
    @@....
    @@....
    @@@@..
    @@....
    @@....
    @@@@@.

u+00cb:
LATIN CAPITAL LETTER E WITH DIAERESIS:
    ......
    ......
    .@.@..
    ......
    @@@@@.
    @@....
    @@....
    @@@@..
    @@....
    @@....
    @@@@@.

u+00cc:
LATIN CAPITAL LETTER I WITH GRAVE:
    ......
    ......
    ..@...
    ...@..
    ......
    .@@@@.
    ..@@..
    ..@@..
    ..@@..
    ..@@..
    .@@@@.

u+00cd:
LATIN CAPITAL LETTER I WITH ACUTE:
    ......
    ......
    ..@...
    .@....
    ......
    .@@@@.
    ..@@..
    ..@@..
    ..@@..
    ..@@..
    .@@@@.

u+00ce:
LATIN CAPITAL LETTER I WITH CIRCUMFLEX:
    ......
    ......
    ..@...
    .@.@..
    ......
    .@@@@.
    ..@@..
    ..@@..
    ..@@..
    ..@@..
    .@@@@.

u+00cf:
LATIN CAPITAL LETTER I WITH DIAERESIS:
    ......
    ......
    .@.@..
    ......
    .@@@@.
    ..@@..
    ..@@..
    ..@@..
    ..@@..
    ..@@..
    .@@@@.

u+00d0:
LATIN CAPITAL LETTER ETH:
    ......
    ......
    .@@@..
    .@..@.
    .@..@.
    @@@.@.
    .@..@.
    .@..@.
    .@@@..
    ......
    ......

u+00d1:
LATIN CAPITAL LETTER N WITH TILDE:
    ......
    ......
    .@@.@.
    @.@@..
    @...@.
    @@..@.
    @.@.@.
    @..@@.
    @...@.
    @...@.
    @...@.

u+00d2:
LATIN CAPITAL LETTER O WITH GRAVE:
    ......
    ......
    .@....
    ..@...
    .@@@..
    @@.@@.
    @@.@@.
    @@.@@.
    @@.@@.
    @@.@@.
    .@@@..

u+00d3:
LATIN CAPITAL LETTER O WITH ACUTE:
    ......
    ......
    ...@..
    ..@...
    .@@@..
    @@.@@.
    @@.@@.
    @@.@@.
    @@.@@.
    @@.@@.
    .@@@..

u+00d4:
LATIN CAPITAL LETTER O WITH CIRCUMFLEX:
    ......
    ......
    ..@...
    .@.@..
    ......
    .@@@..
    @@.@@.
    @@.@@.
    @@.@@.
    @@.@@.
    .@@@..

u+00d5:
LATIN CAPITAL LETTER O WITH TILDE:
    ......
    ......
    .@@.@.
    @.@@..
    .@@@..
    @@.@@.
    @@.@@.
    @@.@@.
    @@.@@.
    @@.@@.
    .@@@..

u+00d6:
LATIN CAPITAL LETTER O WITH DIAERESIS:
    ......
    ......
    .@.@..
    ......
    .@@@..
    @@.@@.
    @@.@@.
    @@.@@.
    @@.@@.
    @@.@@.
    .@@@..

u+00d7:
MULTIPLICATION SIGN:
    ......
    ......
    ......
    @...@.
    .@.@..
    ..@...
    .@.@..
    @...@.
    ......
    ......
    ......

u+00d8:
LATIN CAPITAL LETTER O WITH STROKE:
    ......
    ......
    .@@@..
    @...@.
    @..@@.
    @.@.@.
    @@..@.
    @...@.
    .@@@..
    ......
    ......

u+00d9:
LATIN CAPITAL LETTER U WITH GRAVE:
    ......
    ......
    .@....
    ..@...
    @@.@@.
    @@.@@.
    @@.@@.
    @@.@@.
    @@.@@.
    @@.@@.
    .@@@..

u+00da:
LATIN CAPITAL LETTER U WITH ACUTE:
    ......
    ......
    ...@..
    ..@...
    @@.@@.
    @@.@@.
    @@.@@.
    @@.@@.
    @@.@@.
    @@.@@.
    .@@@..

u+00db:
LATIN CAPITAL LETTER U WITH CIRCUMFLEX:
    ......
    ......
    ...@..
    ..@...
    @@.@@.
    @@.@@.
    @@.@@.
    @@.@@.
    @@.@@.
    @@.@@.
    .@@@..

u+00dc:
LATIN CAPITAL LETTER U WITH DIAERESIS:
    ......
    ......
    .@.@..
    ......
    @@.@@.
    @@.@@.
    @@.@@.
    @@.@@.
    @@.@@.
    @@.@@.
    .@@@..

u+00dd:
LATIN CAPITAL LETTER Y WITH ACUTE:
    ......
    ......
    ...@..
    ..@...
    @@.@@.
    @@.@@.
    @@.@@.
    .@@@..
    ..@@..
    ..@@..
    ..@@..

u+00de:
LATIN CAPITAL LETTER THORN:
    ......
    ......
    @.....
    @@@@..
    @...@.
    @...@.
    @@@@..
    @.....
    @.....
    ......
    ......

u+00df:
LATIN SMALL LETTER SHARP S:
    ......
    ..@@..
    .@..@.
    @...@.
    @..@..
    @..@..
    @...@.
    @...@.
    @.@@..
    @.....
    ......

u+00e0:
LATIN SMALL LETTER A WITH GRAVE:
    ......
    ......
    ..@...
    ...@..
    ......
    .@@@..
    ...@@.
    .@@@@.
    @@.@@.
    .@@@@.
    ......

u+00e1:
LATIN SMALL LETTER A WITH ACUTE:
    ......
    ......
    ...@..
    ..@...
    ......
    .@@@..
    ...@@.
    .@@@@.
    @@.@@.
    .@@@@.
    ......

u+00e2:
LATIN SMALL LETTER A WITH CIRCUMFLEX:
    ......
    ......
    ..@...
    .@.@..
    ......
    .@@@..
    ...@@.
    .@@@@.
    @@.@@.
    .@@@@.
    ......

u+00e3:
LATIN SMALL LETTER A WITH TILDE:
    ......
    ......
    .@@.@.
    @.@@..
    ......
    .@@@..
    ...@@.
    .@@@@.
    @@.@@.
    .@@@@.
    ......

u+00e4:
LATIN SMALL LETTER A WITH DIAERESIS:
    ......
    ......
    .@.@..
    ......
    .@@@..
    ...@@.
    .@@@@.
    @@.@@.
    .@@@@.
    ......
    ......

u+00e5:
LATIN SMALL LETTER A WITH RING ABOVE:
    ......
    ......
    ..@...
    .@.@..
    ..@...
    .@@@..
    ...@@.
    .@@@@.
    @@.@@.
    .@@@@.
    ......

u+00e6:
LATIN SMALL LETTER AE:
    ......
    ......
    .@@@..
    @.@.@.
    @.@@@.
    @.@...
    .@@@@.
    ......
    ......
    ......
    ......

u+00e7:
LATIN SMALL LETTER C WITH CEDILLA:
    .@@@@.
    @@....
    @@....
    @@....
    .@@@@.
    ..@...
    .@....
    ......
    ......
    ......
    ......

u+00e8:
LATIN SMALL LETTER E WITH GRAVE:
    ......
    ......
    .@....
    ..@...
    ......
    .@@@..
    @@.@@.
    @@@@@.
    @@....
    .@@@@.
    ......

u+00e9:
LATIN SMALL LETTER E WITH ACUTE:
    ......
    ......
    ...@..
    ..@...
    ......
    .@@@..
    @@.@@.
    @@@@@.
    @@....
    .@@@@.
    ......

u+00ea:
LATIN SMALL LETTER E WITH CIRCUMFLEX:
    ......
    ......
    ..@...
    .@.@..
    ......
    .@@@..
    @@.@@.
    @@@@@.
    @@....
    .@@@@.
    ......

u+00eb:
LATIN SMALL LETTER E WITH DIAERESIS:
    ......
    ......
    .@.@..
    ......
    .@@@..
    @@.@@.
    @@@@@.
    @@....
    .@@@@.
    ......
    ......

u+00ec:
LATIN SMALL LETTER I WITH GRAVE:
    ......
    ......
    ..@...
    ...@..
    ......
    .@@@..
    ..@@..
    ..@@..
    ..@@..
    ..@@@.
    ......

u+00ed:
LATIN SMALL LETTER I WITH ACUTE:
    ......
    ......
    ..@...
    .@....
    ......
    .@@@..
    ..@@..
    ..@@..
    ..@@..
    ..@@@.
    ......

u+00ee:
LATIN SMALL LETTER I WITH CIRCUMFLEX:
    ......
    ......
    ..@...
    .@.@..
    ......
    .@@@..
    ..@@..
    ..@@..
    ..@@..
    ..@@@.
    ......

u+00ef:
LATIN SMALL LETTER I WITH DIAERESIS:
    ......
    ......
    .@.@..
    ......
    .@@@..
    ..@@..
    ..@@..
    ..@@..
    ..@@@.
    ......
    ......

u+00f0:
LATIN SMALL LETTER ETH:
    ......
    ......
    .@@...
    .@@...
    ...@..
    .@@@@.
    @...@.
    @...@.
    @...@.
    .@@@..
    ......

u+00f1:
LATIN SMALL LETTER N WITH TILDE:
    ......
    ......
    .@.@..
    @.@...
    ......
    @@@@..
    @@..@.
    @@..@.
    @@..@.
    @@..@.
    ......

u+00f2:
LATIN SMALL LETTER O WITH GRAVE:
    ......
    ......
    .@....
    ..@...
    ......
    .@@@..
    @@.@@.
    @@.@@.
    @@.@@.
    .@@@..
    ......

u+00f3:
LATIN SMALL LETTER O WITH ACUTE:
    ......
    ......
    ...@..
    ..@...
    ......
    .@@@..
    @@.@@.
    @@.@@.
    @@.@@.
    .@@@..
    ......

u+00f4:
LATIN SMALL LETTER O WITH CIRCUMFLEX:
    ......
    ......
    ..@...
    .@.@..
    ......
    .@@@..
    @@.@@.
    @@.@@.
    @@.@@.
    .@@@..
    ......

u+00f5:
LATIN SMALL LETTER O WITH TILDE:
    ......
    ......
    .@.@..
    @.@...
    ......
    .@@@..
    @@.@@.
    @@.@@.
    @@.@@.
    .@@@..
    ......

u+00f6:
LATIN SMALL LETTER O WITH DIAERESIS:
    ......
    ......
    .@.@..
    ......
    .@@@..
    @@.@@.
    @@.@@.
    @@.@@.
    .@@@..
    ......
    ......

u+00f7:
DIVISION SIGN:
    ......
    ......
    ......
    ..@...
    ......
    @@@@@.
    ......
    ..@...
    ......
    ......
    ......

u+00f8:
LATIN SMALL LETTER O WITH STROKE:
    ......
    ......
    .@@@..
    @..@@.
    @.@.@.
    @@..@.
    .@@@..
    ......
    ......
    ......
    ......

u+00f9:
LATIN SMALL LETTER U WITH GRAVE:
    ......
    ......
    .@....
    ..@...
    ......
    @@.@@.
    @@.@@.
    @@.@@.
    @@.@@.
    .@@.@.
    ......

u+00fa:
LATIN SMALL LETTER U WITH ACUTE:
    ......
    ......
    ...@..
    ..@...
    ......
    @@.@@.
    @@.@@.
    @@.@@.
    @@.@@.
    .@@.@.
    ......

u+00fb:
LATIN SMALL LETTER U WITH CIRCUMFLEX:
    ......
    ......
    ..@...
    .@.@..
    ......
    @@.@@.
    @@.@@.
    @@.@@.
    @@.@@.
    .@@.@.
    ......

u+00fc:
LATIN SMALL LETTER U WITH DIAERESIS:
    ......
    ......
    .@.@..
    ......
    @@.@@.
    @@.@@.
    @@.@@.
    @@.@@.
    .@@.@.
    ......
    ......

u+00fd:
LATIN SMALL LETTER Y WITH ACUTE:
    ...@..
    ..@...
    ......
    @@.@@.
    @@.@@.
    @@.@@.
    @@.@@.
    .@@@@.
    ...@@.
    .@@@..
    ......

u+00fe:
LATIN SMALL LETTER THORN:
    @.....
    @.....
    @@@@..
    @...@.
    @...@.
    @...@.
    @@@@..
    @.....
    @.....
    ......
    ......

u+00ff:
LATIN SMALL LETTER Y WITH DIAERESIS:
    .@.@..
    ......
    @@.@@.
    @@.@@.
    @@.@@.
    @@.@@.
    .@@@@.
    ...@@.
    .@@@..
    ......
    ......

u+0100:
LATIN CAPITAL LETTER A WITH MACRON:
    ......
    ......
    .@@@..
    ......
    .@@@..
    @...@.
    @...@.
    @@@@@.
    @...@.
    @...@.
    ......

u+0101:
LATIN SMALL LETTER A WITH MACRON:
    ......
    ......
    .@@@..
    ......
    .@@@..
    ....@.
    .@@@@.
    @...@.
    .@@@@.
    ......
    ......

u+0102:
LATIN CAPITAL LETTER A WITH BREVE:
    ......
    ......
    @...@.
    .@@@..
    .@@@..
    @...@.
    @...@.
    @@@@@.
    @...@.
    @...@.
    ......

u+0103:
LATIN SMALL LETTER A WITH BREVE:
    ......
    ......
    @...@.
    .@@@..
    ......
    .@@@..
    ....@.
    .@@@@.
    @...@.
    .@@@@.
    ......

u+0104:
LATIN CAPITAL LETTER A WITH OGONEK:
    ..@...
    .@.@..
    @...@.
    @...@.
    @@@@@.
    @...@.
    @...@.
    ...@..
    ...@@.
    ......
    ......

u+0105:
LATIN SMALL LETTER A WITH OGONEK:
    .@@@..
    ....@.
    .@@@@.
    @...@.
    .@@@@.
    ...@..
    ...@@.
    ......
    ......
    ......
    ......

u+0106:
LATIN CAPITAL LETTER C WITH ACUTE:
    ......
    ......
    ...@..
    ..@...
    .@@@..
    @...@.
    @.....
    @.....
    @...@.
    .@@@..
    ......

u+0107:
LATIN SMALL LETTER C WITH ACUTE:
    ......
    ......
    ...@..
    ..@...
    ......
    .@@@..
    @...@.
    @.....
    @...@.
    .@@@..
    ......

u+0108:
LATIN CAPITAL LETTER C WITH CIRCUMFLEX:
    ......
    ......
    ..@...
    .@.@..
    .@@@..
    @...@.
    @.....
    @.....
    @...@.
    .@@@..
    ......

u+0109:
LATIN SMALL LETTER C WITH CIRCUMFLEX:
    ......
    ......
    ..@...
    .@.@..
    ......
    .@@@..
    @...@.
    @.....
    @...@.
    .@@@..
    ......

u+010a:
LATIN CAPITAL LETTER C WITH DOT ABOVE:
    ......
    ......
    ..@...
    ......
    .@@@..
    @...@.
    @.....
    @.....
    @...@.
    .@@@..
    ......

u+010b:
LATIN SMALL LETTER C WITH DOT ABOVE:
    ......
    ......
    ..@...
    ......
    .@@@..
    @...@.
    @.....
    @...@.
    .@@@..
    ......
    ......

u+010c:
LATIN CAPITAL LETTER C WITH CARON:
    ......
    ......
    .@.@..
    ..@...
    .@@@..
    @...@.
    @.....
    @.....
    @...@.
    .@@@..
    ......

u+010d:
LATIN SMALL LETTER C WITH CARON:
    ......
    ......
    .@.@..
    ..@...
    ......
    .@@@..
    @...@.
    @.....
    @...@.
    .@@@..
    ......

u+010e:
LATIN CAPITAL LETTER D WITH CARON:
    ......
    ......
    .@.@..
    ..@...
    @@@@..
    @...@.
    @...@.
    @...@.
    @...@.
    @@@@..
    ......

u+010f:
LATIN SMALL LETTER D WITH CARON:
    ......
    ......
    .@.@..
    ..@...
    ....@.
    .@@.@.
    @..@@.
    @...@.
    @..@@.
    .@@.@.
    ......

u+0110:
LATIN CAPITAL LETTER D WITH STROKE:
    ......
    ......
    .@@@@.
    .@...@
    .@...@
    @@@..@
    .@...@
    .@...@
    .@@@@.
    ......
    ......

u+0111:
LATIN SMALL LETTER D WITH STROKE:
    ......
    ......
    ...@..
    ..@@@.
    ...@..
    .@@@..
    @..@..
    @..@..
    .@@@..
    ......
    ......

u+0112:
LATIN CAPITAL LETTER E WITH MACRON:
    ......
    ......
    .@@@..
    ......
    @@@@@.
    @.....
    @@@@..
    @.....
    @.....
    @@@@@.
    ......

u+0113:
LATIN SMALL LETTER E WITH MACRON:
    ......
    ......
    .@@@..
    ......
    .@@@..
    @...@.
    @@@@@.
    @.....
    .@@@..
    ......
    ......

u+0114:
LATIN CAPITAL LETTER E WITH BREVE:
    ......
    ......
    @...@.
    .@@@..
    @@@@@.
    @.....
    @@@@..
    @.....
    @.....
    @@@@@.
    ......

u+0115:
LATIN SMALL LETTER E WITH BREVE:
    ......
    ......
    @...@.
    .@@@..
    ......
    .@@@..
    @...@.
    @@@@@.
    @.....
    .@@@..
    ......

u+0116:
LATIN CAPITAL LETTER E WITH DOT ABOVE:
    ......
    ......
    ..@...
    ......
    @@@@@.
    @.....
    @@@@..
    @.....
    @.....
    @@@@@.
    ......

u+0117:
LATIN SMALL LETTER E WITH DOT ABOVE:
    ......
    ......
    ..@...
    ......
    .@@@..
    @...@.
    @@@@@.
    @.....
    .@@@..
    ......
    ......

u+0118:
LATIN CAPITAL LETTER E WITH OGONEK:
    @@@@@.
    @.....
    @.....
    @@@@..
    @.....
    @.....
    @@@@@.
    ..@...
    ..@@..
    ......
    ......

u+0119:
LATIN SMALL LETTER E WITH OGONEK:
    .@@@..
    @...@.
    @@@@@.
    @.....
    .@@@..
    ..@...
    ..@@..
    ......
    ......
    ......
    ......

u+011a:
LATIN CAPITAL LETTER E WITH CARON:
    ......
    ......
    .@.@..
    ..@...
    @@@@@.
    @.....
    @@@@..
    @.....
    @.....
    @@@@@.
    ......

u+011b:
LATIN SMALL LETTER E WITH CARON:
    ......
    ......
    .@.@..
    ..@...
    ......
    .@@@..
    @...@.
    @@@@@.
    @.....
    .@@@..
    ......

u+011c:
LATIN CAPITAL LETTER G WITH CIRCUMFLEX:
    ......
    ......
    ..@...
    .@.@..
    .@@@..
    @...@.
    @.....
    @..@@.
    @...@.
    .@@@..
    ......

u+011d:
LATIN SMALL LETTER G WITH CIRCUMFLEX:
    ..@...
    .@.@..
    ......
    .@@.@.
    @..@..
    .@@...
    @.....
    .@@@..
    @...@.
    .@@@..
    ......

u+011e:
LATIN CAPITAL LETTER G WITH BREVE:
    ......
    ......
    @...@.
    .@@@..
    .@@@..
    @...@.
    @.....
    @..@@.
    @...@.
    .@@@..
    ......

u+011f:
LATIN SMALL LETTER G WITH BREVE:
    @...@.
    .@@@..
    ......
    .@@.@.
    @..@..
    .@@...
    @.....
    .@@@..
    @...@.
    .@@@..
    ......

u+0120:
LATIN CAPITAL LETTER G WITH DOT ABOVE:
    ......
    ......
    ..@...
    ......
    .@@@..
    @...@.
    @.....
    @..@@.
    @...@.
    .@@@..
    ......

u+0121:
LATIN SMALL LETTER G WITH DOT ABOVE:
    ..@...
    ......
    .@@.@.
    @..@..
    .@@...
    @.....
    .@@@..
    @...@.
    .@@@..
    ......
    ......

u+0122:
LATIN CAPITAL LETTER G WITH CEDILLA:
    .@@@..
    @...@.
    @.....
    @..@@.
    @...@.
    .@@@..
    ..@...
    .@....
    ......
    ......
    ......

u+0123:
LATIN SMALL LETTER G WITH CEDILLA:
    .@....
    .@@...
    ......
    .@@.@.
    @..@..
    .@@...
    @.....
    .@@@..
    @...@.
    .@@@..
    ......

u+0124:
LATIN CAPITAL LETTER H WITH CIRCUMFLEX:
    ......
    ......
    ..@...
    .@.@..
    ......
    @...@.
    @...@.
    @@@@@.
    @...@.
    @...@.
    ......

u+0125:
LATIN SMALL LETTER H WITH CIRCUMFLEX:
    ......
    ......
    ...@..
    ..@.@.
    @.....
    @.....
    @@@@..
    @...@.
    @...@.
    @...@.
    ......

u+0126:
LATIN CAPITAL LETTER H WITH STROKE:
    ......
    ......
    .@..@.
    @@@@@@
    .@..@.
    .@@@@.
    .@..@.
    .@..@.
    .@..@.
    ......
    ......

u+0127:
LATIN SMALL LETTER H WITH STROKE:
    ......
    ......
    .@....
    @@@...
    .@.@@.
    .@@..@
    .@...@
    .@...@
    .@...@
    ......
    ......

u+0128:
LATIN CAPITAL LETTER I WITH TILDE:
    ......
    ......
    ..@.@.
    .@.@..
    .@@@..
    ..@...
    ..@...
    ..@...
    ..@...
    .@@@..
    ......

u+0129:
LATIN SMALL LETTER I WITH TILDE:
    ......
    ......
    ..@.@.
    .@.@..
    ......
    ..@@..
    ...@..
    ...@..
    ...@..
    ..@@@.
    ......

u+012a:
LATIN CAPITAL LETTER I WITH MACRON:
    ......
    ......
    .@@@..
    ......
    .@@@..
    ..@...
    ..@...
    ..@...
    ..@...
    .@@@..
    ......

u+012b:
LATIN SMALL LETTER I WITH MACRON:
    ......
    ......
    .@@@..
    ......
    .@@...
    ..@...
    ..@...
    ..@...
    .@@@..
    ......
    ......

u+012c:
LATIN CAPITAL LETTER I WITH BREVE:
    ......
    ......
    @...@.
    .@@@..
    .@@@..
    ..@...
    ..@...
    ..@...
    ..@...
    .@@@..
    ......

u+012d:
LATIN SMALL LETTER I WITH BREVE:
    ......
    ......
    @...@.
    .@@@..
    ......
    .@@...
    ..@...
    ..@...
    ..@...
    .@@@..
    ......

u+012e:
LATIN CAPITAL LETTER I WITH OGONEK:
    .@@@..
    ..@...
    ..@...
    ..@...
    ..@...
    ..@...
    .@@@..
    ..@...
    ..@@..
    ......
    ......

u+012f:
LATIN SMALL LETTER I WITH OGONEK:
    ..@...
    ......
    .@@...
    ..@...
    ..@...
    ..@...
    .@@@..
    ..@...
    ..@@..
    ......
    ......

u+0130:
LATIN CAPITAL LETTER I WITH DOT ABOVE:
    ......
    ......
    ..@...
    ......
    .@@@..
    ..@...
    ..@...
    ..@...
    ..@...
    .@@@..
    ......

u+0131:
LATIN SMALL LETTER DOTLESS I:
    ......
    ......
    .@@...
    ..@...
    ..@...
    ..@...
    .@@@..
    ......
    ......
    ......
    ......

u+0132:
LATIN CAPITAL LIGATURE IJ:
    ......
    ......
    @.@@@.
    @...@.
    @...@.
    @...@.
    @...@.
    @.@.@.
    @..@..
    ......
    ......

u+0133:
LATIN SMALL LIGATURE IJ:
    .@..@.
    ......
    .@.@@.
    .@..@.
    .@..@.
    .@..@.
    .@..@.
    ....@.
    ..@@..
    ......
    ......

u+0134:
LATIN CAPITAL LETTER J WITH CIRCUMFLEX:
    ......
    ......
    ...@..
    ..@.@.
    ..@@@.
    ...@..
    ...@..
    ...@..
    @..@..
    .@@...
    ......

u+0135:
LATIN SMALL LETTER J WITH CIRCUMFLEX:
    ...@..
    ..@.@.
    ......
    ..@@..
    ...@..
    ...@..
    ...@..
    @..@..
    @..@..
    .@@...
    ......

u+0136:
LATIN CAPITAL LETTER K WITH CEDILLA:
    @...@.
    @..@..
    @.@...
    @@....
    @.@...
    @..@..
    @...@.
    ..@...
    .@@...
    ......
    ......

u+0137:
LATIN SMALL LETTER K WITH CEDILLA:
    @.....
    @.....
    @...@.
    @..@..
    @@@...
    @..@..
    @...@.
    ..@...
    .@@...
    ......
    ......

u+0138:
LATIN SMALL LETTER KRA:
    ......
    ......
    @...@.
    @..@..
    @@@...
    @..@..
    @...@.
    ......
    ......
    ......
    ......

u+0139:
LATIN CAPITAL LETTER L WITH ACUTE:
    ......
    ......
    ...@..
    @.@...
    @.....
    @.....
    @.....
    @.....
    @.....
    @@@@@.
    ......

u+013a:
LATIN SMALL LETTER L WITH ACUTE:
    ......
    ......
    ...@..
    ..@...
    .@@...
    ..@...
    ..@...
    ..@...
    ..@...
    .@@@..
    ......

u+013b:
LATIN CAPITAL LETTER L WITH CEDILLA:
    @.....
    @.....
    @.....
    @.....
    @.....
    @.....
    @@@@@.
    ..@...
    .@@...
    ......
    ......

u+013c:
LATIN SMALL LETTER L WITH CEDILLA:
    .@@...
    ..@...
    ..@...
    ..@...
    ..@...
    ..@...
    .@@@..
    ..@...
    .@@...
    ......
    ......

u+013d:
LATIN CAPITAL LETTER L WITH CARON:
    ......
    ......
    ..@.@.
    @..@..
    @.....
    @.....
    @.....
    @.....
    @.....
    @@@@@.
    ......

u+013e:
LATIN SMALL LETTER L WITH CARON:
    ......
    ......
    .@.@..
    ..@...
    .@@...
    ..@...
    ..@...
    ..@...
    ..@...
    .@@@..
    ......

u+013f:
LATIN CAPITAL LETTER L WITH MIDDLE DOT:
    ......
    ......
    @.....
    @.....
    @.@...
    @.....
    @.....
    @.....
    @@@@@.
    ......
    ......

u+0140:
LATIN SMALL LETTER L WITH MIDDLE DOT:
    ......
    ......
    .@@...
    ..@...
    ..@.@.
    ..@...
    ..@...
    ..@...
    .@@@..
    ......
    ......

u+0141:
LATIN CAPITAL LETTER L WITH STROKE:
    ......
    ......
    .@....
    .@....
    .@@...
    @@....
    .@....
    .@....
    .@@@@@
    ......
    ......

u+0142:
LATIN SMALL LETTER L WITH STROKE:
    ......
    ......
    .@@...
    ..@...
    ..@@..
    .@@...
    ..@...
    ..@...
    .@@@..
    ......
    ......

u+0143:
LATIN CAPITAL LETTER N WITH ACUTE:
    ......
    ......
    ...@..
    ..@...
    @...@.
    @@..@.
    @.@.@.
    @..@@.
    @...@.
    @...@.
    ......

u+0144:
LATIN SMALL LETTER N WITH ACUTE:
    ......
    ......
    ...@..
    ..@...
    ......
    @.@@..
    @@..@.
    @...@.
    @...@.
    @...@.
    ......

u+0145:
LATIN CAPITAL LETTER N WITH CEDILLA:
    @...@.
    @...@.
    @@..@.
    @.@.@.
    @..@@.
    @...@.
    @...@.
    ..@...
    .@....
    ......
    ......

u+0146:
LATIN SMALL LETTER N WITH CEDILLA:
    @.@@..
    @@..@.
    @...@.
    @...@.
    @...@.
    ..@...
    .@....
    ......
    ......
    ......
    ......

u+0147:
LATIN CAPITAL LETTER N WITH CARON:
    ......
    ......
    .@.@..
    ..@...
    @...@.
    @@..@.
    @.@.@.
    @..@@.
    @...@.
    @...@.
    ......

u+0148:
LATIN SMALL LETTER N WITH CARON:
    ......
    ......
    .@.@..
    ..@...
    ......
    @.@@..
    @@..@.
    @...@.
    @...@.
    @...@.
    ......

u+0149:
LATIN SMALL LETTER N PRECEDED BY APOSTROPHE:
    ......
    ......
    @@....
    .@....
    @.....
    ..@.@.
    ..@@.@
    ..@..@
    ..@..@
    ..@..@
    ......

u+014a:
LATIN CAPITAL LETTER ENG:
    @...@.
    @...@.
    @@..@.
    @.@.@.
    @..@@.
    @...@.
    @...@.
    ....@.
    ..@@..
    ......
    ......

u+014b:
LATIN SMALL LETTER ENG:
    @.@@..
    @@..@.
    @...@.
    @...@.
    @...@.
    ....@.
    ..@@..
    ......
    ......
    ......
    ......

u+014c:
LATIN CAPITAL LETTER O WITH MACRON:
    ......
    ......
    .@@@..
    ......
    .@@@..
    @...@.
    @...@.
    @...@.
    @...@.
    .@@@..
    ......

u+014d:
LATIN SMALL LETTER O WITH MACRON:
    ......
    ......
    .@@@..
    ......
    .@@@..
    @...@.
    @...@.
    @...@.
    .@@@..
    ......
    ......

u+014e:
LATIN CAPITAL LETTER O WITH BREVE:
    ......
    ......
    @...@.
    .@@@..
    .@@@..
    @...@.
    @...@.
    @...@.
    @...@.
    .@@@..
    ......

u+014f:
LATIN SMALL LETTER O WITH BREVE:
    ......
    ......
    @...@.
    .@@@..
    ......
    .@@@..
    @...@.
    @...@.
    @...@.
    .@@@..
    ......

u+0150:
LATIN CAPITAL LETTER O WITH DOUBLE ACUTE:
    ......
    ......
    .@..@.
    @..@..
    .@@@..
    @...@.
    @...@.
    @...@.
    @...@.
    .@@@..
    ......

u+0151:
LATIN SMALL LETTER O WITH DOUBLE ACUTE:
    ......
    ......
    .@..@.
    @..@..
    ......
    .@@@..
    @...@.
    @...@.
    @...@.
    .@@@..
    ......

u+0152:
LATIN CAPITAL LIGATURE OE:
    ......
    ......
    .@@@@.
    @.@...
    @.@...
    @.@@..
    @.@...
    @.@...
    .@@@@.
    ......
    ......

u+0153:
LATIN SMALL LIGATURE OE:
    ......
    ......
    .@@@..
    @.@.@.
    @.@@..
    @.@...
    .@@@@.
    ......
    ......
    ......
    ......

u+0154:
LATIN CAPITAL LETTER R WITH ACUTE:
    ......
    ......
    ...@..
    ..@...
    @@@@..
    @...@.
    @@@@..
    @.@...
    @..@..
    @...@.
    ......

u+0155:
LATIN SMALL LETTER R WITH ACUTE:
    ......
    ......
    ...@..
    ..@...
    ......
    @.@@..
    @@..@.
    @.....
    @.....
    @.....
    ......

u+0156:
LATIN CAPITAL LETTER R WITH CEDILLA:
    .@@@@.
    .@...@
    .@...@
    .@@@@.
    .@.@..
    .@..@.
    .@...@
    ..@...
    @@....
    ......
    ......

u+0157:
LATIN SMALL LETTER R WITH CEDILLA:
    .@.@@.
    .@@..@
    .@....
    .@....
    .@....
    ..@...
    @@....
    ......
    ......
    ......
    ......

u+0158:
LATIN CAPITAL LETTER R WITH CARON:
    ......
    ......
    .@.@..
    ..@...
    @@@@..
    @...@.
    @@@@..
    @.@...
    @..@..
    @...@.
    ......

u+0159:
LATIN SMALL LETTER R WITH CARON:
    ......
    ......
    .@.@..
    ..@...
    ......
    @.@@..
    @@..@.
    @.....
    @.....
    @.....
    ......

u+015a:
LATIN CAPITAL LETTER S WITH ACUTE:
    ......
    ......
    ...@..
    ..@...
    .@@@@.
    @.....
    .@@@..
    ....@.
    @...@.
    .@@@..
    ......

u+015b:
LATIN SMALL LETTER S WITH ACUTE:
    ......
    ......
    ...@..
    ..@...
    ......
    .@@@..
    @.....
    .@@@..
    ....@.
    @@@@..
    ......

u+015c:
LATIN CAPITAL LETTER S WITH CIRCUMFLEX:
    ......
    ......
    ..@...
    .@.@..
    .@@@@.
    @.....
    .@@@..
    ....@.
    @...@.
    .@@@..
    ......

u+015d:
LATIN SMALL LETTER S WITH CIRCUMFLEX:
    ......
    ......
    ..@...
    .@.@..
    ......
    .@@@..
    @.....
    .@@@..
    ....@.
    @@@@..
    ......

u+015e:
LATIN CAPITAL LETTER S WITH CEDILLA:
    .@@@..
    @...@.
    @.....
    .@@@..
    ....@.
    @...@.
    .@@@..
    ..@...
    .@....
    ......
    ......

u+015f:
LATIN SMALL LETTER S WITH CEDILLA:
    .@@@..
    @.....
    .@@@..
    ....@.
    @@@@..
    ..@...
    .@....
    ......
    ......
    ......
    ......

u+0160:
LATIN CAPITAL LETTER S WITH CARON:
    ......
    ......
    .@.@..
    ..@...
    .@@@..
    @.....
    .@@@..
    ....@.
    @...@.
    .@@@..
    ......

u+0161:
LATIN SMALL LETTER S WITH CARON:
    ......
    ......
    .@.@..
    ..@...
    ......
    .@@@..
    @.....
    .@@@..
    ....@.
    @@@@..
    ......

u+0162:
LATIN CAPITAL LETTER T WITH CEDILLA:
    @@@@@.
    ..@...
    ..@...
    ..@...
    ..@...
    ..@...
    ..@...
    ...@..
    .@@...
    ......
    ......

u+0163:
LATIN SMALL LETTER T WITH CEDILLA:
    .@....
    .@....
    @@@@..
    .@....
    .@....
    .@..@.
    ..@@..
    ...@..
    .@@...
    ......
    ......

u+0164:
LATIN CAPITAL LETTER T WITH CARON:
    ......
    ......
    .@.@..
    ..@...
    @@@@@.
    ..@...
    ..@...
    ..@...
    ..@...
    ..@...
    ......

u+0165:
LATIN SMALL LETTER T WITH CARON:
    ......
    ......
    @.@...
    .@....
    .@....
    @@@@..
    .@....
    .@....
    .@..@.
    ..@@..
    ......

u+0166:
LATIN CAPITAL LETTER T WITH STROKE:
    ......
    ......
    @@@@@.
    ..@...
    ..@...
    .@@@..
    ..@...
    ..@...
    ..@...
    ......
    ......

u+0167:
LATIN SMALL LETTER T WITH STROKE:
    ......
    ......
    .@....
    @@@@..
    .@....
    @@@@..
    .@....
    .@..@.
    ..@@..
    ......
    ......

u+0168:
LATIN CAPITAL LETTER U WITH TILDE:
    ......
    ......
    ..@.@.
    .@.@..
    ......
    @...@.
    @...@.
    @...@.
    @...@.
    .@@@..
    ......

u+0169:
LATIN SMALL LETTER U WITH TILDE:
    ......
    ......
    ..@.@.
    .@.@..
    ......
    @...@.
    @...@.
    @...@.
    @..@@.
    .@@.@.
    ......

u+016a:
LATIN CAPITAL LETTER U WITH MACRON:
    ......
    ......
    .@@@..
    ......
    @...@.
    @...@.
    @...@.
    @...@.
    @...@.
    .@@@..
    ......

u+016b:
LATIN SMALL LETTER U WITH MACRON:
    ......
    ......
    .@@@..
    ......
    @...@.
    @...@.
    @...@.
    @..@@.
    .@@.@.
    ......
    ......

u+016c:
LATIN CAPITAL LETTER U WITH BREVE:
    ......
    ......
    @...@.
    .@@@..
    ......
    @...@.
    @...@.
    @...@.
    @...@.
    .@@@..
    ......

u+016d:
LATIN SMALL LETTER U WITH BREVE:
    ......
    ......
    @...@.
    .@@@..
    ......
    @...@.
    @...@.
    @...@.
    @..@@.
    .@@.@.
    ......

u+016e:
LATIN CAPITAL LETTER U WITH RING ABOVE:
    ......
    ......
    ..@...
    .@.@..
    @.@.@.
    @...@.
    @...@.
    @...@.
    @...@.
    .@@@..
    ......

u+016f:
LATIN SMALL LETTER U WITH RING ABOVE:
    ......
    ......
    ..@...
    .@.@..
    ..@...
    @...@.
    @...@.
    @...@.
    @..@@.
    .@@.@.
    ......

u+0170:
LATIN CAPITAL LETTER U WITH DOUBLE ACUTE:
    ......
    ......
    .@..@.
    @..@..
    ......
    @...@.
    @...@.
    @...@.
    @...@.
    .@@@..
    ......

u+0171:
LATIN SMALL LETTER U WITH DOUBLE ACUTE:
    ......
    ......
    .@..@.
    @..@..
    ......
    @...@.
    @...@.
    @...@.
    @..@@.
    .@@.@.
    ......

u+0172:
LATIN CAPITAL LETTER U WITH OGONEK:
    @...@.
    @...@.
    @...@.
    @...@.
    @...@.
    @...@.
    .@@@..
    ..@...
    ..@@..
    ......
    ......

u+0173:
LATIN SMALL LETTER U WITH OGONEK:
    @...@.
    @...@.
    @...@.
    @...@.
    .@@@..
    ...@..
    ...@@.
    ......
    ......
    ......
    ......

u+0174:
LATIN CAPITAL LETTER W WITH CIRCUMFLEX:
    ......
    ......
    ..@...
    .@.@..
    ......
    @...@.
    @.@.@.
    @.@.@.
    @@.@@.
    @...@.
    ......

u+0175:
LATIN SMALL LETTER W WITH CIRCUMFLEX:
    ......
    ......
    ..@...
    .@.@..
    ......
    @...@.
    @...@.
    @.@.@.
    @.@.@.
    .@.@..
    ......

u+0176:
LATIN CAPITAL LETTER Y WITH CIRCUMFLEX:
    ......
    ......
    ..@...
    .@.@..
    ......
    @...@.
    .@.@..
    ..@...
    ..@...
    ..@...
    ......

u+0177:
LATIN SMALL LETTER Y WITH CIRCUMFLEX:
    ..@...
    .@.@..
    ......
    @...@.
    @...@.
    @..@@.
    .@@.@.
    ....@.
    @...@.
    .@@@..
    ......

u+0178:
LATIN CAPITAL LETTER Y WITH DIAERESIS:
    ......
    ......
    .@.@..
    ......
    @...@.
    .@.@..
    ..@...
    ..@...
    ..@...
    ..@...
    ......

u+0179:
LATIN CAPITAL LETTER Z WITH ACUTE:
    ......
    ......
    ...@..
    ..@...
    @@@@@.
    ...@..
    ..@...
    .@....
    @.....
    @@@@@.
    ......

u+017a:
LATIN SMALL LETTER Z WITH ACUTE:
    ......
    ......
    ...@..
    ..@...
    ......
    @@@@@.
    ...@..
    ..@...
    .@....
    @@@@@.
    ......

u+017b:
LATIN CAPITAL LETTER Z WITH DOT ABOVE:
    ......
    ......
    ..@...
    ......
    @@@@@.
    ...@..
    ..@...
    .@....
    @.....
    @@@@@.
    ......

u+017c:
LATIN SMALL LETTER Z WITH DOT ABOVE:
    ......
    ......
    ..@...
    ......
    @@@@@.
    ...@..
    ..@...
    .@....
    @@@@@.
    ......
    ......

u+017d:
LATIN CAPITAL LETTER Z WITH CARON:
    ......
    ......
    .@.@..
    ..@...
    @@@@@.
    ...@..
    ..@...
    .@....
    @.....
    @@@@@.
    ......

u+017e:
LATIN SMALL LETTER Z WITH CARON:
    ......
    ......
    .@.@..
    ..@...
    ......
    @@@@@.
    ...@..
    ..@...
    .@....
    @@@@@.
    ......

u+017f:
LATIN SMALL LETTER LONG S:
    ......
    ......
    ..@@..
    .@..@.
    .@....
    @@....
    .@....
    .@....
    .@....
    ......
    ......

u+018f:
LATIN CAPITAL LETTER SCHWA:
    ......
    ......
    .@@@..
    @...@.
    ....@.
    @@@@@.
    @...@.
    @...@.
    .@@@..
    ......
    ......

u+0192:
LATIN SMALL LETTER F WITH HOOK:
    ......
    ...@..
    ..@.@.
    ..@...
    .@@@..
    ..@...
    ..@...
    @.@...
    .@....
    ......
    ......

u+01a0:
LATIN CAPITAL LETTER O WITH HORN:
    ......
    ......
    .@@..@
    @..@.@
    @..@@.
    @..@..
    @..@..
    @..@..
    .@@...
    ......
    ......

u+01a1:
LATIN SMALL LETTER O WITH HORN:
    ......
    ......
    .@@..@
    @..@@.
    @..@..
    @..@..
    .@@...
    ......
    ......
    ......
    ......

u+01af:
LATIN CAPITAL LETTER U WITH HORN:
    ......
    ......
    @..@.@
    @..@.@
    @..@@.
    @..@..
    @..@..
    @..@..
    .@@...
    ......
    ......

u+01b0:
LATIN SMALL LETTER U WITH HORN:
    ......
    ......
    @..@.@
    @..@@.
    @..@..
    @.@@..
    .@.@..
    ......
    ......
    ......
    ......

u+01b5:
LATIN CAPITAL LETTER Z WITH STROKE:
    ......
    ......
    @@@@@.
    ....@.
    ...@..
    @@@@@.
    .@....
    @.....
    @@@@@.
    ......
    ......

u+01b6:
LATIN SMALL LETTER Z WITH STROKE:
    ......
    ......
    @@@@@.
    ...@..
    @@@@@.
    .@....
    @@@@@.
    ......
    ......
    ......
    ......

u+01d1:
LATIN CAPITAL LETTER O WITH CARON:
    ......
    ......
    .@.@..
    ..@...
    .@@@..
    @...@.
    @...@.
    @...@.
    @...@.
    .@@@..
    ......

u+01d2:
LATIN SMALL LETTER O WITH CARON:
    ......
    ......
    .@.@..
    ..@...
    ......
    .@@@..
    @...@.
    @...@.
    @...@.
    .@@@..
    ......

u+01e6:
LATIN CAPITAL LETTER G WITH CARON:
    ......
    ......
    .@.@..
    ..@...
    .@@@..
    @...@.
    @.....
    @..@@.
    @...@.
    .@@@..
    ......

u+01e7:
LATIN SMALL LETTER G WITH CARON:
    .@.@..
    ..@...
    ......
    .@@.@.
    @..@..
    .@@...
    @.....
    .@@@..
    @...@.
    .@@@..
    ......

u+01fa:
LATIN CAPITAL LETTER A WITH RING ABOVE AND ACUTE:
    ......
    ......
    ...@..
    ..@...
    ..@...
    .@.@..
    .@@@..
    @...@.
    @@@@@.
    @...@.
    ......

u+01fb:
LATIN SMALL LETTER A WITH RING ABOVE AND ACUTE:
    ......
    ......
    ...@..
    ..@...
    ..@...
    .@.@..
    ..@...
    .@@@@.
    @...@.
    .@@@@.
    ......

u+01fc:
LATIN CAPITAL LETTER AE WITH ACUTE:
    ......
    ......
    ....@.
    ...@..
    .@@@@@
    @..@..
    @..@@@
    @@@@..
    @..@..
    @..@@@
    ......

u+01fd:
LATIN SMALL LETTER AE WITH ACUTE:
    ......
    ......
    ....@.
    ...@..
    ......
    .@@@@.
    ...@.@
    .@@@@@
    @..@..
    .@@@@@
    ......

u+01fe:
LATIN CAPITAL LETTER O WITH STROKE AND ACUTE:
    ......
    ......
    ...@..
    ..@...
    .@@@..
    @..@@.
    @.@.@.
    @.@.@.
    @@..@.
    .@@@..
    ......

u+01ff:
LATIN SMALL LETTER O WITH STROKE AND ACUTE:
    ......
    ......
    ...@..
    ..@...
    ......
    .@@@@.
    @..@@.
    @.@.@.
    @@..@.
    @@@@..
    ......

u+0218:
LATIN CAPITAL LETTER S WITH COMMA BELOW:
    .@@@..
    @...@.
    @.....
    .@@@..
    ....@.
    @...@.
    .@@@..
    ..@...
    .@....
    ......
    ......

u+0219:
LATIN SMALL LETTER S WITH COMMA BELOW:
    .@@@..
    @.....
    .@@@..
    ....@.
    @@@@..
    ..@...
    .@....
    ......
    ......
    ......
    ......

u+021a:
LATIN CAPITAL LETTER T WITH COMMA BELOW:
    @@@@@.
    ..@...
    ..@...
    ..@...
    ..@...
    ..@...
    ..@...
    ...@..
    ..@...
    ......
    ......

u+021b:
LATIN SMALL LETTER T WITH COMMA BELOW:
    .@....
    .@....
    @@@@..
    .@....
    .@....
    .@..@.
    ..@@..
    ...@..
    ..@...
    ......
    ......

u+0259:
LATIN SMALL LETTER SCHWA:
    ......
    ......
    .@@@..
    ....@.
    @@@@@.
    @...@.
    .@@@..
    ......
    ......
    ......
    ......

u+02bc:
MODIFIER LETTER APOSTROPHE:
    ......
    ......
    ......
    ......
    ......
    ......
    ..@@..
    ...@..
    ..@...
    ......
    ......

u+02bd:
MODIFIER LETTER REVERSED COMMA:
    ......
    ......
    ......
    ......
    ......
    ......
    ..@@..
    ..@...
    ...@..
    ......
    ......

u+02c6:
MODIFIER LETTER CIRCUMFLEX ACCENT:
    ......
    ......
    ......
    ......
    ......
    ......
    ......
    ......
    ..@...
    .@.@..
    ......

u+02c7:
CARON:
    ......
    ......
    ......
    ......
    ......
    ......
    ......
    ......
    .@.@..
    ..@...
    ......

u+02c9:
MODIFIER LETTER MACRON:
    ......
    ......
    ......
    ......
    ......
    ......
    ......
    ......
    ......
    .@@@..
    ......

u+02d6:
MODIFIER LETTER PLUS SIGN:
    ......
    ......
    ......
    ......
    ......
    ......
    ......
    ..@...
    .@@@..
    ..@...
    ......

u+02d8:
BREVE:
    ......
    ......
    ......
    ......
    ......
    ......
    ......
    ......
    @...@.
    .@@@..
    ......

u+02d9:
DOT ABOVE:
    ......
    ......
    ......
    ......
    ......
    ......
    ......
    ......
    ......
    ..@...
    ......

u+02da:
RING ABOVE:
    ......
    ......
    ......
    ......
    ......
    ......
    ......
    ..@...
    .@.@..
    ..@...
    ......

u+02db:
OGONEK:
    ..@...
    ..@@..
    ......
    ......
    ......
    ......
    ......
    ......
    ......
    ......
    ......

u+02dc:
SMALL TILDE:
    ......
    ......
    ......
    ......
    ......
    ......
    ......
    ......
    ..@.@.
    .@.@..
    ......

u+02dd:
DOUBLE ACUTE ACCENT:
    ......
    ......
    ......
    ......
    ......
    ......
    ......
    ......
    .@..@.
    @..@..
    ......

u+0300:
COMBINING GRAVE ACCENT:
    ......
    ......
    ......
    ......
    ......
    ......
    ......
    ......
    ..@...
    ...@..
    ......

u+0301:
COMBINING ACUTE ACCENT:
    ......
    ......
    ......
    ......
    ......
    ......
    ......
    ......
    ...@..
    ..@...
    ......

u+0302:
COMBINING CIRCUMFLEX ACCENT:
    ......
    ......
    ......
    ......
    ......
    ......
    ......
    ......
    ..@...
    .@.@..
    ......

u+0303:
COMBINING TILDE:
    ......
    ......
    ......
    ......
    ......
    ......
    ......
    ......
    ..@.@.
    .@.@..
    ......

u+0304:
COMBINING MACRON:
    ......
    ......
    ......
    ......
    ......
    ......
    ......
    ......
    ......
    .@@@..
    ......

u+0305:
COMBINING OVERLINE:
    ......
    ......
    ......
    ......
    ......
    ......
    ......
    ......
    ......
    @@@@@.
    ......

u+0306:
COMBINING BREVE:
    ......
    ......
    ......
    ......
    ......
    ......
    ......
    ......
    @...@.
    .@@@..
    ......

u+0307:
COMBINING DOT ABOVE:
    ......
    ......
    ......
    ......
    ......
    ......
    ......
    ......
    ......
    ..@...
    ......

u+0308:
COMBINING DIAERESIS:
    ......
    ......
    ......
    ......
    ......
    ......
    ......
    ......
    ......
    .@.@..
    ......

u+0309:
COMBINING HOOK ABOVE:
    ......
    ......
    ......
    ......
    ......
    ......
    ......
    .@@...
    ...@..
    ..@...
    ......

u+030a:
COMBINING RING ABOVE:
    ......
    ......
    ......
    ......
    ......
    ......
    ......
    ..@...
    .@.@..
    ..@...
    ......

u+030b:
COMBINING DOUBLE ACUTE ACCENT:
    ......
    ......
    ......
    ......
    ......
    ......
    ......
    ......
    .@..@.
    @..@..
    ......

u+030c:
COMBINING CARON:
    ......
    ......
    ......
    ......
    ......
    ......
    ......
    ......
    .@.@..
    ..@...
    ......

u+030d:
COMBINING VERTICAL LINE ABOVE:
    ......
    ......
    ......
    ......
    ......
    ......
    ......
    ......
    ..@...
    ..@...
    ......

u+030e:
COMBINING DOUBLE VERTICAL LINE ABOVE:
    ......
    ......
    ......
    ......
    ......
    ......
    ......
    ......
    .@.@..
    .@.@..
    ......

u+030f:
COMBINING DOUBLE GRAVE ACCENT:
    ......
    ......
    ......
    ......
    ......
    ......
    ......
    ......
    @..@..
    .@..@.
    ......

u+0310:
COMBINING CANDRABINDU:
    ......
    ......
    ......
    ......
    ......
    ......
    ......
    ......
    @.@.@.
    .@@@..
    ......

u+0311:
COMBINING INVERTED BREVE:
    ......
    ......
    ......
    ......
    ......
    ......
    ......
    ......
    .@@@..
    @...@.
    ......

u+0323:
COMBINING DOT BELOW:
    ..@...
    ......
    ......
    ......
    ......
    ......
    ......
    ......
    ......
    ......
    ......

u+0324:
COMBINING DIAERESIS BELOW:
    .@.@..
    ......
    ......
    ......
    ......
    ......
    ......
    ......
    ......
    ......
    ......

u+0338:
COMBINING LONG SOLIDUS OVERLAY:
    ......
    ......
    ...@..
    ...@..
    ..@...
    ..@...
    .@....
    .@....
    ......
    ......
    ......

u+0340:
COMBINING GRAVE TONE MARK:
    ......
    ......
    ......
    ......
    ......
    ......
    ......
    ......
    ..@...
    ...@..
    ......

u+0341:
COMBINING ACUTE TONE MARK:
    ......
    ......
    ......
    ......
    ......
    ......
    ......
    ......
    ...@..
    ..@...
    ......

u+0374:
GREEK NUMERAL SIGN:
    ......
    ......
    ......
    ......
    ......
    ......
    ......
    ...@..
    ..@...
    ......
    ......

u+0375:
GREEK LOWER NUMERAL SIGN:
    ...@..
    ..@...
    ......
    ......
    ......
    ......
    ......
    ......
    ......
    ......
    ......

u+037a:
GREEK YPOGEGRAMMENI:
    ..@...
    ..@@..
    ......
    ......
    ......
    ......
    ......
    ......
    ......
    ......
    ......

u+037e:
GREEK QUESTION MARK:
    ......
    ..@...
    .@@@..
    ..@...
    ......
    ..@@..
    ..@...
    .@....
    ......
    ......
    ......

u+0384:
GREEK TONOS:
    ......
    ......
    ......
    ......
    ......
    ......
    ......
    ...@..
    ..@...
    ......
    ......

u+0385:
GREEK DIALYTIKA TONOS:
    ......
    ......
    ......
    ......
    ......
    ......
    ......
    ...@..
    @.@.@.
    ......
    ......

u+0386:
GREEK CAPITAL LETTER ALPHA WITH TONOS:
    ......
    ......
    .@.@@.
    @.@..@
    ..@..@
    ..@..@
    ..@@@@
    ..@..@
    ..@..@
    ......
    ......

u+0387:
GREEK ANO TELEIA:
    ......
    ......
    ......
    ......
    ......
    ......
    ..@...
    ......
    ......
    ......
    ......

u+0388:
GREEK CAPITAL LETTER EPSILON WITH TONOS:
    ......
    ......
    .@@@@@
    @.@...
    ..@...
    ..@@@.
    ..@...
    ..@...
    ..@@@@
    ......
    ......

u+0389:
GREEK CAPITAL LETTER ETA WITH TONOS:
    ......
    ......
    .@@..@
    @.@..@
    ..@..@
    ..@@@@
    ..@..@
    ..@..@
    ..@..@
    ......
    ......

u+038a:
GREEK CAPITAL LETTER IOTA WITH TONOS:
    ......
    ......
    .@.@@@
    @...@.
    ....@.
    ....@.
    ....@.
    ....@.
    ...@@@
    ......
    ......

u+038c:
GREEK CAPITAL LETTER OMICRON WITH TONOS:
    ......
    ......
    .@.@@.
    @.@..@
    ..@..@
    ..@..@
    ..@..@
    ..@..@
    ...@@.
    ......
    ......

u+038e:
GREEK CAPITAL LETTER UPSILON WITH TONOS:
    ......
    ......
    .@.@.@
    @..@.@
    ...@.@
    ....@.
    ....@.
    ....@.
    ....@.
    ......
    ......

u+038f:
GREEK CAPITAL LETTER OMEGA WITH TONOS:
    ......
    ......
    .@.@@.
    @.@..@
    ..@..@
    ..@..@
    ..@..@
    ...@@.
    ..@@@@
    ......
    ......

u+0390:
GREEK SMALL LETTER IOTA WITH DIALYTIKA AND TONOS:
    ......
    ......
    ...@..
    @.@.@.
    ......
    ..@...
    ..@...
    ..@...
    ..@.@.
    ...@..
    ......

u+0391:
GREEK CAPITAL LETTER ALPHA:
    ......
    ......
    ..@...
    .@.@..
    @...@.
    @...@.
    @@@@@.
    @...@.
    @...@.
    ......
    ......

u+0392:
GREEK CAPITAL LETTER BETA:
    ......
    ......
    @@@@..
    @...@.
    @...@.
    @@@@..
    @...@.
    @...@.
    @@@@..
    ......
    ......

u+0393:
GREEK CAPITAL LETTER GAMMA:
    ......
    ......
    @@@@@.
    @.....
    @.....
    @.....
    @.....
    @.....
    @.....
    ......
    ......

u+0394:
GREEK CAPITAL LETTER DELTA:
    ......
    ......
    ..@...
    .@.@..
    .@.@..
    .@.@..
    @...@.
    @...@.
    @@@@@.
    ......
    ......

u+0395:
GREEK CAPITAL LETTER EPSILON:
    ......
    ......
    @@@@@.
    @.....
    @.....
    @@@@..
    @.....
    @.....
    @@@@@.
    ......
    ......

u+0396:
GREEK CAPITAL LETTER ZETA:
    ......
    ......
    @@@@@.
    ....@.
    ...@..
    ..@...
    .@....
    @.....
    @@@@@.
    ......
    ......

u+0397:
GREEK CAPITAL LETTER ETA:
    ......
    ......
    @...@.
    @...@.
    @...@.
    @@@@@.
    @...@.
    @...@.
    @...@.
    ......
    ......

u+0398:
GREEK CAPITAL LETTER THETA:
    ......
    ......
    .@@@..
    @...@.
    @...@.
    @@@@@.
    @...@.
    @...@.
    .@@@..
    ......
    ......

u+0399:
GREEK CAPITAL LETTER IOTA:
    ......
    ......
    .@@@..
    ..@...
    ..@...
    ..@...
    ..@...
    ..@...
    .@@@..
    ......
    ......

u+039a:
GREEK CAPITAL LETTER KAPPA:
    ......
    ......
    @...@.
    @..@..
    @.@...
    @@....
    @.@...
    @..@..
    @...@.
    ......
    ......

u+039b:
GREEK CAPITAL LETTER LAMDA:
    ......
    ......
    ..@...
    .@.@..
    .@.@..
    .@.@..
    @...@.
    @...@.
    @...@.
    ......
    ......

u+039c:
GREEK CAPITAL LETTER MU:
    ......
    ......
    @...@.
    @...@.
    @@.@@.
    @.@.@.
    @...@.
    @...@.
    @...@.
    ......
    ......

u+039d:
GREEK CAPITAL LETTER NU:
    ......
    ......
    @...@.
    @...@.
    @@..@.
    @.@.@.
    @..@@.
    @...@.
    @...@.
    ......
    ......

u+039e:
GREEK CAPITAL LETTER XI:
    ......
    ......
    @@@@@.
    ......
    ......
    .@@@..
    ......
    ......
    @@@@@.
    ......
    ......

u+039f:
GREEK CAPITAL LETTER OMICRON:
    ......
    ......
    .@@@..
    @...@.
    @...@.
    @...@.
    @...@.
    @...@.
    .@@@..
    ......
    ......

u+03a0:
GREEK CAPITAL LETTER PI:
    ......
    ......
    @@@@@.
    @...@.
    @...@.
    @...@.
    @...@.
    @...@.
    @...@.
    ......
    ......

u+03a1:
GREEK CAPITAL LETTER RHO:
    ......
    ......
    @@@@..
    @...@.
    @...@.
    @@@@..
    @.....
    @.....
    @.....
    ......
    ......

u+03a3:
GREEK CAPITAL LETTER SIGMA:
    ......
    ......
    @@@@@.
    @.....
    .@....
    ..@...
    .@....
    @.....
    @@@@@.
    ......
    ......

u+03a4:
GREEK CAPITAL LETTER TAU:
    ......
    ......
    @@@@@.
    ..@...
    ..@...
    ..@...
    ..@...
    ..@...
    ..@...
    ......
    ......

u+03a5:
GREEK CAPITAL LETTER UPSILON:
    ......
    ......
    @...@.
    @...@.
    .@.@..
    ..@...
    ..@...
    ..@...
    ..@...
    ......
    ......

u+03a6:
GREEK CAPITAL LETTER PHI:
    ......
    ......
    ..@...
    .@@@..
    @.@.@.
    @.@.@.
    @.@.@.
    .@@@..
    ..@...
    ......
    ......

u+03a7:
GREEK CAPITAL LETTER CHI:
    ......
    ......
    @...@.
    @...@.
    .@.@..
    ..@...
    .@.@..
    @...@.
    @...@.
    ......
    ......

u+03a8:
GREEK CAPITAL LETTER PSI:
    ......
    ......
    @.@.@.
    @.@.@.
    @.@.@.
    @.@.@.
    .@@@..
    ..@...
    ..@...
    ......
    ......

u+03a9:
GREEK CAPITAL LETTER OMEGA:
    ......
    ......
    .@@@..
    @...@.
    @...@.
    @...@.
    @...@.
    .@.@..
    @@.@@.
    ......
    ......

u+03aa:
GREEK CAPITAL LETTER IOTA WITH DIALYTIKA:
    ......
    ......
    .@.@..
    ......
    .@@@..
    ..@...
    ..@...
    ..@...
    ..@...
    .@@@..
    ......

u+03ab:
GREEK CAPITAL LETTER UPSILON WITH DIALYTIKA:
    ......
    ......
    @...@.
    ......
    @...@.
    @...@.
    .@.@..
    ..@...
    ..@...
    ..@...
    ......

u+03ac:
GREEK SMALL LETTER ALPHA WITH TONOS:
    ......
    ......
    ...@..
    ..@...
    ......
    .@@@..
    @...@.
    @...@.
    @..@@.
    .@@.@.
    ......

u+03ad:
GREEK SMALL LETTER EPSILON WITH TONOS:
    ......
    ......
    ...@..
    ..@...
    ......
    .@@@..
    @...@.
    .@@...
    @...@.
    .@@@..
    ......

u+03ae:
GREEK SMALL LETTER ETA WITH TONOS:
    ...@..
    ..@...
    ......
    @.@@..
    @@..@.
    @...@.
    @...@.
    @...@.
    ....@.
    ....@.
    ......

u+03af:
GREEK SMALL LETTER IOTA WITH TONOS:
    ......
    ......
    ..@...
    .@....
    ......
    .@....
    .@....
    .@....
    .@.@..
    ..@...
    ......

u+03b0:
GREEK SMALL LETTER UPSILON WITH DIALYTIKA AND TONOS:
    ......
    ......
    ...@..
    @.@.@.
    ......
    @...@.
    @...@.
    @...@.
    @...@.
    .@@@..
    ......

u+03b1:
GREEK SMALL LETTER ALPHA:
    ......
    ......
    .@@@..
    @...@.
    @...@.
    @..@@.
    .@@.@.
    ......
    ......
    ......
    ......

u+03b2:
GREEK SMALL LETTER BETA:
    .@@...
    @..@..
    @..@..
    @@@@..
    @...@.
    @...@.
    @@@@..
    @.....
    @.....
    ......
    ......

u+03b3:
GREEK SMALL LETTER GAMMA:
    @...@.
    @...@.
    .@.@..
    .@.@..
    ..@...
    ..@...
    ..@...
    ......
    ......
    ......
    ......

u+03b4:
GREEK SMALL LETTER DELTA:
    ......
    ......
    .@@@..
    @...@.
    .@@...
    @..@..
    @...@.
    @...@.
    .@@@..
    ......
    ......

u+03b5:
GREEK SMALL LETTER EPSILON:
    ......
    ......
    .@@@..
    @...@.
    .@@...
    @...@.
    .@@@..
    ......
    ......
    ......
    ......

u+03b6:
GREEK SMALL LETTER ZETA:
    @@@@@.
    ..@...
    .@....
    .@....
    @.....
    @.....
    .@@@..
    ....@.
    ..@@..
    ......
    ......

u+03b7:
GREEK SMALL LETTER ETA:
    @.@@..
    @@..@.
    @...@.
    @...@.
    @...@.
    ....@.
    ....@.
    ......
    ......
    ......
    ......

u+03b8:
GREEK SMALL LETTER THETA:
    ......
    ......
    ..@@..
    .@..@.
    .@..@.
    .@@@@.
    .@..@.
    .@..@.
    ..@@..
    ......
    ......

u+03b9:
GREEK SMALL LETTER IOTA:
    ......
    ......
    .@....
    .@....
    .@....
    .@.@..
    ..@...
    ......
    ......
    ......
    ......

u+03ba:
GREEK SMALL LETTER KAPPA:
    ......
    ......
    @...@.
    @..@..
    @@@...
    @..@..
    @...@.
    ......
    ......
    ......
    ......

u+03bb:
GREEK SMALL LETTER LAMDA:
    ......
    ......
    .@@@..
    @...@.
    .@@.@.
    @..@@.
    @...@.
    @...@.
    @...@.
    ......
    ......

u+03bc:
GREEK SMALL LETTER MU:
    @...@.
    @...@.
    @...@.
    @@.@@.
    @.@.@.
    @.....
    @.....
    ......
    ......
    ......
    ......

u+03bd:
GREEK SMALL LETTER NU:
    ......
    ......
    @...@.
    @...@.
    .@.@..
    .@.@..
    ..@...
    ......
    ......
    ......
    ......

u+03be:
GREEK SMALL LETTER XI:
    @@@@@.
    ..@...
    .@....
    ..@@..
    .@....
    @.....
    .@@@..
    ....@.
    ..@@..
    ......
    ......

u+03bf:
GREEK SMALL LETTER OMICRON:
    ......
    ......
    .@@@..
    @...@.
    @...@.
    @...@.
    .@@@..
    ......
    ......
    ......
    ......

u+03c0:
GREEK SMALL LETTER PI:
    ......
    ......
    @@@@@.
    .@.@..
    .@.@..
    .@.@..
    .@.@..
    ......
    ......
    ......
    ......

u+03c1:
GREEK SMALL LETTER RHO:
    .@@@..
    @...@.
    @...@.
    @...@.
    @@@@..
    @.....
    @.....
    ......
    ......
    ......
    ......

u+03c2:
GREEK SMALL LETTER FINAL SIGMA:
    .@@@..
    @...@.
    @.....
    @.....
    .@@@..
    ....@.
    ..@@..
    ......
    ......
    ......
    ......

u+03c3:
GREEK SMALL LETTER SIGMA:
    ......
    ......
    .@@@@.
    @..@..
    @...@.
    @...@.
    .@@@..
    ......
    ......
    ......
    ......

u+03c4:
GREEK SMALL LETTER TAU:
    ......
    ......
    @@@@@.
    ..@...
    ..@...
    ..@...
    ...@..
    ......
    ......
    ......
    ......

u+03c5:
GREEK SMALL LETTER UPSILON:
    ......
    ......
    @...@.
    @...@.
    @...@.
    @...@.
    .@@@..
    ......
    ......
    ......
    ......

u+03c6:
GREEK SMALL LETTER PHI:
    .@.@..
    @.@.@.
    @.@.@.
    @.@.@.
    .@@@..
    ..@...
    ..@...
    ......
    ......
    ......
    ......

u+03c7:
GREEK SMALL LETTER CHI:
    @...@.
    .@.@..
    .@.@..
    ..@...
    .@.@..
    .@.@..
    @...@.
    ......
    ......
    ......
    ......

u+03c8:
GREEK SMALL LETTER PSI:
    @.@.@.
    @.@.@.
    @.@.@.
    @.@.@.
    .@@@..
    ..@...
    ..@...
    ......
    ......
    ......
    ......

u+03c9:
GREEK SMALL LETTER OMEGA:
    ......
    ......
    @...@.
    @.@.@.
    @.@.@.
    @.@.@.
    .@.@..
    ......
    ......
    ......
    ......

u+03ca:
GREEK SMALL LETTER IOTA WITH DIALYTIKA:
    ......
    ......
    @...@.
    ......
    ..@...
    ..@...
    ..@...
    ..@.@.
    ...@..
    ......
    ......

u+03cb:
GREEK SMALL LETTER UPSILON WITH DIALYTIKA:
    ......
    ......
    @...@.
    ......
    @...@.
    @...@.
    @...@.
    @...@.
    .@@@..
    ......
    ......

u+03cc:
GREEK SMALL LETTER OMICRON WITH TONOS:
    ......
    ......
    ...@..
    ..@...
    ......
    .@@@..
    @...@.
    @...@.
    @...@.
    .@@@..
    ......

u+03cd:
GREEK SMALL LETTER UPSILON WITH TONOS:
    ......
    ......
    ...@..
    ..@...
    ......
    @...@.
    @...@.
    @...@.
    @...@.
    .@@@..
    ......

u+03ce:
GREEK SMALL LETTER OMEGA WITH TONOS:
    ......
    ......
    ...@..
    ..@...
    ......
    @...@.
    @.@.@.
    @.@.@.
    @.@.@.
    .@.@..
    ......

u+03d0:
GREEK BETA SYMBOL:
    ......
    ......
    .@@...
    @..@..
    @.@...
    @@@@..
    @...@.
    @...@.
    .@@@..
    ......
    ......

u+03d1:
GREEK THETA SYMBOL:
    ......
    ......
    .@@...
    @..@..
    .@@@@.
    ...@..
    @..@..
    @..@..
    .@@...
    ......
    ......

u+03d2:
GREEK UPSILON WITH HOOK SYMBOL:
    ......
    ......
    .@.@..
    @.@.@.
    ..@...
    ..@...
    ..@...
    ..@...
    ..@...
    ......
    ......

u+03d3:
GREEK UPSILON WITH ACUTE AND HOOK SYMBOL:
    ......
    ......
    .@.@..
    @.@.@.
    ..@...
    @.@...
    @.@...
    ..@...
    ..@...
    ......
    ......

u+03d4:
GREEK UPSILON WITH DIAERESIS AND HOOK SYMBOL:
    ......
    ......
    @...@.
    ......
    .@.@..
    @.@.@.
    ..@...
    ..@...
    ..@...
    ..@...
    ......

u+03d5:
GREEK PHI SYMBOL:
    ..@...
    ..@...
    .@@@..
    @.@.@.
    @.@.@.
    @.@.@.
    .@@@..
    ..@...
    ..@...
    ......
    ......

u+03d6:
GREEK PI SYMBOL:
    ......
    ......
    @@@@@.
    @...@.
    @.@.@.
    @.@.@.
    .@.@..
    ......
    ......
    ......
    ......

u+03d7:
GREEK KAI SYMBOL:
    ...@..
    ..@...
    @...@.
    .@.@..
    .@@...
    .@@...
    @..@@.
    ....@.
    .@@@..
    ......
    ......

u+03da:
GREEK LETTER STIGMA:
    ......
    ..@@..
    .@..@.
    @.....
    @.....
    @.....
    .@@@..
    ....@.
    ...@..
    ......
    ......

u+03db:
GREEK SMALL LETTER STIGMA:
    ....@.
    .@@@..
    @.....
    @.....
    @.....
    .@@@..
    ....@.
    ..@@..
    ......
    ......
    ......

u+03dc:
GREEK LETTER DIGAMMA:
    ......
    ......
    @@@@@.
    @.....
    @.....
    @@@@..
    @.....
    @.....
    @.....
    ......
    ......

u+03dd:
GREEK SMALL LETTER DIGAMMA:
    .@@@@.
    .@....
    .@....
    .@@@..
    .@....
    .@....
    .@....
    ......
    ......
    ......
    ......

u+03de:
GREEK LETTER KOPPA:
    ......
    ......
    @.....
    @...@.
    @..@@.
    @.@.@.
    @@..@.
    @...@.
    ....@.
    ......
    ......

u+03df:
GREEK SMALL LETTER KOPPA:
    ..@...
    .@....
    .@....
    @.....
    @@@@@.
    ....@.
    ...@..
    ...@..
    ..@...
    ......
    ......

u+03e0:
GREEK LETTER SAMPI:
    ......
    ......
    ..@...
    .@.@..
    .@.@..
    .@.@..
    @..@@.
    @.@.@.
    @.@.@.
    ......
    ......

u+03e1:
GREEK SMALL LETTER SAMPI:
    @@....
    ..@...
    ...@..
    ..@@..
    .@.@@.
    ..@.@.
    ....@.
    ....@.
    ....@.
    ......
    ......

u+03f0:
GREEK KAPPA SYMBOL:
    ......
    ......
    @...@.
    .@.@..
    .@@...
    .@@...
    @..@@.
    ......
    ......
    ......
    ......

u+03f1:
GREEK RHO SYMBOL:
    .@@@..
    @...@.
    @...@.
    @...@.
    @@@@..
    @.....
    .@@@..
    ......
    ......
    ......
    ......

u+03f2:
GREEK LUNATE SIGMA SYMBOL:
    ......
    ......
    .@@@..
    @...@.
    @.....
    @...@.
    .@@@..
    ......
    ......
    ......
    ......

u+03f3:
GREEK LETTER YOT:
    ....@.
    ......
    ...@@.
    ....@.
    ....@.
    ....@.
    .@..@.
    .@..@.
    ..@@..
    ......
    ......

u+03f4:
GREEK CAPITAL THETA SYMBOL:
    ......
    ......
    .@@@..
    @...@.
    @...@.
    @@@@@.
    @...@.
    @...@.
    .@@@..
    ......
    ......

u+03f5:
GREEK LUNATE EPSILON SYMBOL:
    ......
    ......
    ..@@@.
    .@....
    .@@@..
    .@....
    ..@@@.
    ......
    ......
    ......
    ......

u+0401:
CYRILLIC CAPITAL LETTER IO:
    ......
    ......
    .@.@..
    ......
    @@@@@.
    @.....
    @@@@..
    @.....
    @.....
    @@@@@.
    ......

u+0402:
CYRILLIC CAPITAL LETTER DJE:
    @@@...
    .@....
    .@....
    .@@@..
    .@..@.
    .@..@.
    .@..@.
    ....@.
    ..@@..
    ......
    ......

u+0403:
CYRILLIC CAPITAL LETTER GJE:
    ......
    ......
    ...@..
    ..@...
    @@@@@.
    @.....
    @.....
    @.....
    @.....
    @.....
    ......

u+0404:
CYRILLIC CAPITAL LETTER UKRAINIAN IE:
    ......
    ......
    .@@@..
    @...@.
    @.....
    @@@...
    @.....
    @...@.
    .@@@..
    ......
    ......

u+0405:
CYRILLIC CAPITAL LETTER DZE:
    ......
    ......
    .@@@..
    @...@.
    @.....
    .@@@..
    ....@.
    @...@.
    .@@@..
    ......
    ......

u+0406:
CYRILLIC CAPITAL LETTER BYELORUSSIAN-UKRAINIAN I:
    ......
    ......
    .@@@..
    ..@...
    ..@...
    ..@...
    ..@...
    ..@...
    .@@@..
    ......
    ......

u+0407:
CYRILLIC CAPITAL LETTER YI:
    ......
    ......
    .@.@..
    ......
    .@@@..
    ..@...
    ..@...
    ..@...
    ..@...
    .@@@..
    ......

u+0408:
CYRILLIC CAPITAL LETTER JE:
    ......
    ......
    ..@@@.
    ....@.
    ....@.
    ....@.
    ....@.
    @...@.
    .@@@..
    ......
    ......

u+0409:
CYRILLIC CAPITAL LETTER LJE:
    ......
    ......
    ..@@..
    .@.@..
    .@.@..
    @..@@.
    @..@.@
    @..@.@
    @..@@.
    ......
    ......

u+040a:
CYRILLIC CAPITAL LETTER NJE:
    ......
    ......
    @.@...
    @.@...
    @.@...
    @@@@..
    @.@.@.
    @.@.@.
    @.@@..
    ......
    ......

u+040b:
CYRILLIC CAPITAL LETTER TSHE:
    ......
    ......
    @@@...
    .@....
    .@....
    .@@@..
    .@..@.
    .@..@.
    .@..@.
    ......
    ......

u+040c:
CYRILLIC CAPITAL LETTER KJE:
    ......
    ......
    ...@..
    ..@...
    @...@.
    @..@..
    @@@...
    @..@..
    @...@.
    @...@.
    ......

u+040e:
CYRILLIC CAPITAL LETTER SHORT U:
    ......
    ......
    .@.@..
    ..@...
    @...@.
    @...@.
    .@.@..
    ..@...
    .@....
    @.....
    ......

u+040f:
CYRILLIC CAPITAL LETTER DZHE:
    ......
    @...@.
    @...@.
    @...@.
    @...@.
    @...@.
    @...@.
    @@@@@.
    ..@...
    ......
    ......

u+0410:
CYRILLIC CAPITAL LETTER A:
    ......
    ......
    ..@...
    .@.@..
    @...@.
    @...@.
    @@@@@.
    @...@.
    @...@.
    ......
    ......

u+0411:
CYRILLIC CAPITAL LETTER BE:
    ......
    ......
    @@@@..
    @.....
    @.....
    @@@@..
    @...@.
    @...@.
    @@@@..
    ......
    ......

u+0412:
CYRILLIC CAPITAL LETTER VE:
    ......
    ......
    @@@@..
    @...@.
    @...@.
    @@@@..
    @...@.
    @...@.
    @@@@..
    ......
    ......

u+0413:
CYRILLIC CAPITAL LETTER GHE:
    ......
    ......
    @@@@@.
    @.....
    @.....
    @.....
    @.....
    @.....
    @.....
    ......
    ......

u+0414:
CYRILLIC CAPITAL LETTER DE:
    ......
    ...@@.
    ..@.@.
    ..@.@.
    .@..@.
    .@..@.
    .@..@.
    @@@@@.
    @...@.
    ......
    ......

u+0415:
CYRILLIC CAPITAL LETTER IE:
    ......
    ......
    @@@@@.
    @.....
    @.....
    @@@@..
    @.....
    @.....
    @@@@@.
    ......
    ......

u+0416:
CYRILLIC CAPITAL LETTER ZHE:
    ......
    ......
    @.@.@.
    @.@.@.
    @.@.@.
    .@@@..
    @.@.@.
    @.@.@.
    @.@.@.
    ......
    ......

u+0417:
CYRILLIC CAPITAL LETTER ZE:
    ......
    ......
    .@@@..
    @...@.
    ....@.
    ..@@..
    ....@.
    @...@.
    .@@@..
    ......
    ......

u+0418:
CYRILLIC CAPITAL LETTER I:
    ......
    ......
    @...@.
    @...@.
    @..@@.
    @.@.@.
    @@..@.
    @...@.
    @...@.
    ......
    ......

u+0419:
CYRILLIC CAPITAL LETTER SHORT I:
    ......
    ......
    .@.@..
    ..@...
    @...@.
    @..@@.
    @.@.@.
    @@..@.
    @...@.
    @...@.
    ......

u+041a:
CYRILLIC CAPITAL LETTER KA:
    ......
    ......
    @...@.
    @..@..
    @.@...
    @@....
    @.@...
    @..@..
    @...@.
    ......
    ......

u+041b:
CYRILLIC CAPITAL LETTER EL:
    ......
    ......
    ..@@@.
    .@..@.
    .@..@.
    .@..@.
    .@..@.
    .@..@.
    @...@.
    ......
    ......

u+041c:
CYRILLIC CAPITAL LETTER EM:
    ......
    ......
    @...@.
    @...@.
    @@.@@.
    @.@.@.
    @...@.
    @...@.
    @...@.
    ......
    ......

u+041d:
CYRILLIC CAPITAL LETTER EN:
    ......
    ......
    @...@.
    @...@.
    @...@.
    @@@@@.
    @...@.
    @...@.
    @...@.
    ......
    ......

u+041e:
CYRILLIC CAPITAL LETTER O:
    ......
    ......
    .@@@..
    @...@.
    @...@.
    @...@.
    @...@.
    @...@.
    .@@@..
    ......
    ......

u+041f:
CYRILLIC CAPITAL LETTER PE:
    ......
    ......
    @@@@@.
    @...@.
    @...@.
    @...@.
    @...@.
    @...@.
    @...@.
    ......
    ......

u+0420:
CYRILLIC CAPITAL LETTER ER:
    ......
    ......
    @@@@..
    @...@.
    @...@.
    @@@@..
    @.....
    @.....
    @.....
    ......
    ......

u+0421:
CYRILLIC CAPITAL LETTER ES:
    ......
    ......
    .@@@..
    @...@.
    @.....
    @.....
    @.....
    @...@.
    .@@@..
    ......
    ......

u+0422:
CYRILLIC CAPITAL LETTER TE:
    ......
    ......
    @@@@@.
    ..@...
    ..@...
    ..@...
    ..@...
    ..@...
    ..@...
    ......
    ......

u+0423:
CYRILLIC CAPITAL LETTER U:
    ......
    ......
    @...@.
    @...@.
    @...@.
    .@.@..
    ..@...
    .@....
    @.....
    ......
    ......

u+0424:
CYRILLIC CAPITAL LETTER EF:
    ......
    ......
    ..@...
    .@@@..
    @.@.@.
    @.@.@.
    @.@.@.
    .@@@..
    ..@...
    ......
    ......

u+0425:
CYRILLIC CAPITAL LETTER HA:
    ......
    ......
    @...@.
    @...@.
    .@.@..
    ..@...
    .@.@..
    @...@.
    @...@.
    ......
    ......

u+0426:
CYRILLIC CAPITAL LETTER TSE:
    @..@..
    @..@..
    @..@..
    @..@..
    @..@..
    @..@..
    @@@@@.
    ....@.
    ....@.
    ......
    ......

u+0427:
CYRILLIC CAPITAL LETTER CHE:
    ......
    ......
    @...@.
    @...@.
    @...@.
    .@@@@.
    ....@.
    ....@.
    ....@.
    ......
    ......

u+0428:
CYRILLIC CAPITAL LETTER SHA:
    ......
    ......
    @.@.@.
    @.@.@.
    @.@.@.
    @.@.@.
    @.@.@.
    @.@.@.
    @@@@@.
    ......
    ......

u+0429:
CYRILLIC CAPITAL LETTER SHCHA:
    @.@.@.
    @.@.@.
    @.@.@.
    @.@.@.
    @.@.@.
    @.@.@.
    @@@@@.
    ....@.
    ....@.
    ......
    ......

u+042a:
CYRILLIC CAPITAL LETTER HARD SIGN:
    ......
    ......
    @@....
    .@....
    .@....
    .@@@..
    .@..@.
    .@..@.
    .@@@..
    ......
    ......

u+042b:
CYRILLIC CAPITAL LETTER YERU:
    ......
    ......
    @...@.
    @...@.
    @...@.
    @@@.@.
    @..@@.
    @..@@.
    @@@.@.
    ......
    ......

u+042c:
CYRILLIC CAPITAL LETTER SOFT SIGN:
    ......
    ......
    .@....
    .@....
    .@....
    .@@@..
    .@..@.
    .@..@.
    .@@@..
    ......
    ......

u+042d:
CYRILLIC CAPITAL LETTER E:
    ......
    ......
    .@@@..
    @...@.
    ....@.
    ..@@@.
    ....@.
    @...@.
    .@@@..
    ......
    ......

u+042e:
CYRILLIC CAPITAL LETTER YU:
    ......
    ......
    @..@..
    @.@.@.
    @.@.@.
    @@@.@.
    @.@.@.
    @.@.@.
    @..@..
    ......
    ......

u+042f:
CYRILLIC CAPITAL LETTER YA:
    ......
    ......
    .@@@@.
    @...@.
    @...@.
    .@@@@.
    ..@.@.
    .@..@.
    @...@.
    ......
    ......

u+0430:
CYRILLIC SMALL LETTER A:
    ......
    ......
    .@@@..
    ....@.
    .@@@@.
    @...@.
    .@@@@.
    ......
    ......
    ......
    ......

u+0431:
CYRILLIC SMALL LETTER BE:
    ......
    ......
    .@@@@.
    @.....
    .@@@..
    @...@.
    @...@.
    @...@.
    .@@@..
    ......
    ......

u+0432:
CYRILLIC SMALL LETTER VE:
    ......
    ......
    @@@@..
    @...@.
    @@@@..
    @...@.
    @@@@..
    ......
    ......
    ......
    ......

u+0433:
CYRILLIC SMALL LETTER GHE:
    ......
    ......
    .@@@@.
    .@....
    .@....
    .@....
    .@....
    ......
    ......
    ......
    ......

u+0434:
CYRILLIC SMALL LETTER DE:
    ......
    ..@@..
    .@.@..
    .@.@..
    .@.@..
    @@@@@.
    @...@.
    ......
    ......
    ......
    ......

u+0435:
CYRILLIC SMALL LETTER IE:
    ......
    ......
    .@@@..
    @...@.
    @@@@@.
    @.....
    .@@@..
    ......
    ......
    ......
    ......

u+0436:
CYRILLIC SMALL LETTER ZHE:
    ......
    ......
    @.@.@.
    @.@.@.
    .@@@..
    @.@.@.
    @.@.@.
    ......
    ......
    ......
    ......

u+0437:
CYRILLIC SMALL LETTER ZE:
    ......
    ......
    .@@@..
    @...@.
    ..@@..
    @...@.
    .@@@..
    ......
    ......
    ......
    ......

u+0438:
CYRILLIC SMALL LETTER I:
    ......
    ......
    @...@.
    @..@@.
    @.@.@.
    @@..@.
    @...@.
    ......
    ......
    ......
    ......

u+0439:
CYRILLIC SMALL LETTER SHORT I:
    ......
    ......
    .@.@..
    ..@...
    @...@.
    @..@@.
    @.@.@.
    @@..@.
    @...@.
    ......
    ......

u+043a:
CYRILLIC SMALL LETTER KA:
    ......
    ......
    @...@.
    @..@..
    @@@...
    @..@..
    @...@.
    ......
    ......
    ......
    ......

u+043b:
CYRILLIC SMALL LETTER EL:
    ......
    ......
    ..@@@.
    .@..@.
    .@..@.
    .@..@.
    @...@.
    ......
    ......
    ......
    ......

u+043c:
CYRILLIC SMALL LETTER EM:
    ......
    ......
    @...@.
    @@.@@.
    @.@.@.
    @...@.
    @...@.
    ......
    ......
    ......
    ......

u+043d:
CYRILLIC SMALL LETTER EN:
    ......
    ......
    @...@.
    @...@.
    @@@@@.
    @...@.
    @...@.
    ......
    ......
    ......
    ......

u+043e:
CYRILLIC SMALL LETTER O:
    ......
    ......
    .@@@..
    @...@.
    @...@.
    @...@.
    .@@@..
    ......
    ......
    ......
    ......

u+043f:
CYRILLIC SMALL LETTER PE:
    ......
    ......
    @@@@@.
    @...@.
    @...@.
    @...@.
    @...@.
    ......
    ......
    ......
    ......

u+0440:
CYRILLIC SMALL LETTER ER:
    @.@@..
    @@..@.
    @...@.
    @@..@.
    @.@@..
    @.....
    @.....
    ......
    ......
    ......
    ......

u+0441:
CYRILLIC SMALL LETTER ES:
    ......
    ......
    .@@@..
    @...@.
    @.....
    @...@.
    .@@@..
    ......
    ......
    ......
    ......

u+0442:
CYRILLIC SMALL LETTER TE:
    ......
    ......
    @@@@@.
    ..@...
    ..@...
    ..@...
    ..@...
    ......
    ......
    ......
    ......

u+0443:
CYRILLIC SMALL LETTER U:
    @...@.
    @...@.
    @...@.
    .@@@@.
    ....@.
    @...@.
    .@@@..
    ......
    ......
    ......
    ......

u+0444:
CYRILLIC SMALL LETTER EF:
    ..@...
    ..@...
    .@@@..
    @.@.@.
    @.@.@.
    @.@.@.
    .@@@..
    ..@...
    ..@...
    ......
    ......

u+0445:
CYRILLIC SMALL LETTER HA:
    ......
    ......
    @...@.
    .@.@..
    ..@...
    .@.@..
    @...@.
    ......
    ......
    ......
    ......

u+0446:
CYRILLIC SMALL LETTER TSE:
    @..@..
    @..@..
    @..@..
    @..@..
    @@@@@.
    ....@.
    ....@.
    ......
    ......
    ......
    ......

u+0447:
CYRILLIC SMALL LETTER CHE:
    ......
    ......
    @...@.
    @...@.
    .@@@@.
    ....@.
    ....@.
    ......
    ......
    ......
    ......

u+0448:
CYRILLIC SMALL LETTER SHA:
    ......
    ......
    @.@.@.
    @.@.@.
    @.@.@.
    @.@.@.
    @@@@@.
    ......
    ......
    ......
    ......

u+0449:
CYRILLIC SMALL LETTER SHCHA:
    @.@.@.
    @.@.@.
    @.@.@.
    @.@.@.
    @@@@@.
    ....@.
    ....@.
    ......
    ......
    ......
    ......

u+044a:
CYRILLIC SMALL LETTER HARD SIGN:
    ......
    ......
    @@....
    .@....
    .@@@..
    .@..@.
    .@@@..
    ......
    ......
    ......
    ......

u+044b:
CYRILLIC SMALL LETTER YERU:
    ......
    ......
    @...@.
    @...@.
    @@@.@.
    @..@@.
    @@@.@.
    ......
    ......
    ......
    ......

u+044c:
CYRILLIC SMALL LETTER SOFT SIGN:
    ......
    ......
    .@....
    .@....
    .@@@..
    .@..@.
    .@@@..
    ......
    ......
    ......
    ......

u+044d:
CYRILLIC SMALL LETTER E:
    ......
    ......
    .@@@..
    @...@.
    ..@@@.
    @...@.
    .@@@..
    ......
    ......
    ......
    ......

u+044e:
CYRILLIC SMALL LETTER YU:
    ......
    ......
    @..@..
    @.@.@.
    @@@.@.
    @.@.@.
    @..@..
    ......
    ......
    ......
    ......

u+044f:
CYRILLIC SMALL LETTER YA:
    ......
    ......
    .@@@@.
    @...@.
    .@@@@.
    @...@.
    @...@.
    ......
    ......
    ......
    ......

u+0451:
CYRILLIC SMALL LETTER IO:
    ......
    ......
    .@.@..
    ......
    .@@@..
    @...@.
    @@@@@.
    @.....
    .@@@..
    ......
    ......

u+0452:
CYRILLIC SMALL LETTER DJE:
    .@....
    @@@@..
    .@....
    .@@@..
    .@..@.
    .@..@.
    .@..@.
    ....@.
    ..@@..
    ......
    ......

u+0453:
CYRILLIC SMALL LETTER GJE:
    ......
    ......
    ...@..
    ..@...
    ......
    .@@@@.
    .@....
    .@....
    .@....
    .@....
    ......

u+0454:
CYRILLIC SMALL LETTER UKRAINIAN IE:
    ......
    ......
    ..@@..
    .@..@.
    .@@...
    .@..@.
    ..@@..
    ......
    ......
    ......
    ......

u+0455:
CYRILLIC SMALL LETTER DZE:
    ......
    ......
    .@@@..
    @.....
    .@@@..
    ....@.
    @@@@..
    ......
    ......
    ......
    ......

u+0456:
CYRILLIC SMALL LETTER BYELORUSSIAN-UKRAINIAN I:
    ......
    ......
    ..@...
    ......
    .@@...
    ..@...
    ..@...
    ..@...
    .@@@..
    ......
    ......

u+0457:
CYRILLIC SMALL LETTER YI:
    ......
    ......
    .@.@..
    ......
    .@@...
    ..@...
    ..@...
    ..@...
    .@@@..
    ......
    ......

u+0458:
CYRILLIC SMALL LETTER JE:
    ....@.
    ......
    ...@@.
    ....@.
    ....@.
    ....@.
    .@..@.
    .@..@.
    ..@@..
    ......
    ......

u+0459:
CYRILLIC SMALL LETTER LJE:
    ......
    ......
    ..@@..
    .@.@..
    @..@@.
    @..@.@
    @..@@.
    ......
    ......
    ......
    ......

u+045a:
CYRILLIC SMALL LETTER NJE:
    ......
    ......
    @.@...
    @.@...
    @@@@..
    @.@.@.
    @.@@..
    ......
    ......
    ......
    ......

u+045b:
CYRILLIC SMALL LETTER TSHE:
    ......
    ......
    .@....
    @@@@..
    .@....
    .@@@..
    .@..@.
    .@..@.
    .@..@.
    ......
    ......

u+045c:
CYRILLIC SMALL LETTER KJE:
    ......
    ......
    ...@..
    ..@...
    @...@.
    @..@..
    @@@...
    @..@..
    @...@.
    ......
    ......

u+045e:
CYRILLIC SMALL LETTER SHORT U:
    .@.@..
    ..@...
    @...@.
    @...@.
    @..@@.
    .@@.@.
    ....@.
    @...@.
    .@@@..
    ......
    ......

u+045f:
CYRILLIC SMALL LETTER DZHE:
    ......
    @...@.
    @...@.
    @...@.
    @...@.
    @@@@@.
    ..@...
    ......
    ......
    ......
    ......

u+0462:
CYRILLIC CAPITAL LETTER YAT:
    ......
    ......
    .@....
    @@@@..
    .@....
    .@@@..
    .@..@.
    .@..@.
    .@@@..
    ......
    ......

u+0463:
CYRILLIC SMALL LETTER YAT:
    ......
    ......
    .@....
    .@....
    @@@@..
    .@....
    .@@@..
    .@..@.
    .@@@..
    ......
    ......

u+0470:
CYRILLIC CAPITAL LETTER PSI:
    ......
    ......
    @.@.@.
    @.@.@.
    @.@.@.
    .@@@..
    ..@...
    ..@...
    ..@...
    ......
    ......

u+0471:
CYRILLIC SMALL LETTER PSI:
    ......
    ......
    @.@.@.
    @.@.@.
    .@@@..
    ..@...
    ..@...
    ......
    ......
    ......
    ......

u+0472:
CYRILLIC CAPITAL LETTER FITA:
    ......
    ......
    .@@@..
    @...@.
    @...@.
    @@@@@.
    @...@.
    @...@.
    .@@@..
    ......
    ......

u+0473:
CYRILLIC SMALL LETTER FITA:
    ......
    ......
    .@@@..
    @...@.
    @@@@@.
    @...@.
    .@@@..
    ......
    ......
    ......
    ......

u+0474:
CYRILLIC CAPITAL LETTER IZHITSA:
    ......
    ......
    @...@.
    @..@..
    @..@..
    .@.@..
    .@.@..
    .@.@..
    ..@...
    ......
    ......

u+0475:
CYRILLIC SMALL LETTER IZHITSA:
    ......
    ......
    @...@.
    @..@..
    .@.@..
    .@.@..
    ..@...
    ......
    ......
    ......
    ......

u+0476:
CYRILLIC CAPITAL LETTER IZHITSA WITH DOUBLE GRAVE ACCENT:
    ......
    ......
    .@.@..
    ..@.@.
    @.....
    @...@.
    .@.@..
    .@.@..
    .@.@..
    ..@...
    ......

u+0477:
CYRILLIC SMALL LETTER IZHITSA WITH DOUBLE GRAVE ACCENT:
    ......
    ......
    .@.@..
    ..@.@.
    @.....
    @...@.
    .@.@..
    .@.@..
    ..@...
    ......
    ......

u+0490:
CYRILLIC CAPITAL LETTER GHE WITH UPTURN:
    ......
    ......
    ....@.
    @@@@@.
    @.....
    @.....
    @.....
    @.....
    @.....
    @.....
    ......

u+0491:
CYRILLIC SMALL LETTER GHE WITH UPTURN:
    ......
    ......
    ....@.
    .@@@@.
    .@....
    .@....
    .@....
    .@....
    ......
    ......
    ......

u+0492:
CYRILLIC CAPITAL LETTER GHE WITH STROKE:
    ......
    ......
    .@@@@.
    .@....
    .@....
    @@@@..
    .@....
    .@....
    .@....
    ......
    ......

u+0493:
CYRILLIC SMALL LETTER GHE WITH STROKE:
    ......
    ......
    .@@@@.
    .@....
    @@@@..
    .@....
    .@....
    ......
    ......
    ......
    ......

u+0496:
CYRILLIC CAPITAL LETTER ZHE WITH DESCENDER:
    @.@.@.
    @.@.@.
    @.@.@.
    .@@@..
    @.@.@.
    @.@.@.
    @.@.@.
    .....@
    .....@
    ......
    ......

u+0497:
CYRILLIC SMALL LETTER ZHE WITH DESCENDER:
    @.@.@.
    @.@.@.
    .@@@..
    @.@.@.
    @.@.@.
    .....@
    .....@
    ......
    ......
    ......
    ......

u+049a:
CYRILLIC CAPITAL LETTER KA WITH DESCENDER:
    @...@.
    @..@..
    @.@...
    @@....
    @.@...
    @..@..
    @...@.
    .....@
    .....@
    ......
    ......

u+049b:
CYRILLIC SMALL LETTER KA WITH DESCENDER:
    @...@.
    @..@..
    @@@...
    @..@..
    @...@.
    .....@
    .....@
    ......
    ......
    ......
    ......

u+04ae:
CYRILLIC CAPITAL LETTER STRAIGHT U:
    ......
    ......
    @...@.
    @...@.
    .@.@..
    ..@...
    ..@...
    ..@...
    ..@...
    ......
    ......

u+04af:
CYRILLIC SMALL LETTER STRAIGHT U:
    @...@.
    @...@.
    .@.@..
    ..@...
    ..@...
    ..@...
    ..@...
    ......
    ......
    ......
    ......

u+04b0:
CYRILLIC CAPITAL LETTER STRAIGHT U WITH STROKE:
    ......
    ......
    @...@.
    @...@.
    .@.@..
    @@@@@.
    ..@...
    ..@...
    ..@...
    ......
    ......

u+04b1:
CYRILLIC SMALL LETTER STRAIGHT U WITH STROKE:
    @...@.
    @...@.
    .@.@..
    @@@@@.
    ..@...
    ..@...
    ..@...
    ......
    ......
    ......
    ......

u+04b2:
CYRILLIC CAPITAL LETTER HA WITH DESCENDER:
    @...@.
    @...@.
    .@.@..
    ..@...
    .@.@..
    @...@.
    @...@.
    .....@
    .....@
    ......
    ......

u+04b3:
CYRILLIC SMALL LETTER HA WITH DESCENDER:
    @...@.
    .@.@..
    ..@...
    .@.@..
    @...@.
    .....@
    .....@
    ......
    ......
    ......
    ......

u+04ba:
CYRILLIC CAPITAL LETTER SHHA:
    ......
    ......
    @.....
    @.....
    @@@@..
    @...@.
    @...@.
    @...@.
    @...@.
    ......
    ......

u+04bb:
CYRILLIC SMALL LETTER SHHA:
    ......
    ......
    .@....
    .@....
    .@.@..
    .@@.@.
    .@..@.
    .@..@.
    .@..@.
    ......
    ......

u+04d8:
CYRILLIC CAPITAL LETTER SCHWA:
    ......
    ......
    .@@@..
    @...@.
    ....@.
    @@@@@.
    @...@.
    @...@.
    .@@@..
    ......
    ......

u+04d9:
CYRILLIC SMALL LETTER SCHWA:
    ......
    ......
    .@@@..
    ....@.
    @@@@@.
    @...@.
    .@@@..
    ......
    ......
    ......
    ......

u+04e2:
CYRILLIC CAPITAL LETTER I WITH MACRON:
    ......
    ......
    .@@@..
    ......
    .@@@..
    ..@...
    ..@...
    ..@...
    ..@...
    .@@@..
    ......

u+04e3:
CYRILLIC SMALL LETTER I WITH MACRON:
    ......
    ......
    .@@@..
    ......
    .@@...
    ..@...
    ..@...
    ..@...
    .@@@..
    ......
    ......

u+04e8:
CYRILLIC CAPITAL LETTER BARRED O:
    ......
    ......
    .@@@..
    @...@.
    @...@.
    @@@@@.
    @...@.
    @...@.
    .@@@..
    ......
    ......

u+04e9:
CYRILLIC SMALL LETTER BARRED O:
    ......
    ......
    .@@@..
    @...@.
    @@@@@.
    @...@.
    .@@@..
    ......
    ......
    ......
    ......

u+04ee:
CYRILLIC CAPITAL LETTER U WITH MACRON:
    ......
    ......
    .@@@..
    ......
    @...@.
    @...@.
    @...@.
    @...@.
    @...@.
    .@@@..
    ......

u+04ef:
CYRILLIC SMALL LETTER U WITH MACRON:
    ......
    ......
    .@@@..
    ......
    @...@.
    @...@.
    @...@.
    @..@@.
    .@@.@.
    ......
    ......

u+05d0:
HEBREW LETTER ALEF:
    ......
    ......
    @..@..
    .@..@.
    @.@@..
    @..@..
    @@..@.
    ......
    ......
    ......
    ......

u+05d1:
HEBREW LETTER BET:
    ......
    ......
    @@@@..
    ....@.
    ....@.
    ....@.
    @@@@@.
    ......
    ......
    ......
    ......

u+05d2:
HEBREW LETTER GIMEL:
    ......
    ......
    ..@@..
    ...@..
    ...@..
    ...@..
    .@@.@.
    ......
    ......
    ......
    ......

u+05d3:
HEBREW LETTER DALET:
    ......
    ......
    @@@@@.
    ...@..
    ...@..
    ...@..
    ...@..
    ......
    ......
    ......
    ......

u+05d4:
HEBREW LETTER HE:
    ......
    ......
    @@@@@.
    ...@..
    @..@..
    @..@..
    @..@..
    ......
    ......
    ......
    ......

u+05d5:
HEBREW LETTER VAV:
    ......
    ......
    ..@@..
    ...@..
    ...@..
    ...@..
    ...@..
    ......
    ......
    ......
    ......

u+05d6:
HEBREW LETTER ZAYIN:
    ......
    ......
    .@....
    ..@@..
    ..@...
    ..@...
    ..@...
    ..@...
    ......
    ......
    ......

u+05d7:
HEBREW LETTER HET:
    ......
    ......
    @@@@@.
    @...@.
    @...@.
    @...@.
    @...@.
    ......
    ......
    ......
    ......

u+05d8:
HEBREW LETTER TET:
    ......
    ......
    @.@@@.
    @.@.@.
    @...@.
    @...@.
    @@@@@.
    ......
    ......
    ......
    ......

u+05d9:
HEBREW LETTER YOD:
    ......
    ......
    ......
    ......
    ......
    ..@@..
    ...@..
    ......
    ......
    ......
    ......

u+05da:
HEBREW LETTER FINAL KAF:
    .@@@..
    ...@..
    ...@..
    ...@..
    ...@..
    ...@..
    ...@..
    ......
    ......
    ......
    ......

u+05db:
HEBREW LETTER KAF:
    ......
    ......
    @@@@..
    ....@.
    ....@.
    ....@.
    @@@@..
    ......
    ......
    ......
    ......

u+05dc:
HEBREW LETTER LAMED:
    ......
    ......
    @.....
    @.....
    @@@@..
    ....@.
    ....@.
    ...@..
    ..@...
    ......
    ......

u+05dd:
HEBREW LETTER FINAL MEM:
    ......
    ......
    @@@@..
    @...@.
    @...@.
    @...@.
    @@@@@.
    ......
    ......
    ......
    ......

u+05de:
HEBREW LETTER MEM:
    ......
    ......
    @.@@..
    .@..@.
    @...@.
    @...@.
    @.@@@.
    ......
    ......
    ......
    ......

u+05df:
HEBREW LETTER FINAL NUN:
    ..@@..
    ...@..
    ...@..
    ...@..
    ...@..
    ...@..
    ...@..
    ......
    ......
    ......
    ......

u+05e0:
HEBREW LETTER NUN:
    ......
    ......
    ..@@..
    ...@..
    ...@..
    ...@..
    ..@@..
    ......
    ......
    ......
    ......

u+05e1:
HEBREW LETTER SAMEKH:
    ......
    ......
    @@@@@.
    @...@.
    @...@.
    @...@.
    .@@@..
    ......
    ......
    ......
    ......

u+05e2:
HEBREW LETTER AYIN:
    ......
    ......
    .@..@.
    .@..@.
    .@..@.
    .@..@.
    @@@@..
    ......
    ......
    ......
    ......

u+05e3:
HEBREW LETTER FINAL PE:
    .@@@@.
    .@..@.
    .@@.@.
    ....@.
    ....@.
    ....@.
    ....@.
    ......
    ......
    ......
    ......

u+05e4:
HEBREW LETTER PE:
    ......
    ......
    @@@...
    @..@..
    @@..@.
    ....@.
    @@@@@.
    ......
    ......
    ......
    ......

u+05e5:
HEBREW LETTER FINAL TSADI:
    .@.@..
    .@.@..
    .@.@..
    .@@...
    .@....
    .@....
    .@....
    ......
    ......
    ......
    ......

u+05e6:
HEBREW LETTER TSADI:
    ......
    ......
    @...@.
    .@.@..
    ..@...
    ...@..
    @@@@@.
    ......
    ......
    ......
    ......

u+05e7:
HEBREW LETTER QOF:
    @@@@@.
    ....@.
    @...@.
    @...@.
    @@@@..
    @.....
    @.....
    ......
    ......
    ......
    ......

u+05e8:
HEBREW LETTER RESH:
    ......
    ......
    @@@@..
    ....@.
    ....@.
    ....@.
    ....@.
    ......
    ......
    ......
    ......

u+05e9:
HEBREW LETTER SHIN:
    ......
    ......
    @.@.@.
    @.@.@.
    @@..@.
    @...@.
    @@@@..
    ......
    ......
    ......
    ......

u+05ea:
HEBREW LETTER TAV:
    ......
    ......
    @@@@@.
    @...@.
    @...@.
    .@..@.
    @...@.
    ......
    ......
    ......
    ......

u+16a0:
RUNIC LETTER FEHU FEOH FE F:
    ......
    ......
    ..@.@.
    ..@@..
    ..@.@.
    ..@@..
    ..@...
    ..@...
    ..@...
    ......
    ......

u+16a2:
RUNIC LETTER URUZ UR U:
    ......
    ......
    .@@...
    .@.@..
    .@.@..
    .@..@.
    .@..@.
    .@..@.
    .@..@.
    ......
    ......

u+16a3:
RUNIC LETTER YR:
    ......
    ......
    ..@...
    .@.@..
    @...@.
    @...@.
    @.@.@.
    @.@.@.
    @.@.@.
    ......
    ......

u+16a6:
RUNIC LETTER THURISAZ THURS THORN:
    ......
    ......
    ..@...
    ..@...
    ..@@..
    ..@.@.
    ..@@..
    ..@...
    ..@...
    ......
    ......

u+16a9:
RUNIC LETTER OS O:
    ......
    ......
    @...@.
    @@.@..
    @.@.@.
    @@.@..
    @.@...
    @.....
    @.....
    ......
    ......

u+16aa:
RUNIC LETTER AC A:
    ......
    ......
    @...@.
    @@.@..
    @.@...
    @@....
    @.@...
    @.....
    @.....
    ......
    ......

u+16ab:
RUNIC LETTER AESC:
    ......
    ......
    ..@...
    ..@@..
    ..@.@.
    ..@@..
    ..@.@.
    ..@...
    ..@...
    ......
    ......

u+16ac:
RUNIC LETTER LONG-BRANCH-OSS O:
    ......
    ......
    ......
    ......
    ......
    ......
    ......
    ......
    ......
    ......
    ......
    ......

u+16b1:
RUNIC LETTER RAIDO RAD REID R:
    ......
    ......
    .@@...
    .@.@..
    .@..@.
    .@.@..
    .@@...
    .@.@..
    .@....
    ......
    ......

u+16b3:
RUNIC LETTER CEN:
    ......
    ......
    .@....
    .@....
    .@@...
    .@.@..
    .@.@..
    .@..@.
    .@..@.
    ......
    ......

u+16b7:
RUNIC LETTER GEBO GYFU G:
    ......
    ......
    @...@.
    .@.@..
    .@.@..
    ..@...
    .@.@..
    .@.@..
    @...@.
    ......
    ......

u+16b8:
RUNIC LETTER GAR:
    ......
    ......
    @...@.
    .@@@..
    .@.@..
    @.@.@.
    .@.@..
    .@@@..
    @...@.
    ......
    ......

u+16b9:
RUNIC LETTER WUNJO WYNN W:
    ......
    ......
    .@@...
    .@.@..
    .@..@.
    .@.@..
    .@@...
    .@....
    .@....
    ......
    ......

u+16bb:
RUNIC LETTER HAEGL H:
    ......
    ......
    @...@.
    @...@.
    @@..@.
    @.@.@.
    @@.@@.
    @.@.@.
    @..@@.
    ......
    ......

u+16be:
RUNIC LETTER NAUDIZ NYD NAUD N:
    ......
    ......
    ..@...
    @.@...
    .@@...
    ..@@..
    ..@.@.
    ..@...
    ..@...
    ......
    ......

u+16c1:
RUNIC LETTER ISAZ IS ISS I:
    ......
    ......
    ..@...
    ..@...
    ..@...
    ..@...
    ..@...
    ..@...
    ..@...
    ......
    ......

u+16c4:
RUNIC LETTER GER:
    ......
    ......
    ..@...
    ..@...
    .@@@..
    @.@.@.
    .@@@..
    ..@...
    ..@...
    ......
    ......

u+16c7:
RUNIC LETTER IWAZ EOH:
    ......
    ......
    ..@...
    ..@@..
    ..@.@.
    ..@...
    @.@...
    .@@...
    ..@...
    ......
    ......

u+16c8:
RUNIC LETTER PERTHO PEORTH P:
    ......
    ......
    @...@.
    @@.@..
    @.@...
    @.....
    @.@...
    @@.@..
    @...@.
    ......
    ......

u+16c9:
RUNIC LETTER ALGIZ EOLHX:
    ......
    ......
    @.@.@.
    @.@.@.
    @.@.@.
    .@@@..
    ..@...
    ..@...
    ..@...
    ......
    ......

u+16cb:
RUNIC LETTER SIGEL LONG-BRANCH-SOL S:
    ......
    ......
    @.....
    @...@.
    @..@@.
    @.@.@.
    @@..@.
    @...@.
    ....@.
    ......
    ......

u+16cf:
RUNIC LETTER TIWAZ TIR TYR T:
    ......
    ......
    ..@...
    .@@@..
    @.@.@.
    ..@...
    ..@...
    ..@...
    ..@...
    ......
    ......

u+16d2:
RUNIC LETTER BERKANAN BEORC BJARKAN B:
    ......
    ......
    .@@...
    .@.@..
    .@..@.
    .@@@..
    .@..@.
    .@.@..
    .@@...
    ......
    ......

u+16d6:
RUNIC LETTER EHWAZ EH E:
    ......
    ......
    @...@.
    @@.@@.
    @.@.@.
    @...@.
    @...@.
    @...@.
    @...@.
    ......
    ......

u+16d7:
RUNIC LETTER MANNAZ MAN M:
    ......
    ......
    @...@.
    @@.@@.
    @.@.@.
    @@.@@.
    @...@.
    @...@.
    @...@.
    ......
    ......

u+16da:
RUNIC LETTER LAUKAZ LAGU LOGR L:
    ......
    ......
    ..@...
    ..@@..
    ..@.@.
    ..@...
    ..@...
    ..@...
    ..@...
    ......
    ......

u+16dd:
RUNIC LETTER ING:
    ......
    ......
    @...@.
    .@.@..
    ..@...
    .@.@..
    ..@...
    .@.@..
    @...@.
    ......
    ......

u+16de:
RUNIC LETTER DAGAZ DAEG D:
    ......
    ......
    @...@.
    @...@.
    @@.@@.
    @.@.@.
    @@.@@.
    @...@.
    @...@.
    ......
    ......

u+16df:
RUNIC LETTER OTHALAN ETHEL O:
    ......
    ......
    ..@...
    .@.@..
    @...@.
    .@.@..
    ..@...
    .@.@..
    @...@.
    ......
    ......

u+16e0:
RUNIC LETTER EAR:
    ......
    ......
    @.@.@.
    .@@@..
    ..@...
    ..@...
    ..@...
    ..@...
    ..@...
    ......
    ......

u+16e1:
RUNIC LETTER IOR:
    ......
    ......
    @.@.@.
    .@@@..
    ..@...
    .@@@..
    @.@.@.
    ..@...
    ..@...
    ......
    ......

u+16e2:
RUNIC LETTER CWEORTH:
    ......
    ......
    ..@.@.
    ..@@..
    ..@...
    ..@...
    ..@...
    .@@...
    @.@...
    ......
    ......

u+16e3:
RUNIC LETTER CALC:
    ......
    ......
    ..@...
    ..@...
    ..@...
    .@@@..
    @.@.@.
    @.@.@.
    @.@.@.
    ......
    ......

u+16e5:
RUNIC LETTER STAN:
    ......
    ......
    @...@.
    @@.@@.
    @.@.@.
    @...@.
    @.@.@.
    @@.@@.
    @...@.
    ......
    ......

u+16eb:
RUNIC SINGLE PUNCTUATION:
    ......
    ......
    ......
    ......
    ......
    ..@...
    ......
    ......
    ......
    ......
    ......

u+16ec:
RUNIC MULTIPLE PUNCTUATION:
    ......
    ......
    ......
    ......
    ..@...
    ......
    ..@...
    ......
    ......
    ......
    ......

u+16ed:
RUNIC CROSS PUNCTUATION:
    ......
    ......
    ......
    ......
    .@.@..
    ..@...
    .@.@..
    ......
    ......
    ......
    ......

u+1e02:
LATIN CAPITAL LETTER B WITH DOT ABOVE:
    ......
    ......
    ..@...
    ......
    @@@@..
    @...@.
    @@@@..
    @...@.
    @...@.
    @@@@..
    ......

u+1e03:
LATIN SMALL LETTER B WITH DOT ABOVE:
    ......
    ......
    @..@..
    @.....
    @.@@..
    @@..@.
    @...@.
    @@..@.
    @.@@..
    ......
    ......

u+1e04:
LATIN CAPITAL LETTER B WITH DOT BELOW:
    ......
    ......
    ......
    ......
    ......
    ......
    ......
    ......
    ......
    ......
    ......
    ......

u+1e0a:
LATIN CAPITAL LETTER D WITH DOT ABOVE:
    ......
    ......
    ..@...
    ......
    @@@@..
    @...@.
    @...@.
    @...@.
    @...@.
    @@@@..
    ......

u+1e0b:
LATIN SMALL LETTER D WITH DOT ABOVE:
    ......
    ......
    ..@...
    ....@.
    ....@.
    .@@.@.
    @..@@.
    @...@.
    @..@@.
    .@@.@.
    ......

u+1e1e:
LATIN CAPITAL LETTER F WITH DOT ABOVE:
    ......
    ......
    ..@...
    ......
    @@@@@.
    @.....
    @@@@..
    @.....
    @.....
    @.....
    ......

u+1e1f:
LATIN SMALL LETTER F WITH DOT ABOVE:
    ......
    ......
    ..@...
    ......
    ..@@..
    .@..@.
    .@....
    @@@@..
    .@....
    .@....
    ......

u+1e40:
LATIN CAPITAL LETTER M WITH DOT ABOVE:
    ......
    ......
    ..@...
    @...@.
    @...@.
    @@.@@.
    @.@.@.
    @...@.
    @...@.
    @...@.
    ......

u+1e41:
LATIN SMALL LETTER M WITH DOT ABOVE:
    ......
    ......
    ..@...
    ......
    @@.@..
    @.@.@.
    @.@.@.
    @.@.@.
    @...@.
    ......
    ......

u+1e56:
LATIN CAPITAL LETTER P WITH DOT ABOVE:
    ......
    ......
    ..@...
    ......
    @@@@..
    @...@.
    @...@.
    @@@@..
    @.....
    @.....
    ......

u+1e57:
LATIN SMALL LETTER P WITH DOT ABOVE:
    ..@...
    ......
    @.@@..
    @@..@.
    @...@.
    @@..@.
    @.@@..
    @.....
    @.....
    ......
    ......

u+1e60:
LATIN CAPITAL LETTER S WITH DOT ABOVE:
    ......
    ......
    ..@...
    ......
    .@@@..
    @.....
    .@@@..
    ....@.
    @...@.
    .@@@..
    ......

u+1e61:
LATIN SMALL LETTER S WITH DOT ABOVE:
    ......
    ......
    ..@...
    ......
    .@@@..
    @.....
    .@@@..
    ....@.
    @@@@..
    ......
    ......

u+1e6a:
LATIN CAPITAL LETTER T WITH DOT ABOVE:
    ......
    ......
    ..@...
    ......
    @@@@@.
    ..@...
    ..@...
    ..@...
    ..@...
    ..@...
    ......

u+1e6b:
LATIN SMALL LETTER T WITH DOT ABOVE:
    ......
    ......
    .@....
    ......
    .@....
    @@@@..
    .@....
    .@....
    .@..@.
    ..@@..
    ......

u+1e80:
LATIN CAPITAL LETTER W WITH GRAVE:
    ......
    ......
    .@....
    ..@...
    @...@.
    @...@.
    @.@.@.
    @.@.@.
    @@.@@.
    @...@.
    ......

u+1e81:
LATIN SMALL LETTER W WITH GRAVE:
    ......
    ......
    .@....
    ..@...
    @...@.
    @...@.
    @.@.@.
    @.@.@.
    .@.@..
    ......
    ......

u+1e82:
LATIN CAPITAL LETTER W WITH ACUTE:
    ......
    ......
    ...@..
    ..@...
    @...@.
    @...@.
    @.@.@.
    @.@.@.
    @@.@@.
    @...@.
    ......

u+1e83:
LATIN SMALL LETTER W WITH ACUTE:
    ......
    ......
    ...@..
    ..@...
    @...@.
    @...@.
    @.@.@.
    @.@.@.
    .@.@..
    ......
    ......

u+1e84:
LATIN CAPITAL LETTER W WITH DIAERESIS:
    ......
    ......
    .@.@..
    ......
    @...@.
    @...@.
    @.@.@.
    @.@.@.
    @@.@@.
    @...@.
    ......

u+1e85:
LATIN SMALL LETTER W WITH DIAERESIS:
    ......
    ......
    .@.@..
    ......
    @...@.
    @...@.
    @.@.@.
    @.@.@.
    .@.@..
    ......
    ......

u+1ef2:
LATIN CAPITAL LETTER Y WITH GRAVE:
    ......
    ......
    .@....
    ..@...
    @...@.
    .@.@..
    ..@...
    ..@...
    ..@...
    ..@...
    ......

u+1ef3:
LATIN SMALL LETTER Y WITH GRAVE:
    .@....
    ..@...
    ......
    @...@.
    @...@.
    @..@@.
    .@@.@.
    ....@.
    @...@.
    .@@@..
    ......

u+1f00:
GREEK SMALL LETTER ALPHA WITH PSILI:
    ......
    ......
    ..@@..
    ...@..
    ..@...
    .@@@..
    @...@.
    @...@.
    @..@@.
    .@@.@.
    ......

u+1f01:
GREEK SMALL LETTER ALPHA WITH DASIA:
    ......
    ......
    ..@@..
    ..@...
    ...@..
    .@@@..
    @...@.
    @...@.
    @..@@.
    .@@.@.
    ......

u+1f02:
GREEK SMALL LETTER ALPHA WITH PSILI AND VARIA:
    ......
    ......
    .@@@..
    ..@.@.
    .@....
    .@@@..
    @...@.
    @...@.
    @..@@.
    .@@.@.
    ......

u+1f03:
GREEK SMALL LETTER ALPHA WITH DASIA AND VARIA:
    ......
    ......
    .@@@..
    .@..@.
    ..@...
    .@@@..
    @...@.
    @...@.
    @..@@.
    .@@.@.
    ......

u+1f04:
GREEK SMALL LETTER ALPHA WITH PSILI AND OXIA:
    ......
    ......
    .@@.@.
    ..@@..
    .@....
    .@@@..
    @...@.
    @...@.
    @..@@.
    .@@.@.
    ......

u+1f05:
GREEK SMALL LETTER ALPHA WITH DASIA AND OXIA:
    ......
    ......
    .@@.@.
    .@.@..
    ..@...
    .@@@..
    @...@.
    @...@.
    @..@@.
    .@@.@.
    ......

u+1f06:
GREEK SMALL LETTER ALPHA WITH PSILI AND PERISPOMENI:
    ......
    ......
    .@@@@.
    ...@..
    ..@...
    .@@@..
    @...@.
    @...@.
    @..@@.
    .@@.@.
    ......

u+1f07:
GREEK SMALL LETTER ALPHA WITH DASIA AND PERISPOMENI:
    ......
    ......
    .@@@@.
    ..@...
    ...@..
    .@@@..
    @...@.
    @...@.
    @..@@.
    .@@.@.
    ......

u+1f08:
GREEK CAPITAL LETTER ALPHA WITH PSILI:
    ......
    ......
    @@.@@.
    .@@..@
    @.@..@
    ..@..@
    ..@@@@
    ..@..@
    ..@..@
    ......
    ......

u+1f09:
GREEK CAPITAL LETTER ALPHA WITH DASIA:
    ......
    ......
    @@.@@.
    @.@..@
    .@@..@
    ..@..@
    ..@@@@
    ..@..@
    ..@..@
    ......
    ......

u+1f0a:
GREEK CAPITAL LETTER ALPHA WITH PSILI AND VARIA:
    ......
    ......
    @@.@@.
    .@@..@
    @.@..@
    @.@..@
    .@@@@@
    ..@..@
    ..@..@
    ......
    ......

u+1f0b:
GREEK CAPITAL LETTER ALPHA WITH DASIA AND VARIA:
    ......
    ......
    @@.@@.
    @.@..@
    .@@..@
    @.@..@
    .@@@@@
    ..@..@
    ..@..@
    ......
    ......

u+1f0c:
GREEK CAPITAL LETTER ALPHA WITH PSILI AND OXIA:
    ......
    ......
    @@.@@.
    .@@..@
    @.@..@
    .@@..@
    @.@@@@
    ..@..@
    ..@..@
    ......
    ......

u+1f0d:
GREEK CAPITAL LETTER ALPHA WITH DASIA AND OXIA:
    ......
    ......
    @@.@@.
    @.@..@
    .@@..@
    .@@..@
    @.@@@@
    ..@..@
    ..@..@
    ......
    ......

u+1f0e:
GREEK CAPITAL LETTER ALPHA WITH PSILI AND PERISPOMENI:
    ......
    ......
    @@.@@.
    ..@..@
    @@@..@
    .@@..@
    @.@@@@
    ..@..@
    ..@..@
    ......
    ......

u+1f0f:
GREEK CAPITAL LETTER ALPHA WITH DASIA AND PERISPOMENI:
    ......
    ......
    @@.@@.
    ..@..@
    @@@..@
    @.@..@
    .@@@@@
    ..@..@
    ..@..@
    ......
    ......

u+1f10:
GREEK SMALL LETTER EPSILON WITH PSILI:
    ......
    ......
    ..@@..
    ...@..
    ..@...
    .@@@..
    @...@.
    .@@...
    @...@.
    .@@@..
    ......

u+1f11:
GREEK SMALL LETTER EPSILON WITH DASIA:
    ......
    ......
    ..@@..
    ..@...
    ...@..
    .@@@..
    @...@.
    .@@...
    @...@.
    .@@@..
    ......

u+1f12:
GREEK SMALL LETTER EPSILON WITH PSILI AND VARIA:
    ......
    ......
    .@@@..
    ..@.@.
    .@....
    .@@@..
    @...@.
    .@@...
    @...@.
    .@@@..
    ......

u+1f13:
GREEK SMALL LETTER EPSILON WITH DASIA AND VARIA:
    ......
    ......
    .@@@..
    .@..@.
    ..@...
    .@@@..
    @...@.
    .@@...
    @...@.
    .@@@..
    ......

u+1f14:
GREEK SMALL LETTER EPSILON WITH PSILI AND OXIA:
    ......
    ......
    .@@.@.
    ..@@..
    .@....
    .@@@..
    @...@.
    .@@...
    @...@.
    .@@@..
    ......

u+1f15:
GREEK SMALL LETTER EPSILON WITH DASIA AND OXIA:
    ......
    ......
    .@@.@.
    .@.@..
    ..@...
    .@@@..
    @...@.
    .@@...
    @...@.
    .@@@..
    ......

u+1f18:
GREEK CAPITAL LETTER EPSILON WITH PSILI:
    ......
    ......
    @@@@@@
    .@@...
    @.@...
    ..@@@.
    ..@...
    ..@...
    ..@@@@
    ......
    ......

u+1f19:
GREEK CAPITAL LETTER EPSILON WITH DASIA:
    ......
    ......
    @@@@@@
    @.@...
    .@@...
    ..@@@.
    ..@...
    ..@...
    ..@@@@
    ......
    ......

u+1f1a:
GREEK CAPITAL LETTER EPSILON WITH PSILI AND VARIA:
    ......
    ......
    @@@@@@
    .@@...
    @.@...
    @.@@@.
    .@@...
    ..@...
    ..@@@@
    ......
    ......

u+1f1b:
GREEK CAPITAL LETTER EPSILON WITH DASIA AND VARIA:
    ......
    ......
    @@@@@@
    @.@...
    .@@...
    @.@@@.
    .@@...
    ..@...
    ..@@@@
    ......
    ......

u+1f1c:
GREEK CAPITAL LETTER EPSILON WITH PSILI AND OXIA:
    ......
    ......
    @@@@@@
    .@@...
    @.@...
    .@@@@.
    @.@...
    ..@...
    ..@@@@
    ......
    ......

u+1f1d:
GREEK CAPITAL LETTER EPSILON WITH DASIA AND OXIA:
    ......
    ......
    @@@@@@
    @.@...
    .@@...
    .@@@@.
    @.@...
    ..@...
    ..@@@@
    ......
    ......

u+1f20:
GREEK SMALL LETTER ETA WITH PSILI:
    ..@@..
    ...@..
    ..@...
    @.@@..
    @@..@.
    @...@.
    @...@.
    @...@.
    ....@.
    ....@.
    ......

u+1f21:
GREEK SMALL LETTER ETA WITH DASIA:
    ..@@..
    ..@...
    ...@..
    @.@@..
    @@..@.
    @...@.
    @...@.
    @...@.
    ....@.
    ....@.
    ......

u+1f22:
GREEK SMALL LETTER ETA WITH PSILI AND VARIA:
    .@@@..
    ..@.@.
    .@....
    @.@@..
    @@..@.
    @...@.
    @...@.
    @...@.
    ....@.
    ....@.
    ......

u+1f23:
GREEK SMALL LETTER ETA WITH DASIA AND VARIA:
    .@@@..
    .@..@.
    ..@...
    @.@@..
    @@..@.
    @...@.
    @...@.
    @...@.
    ....@.
    ....@.
    ......

u+1f24:
GREEK SMALL LETTER ETA WITH PSILI AND OXIA:
    .@@.@.
    ..@@..
    .@....
    @.@@..
    @@..@.
    @...@.
    @...@.
    @...@.
    ....@.
    ....@.
    ......

u+1f25:
GREEK SMALL LETTER ETA WITH DASIA AND OXIA:
    .@@.@.
    .@.@..
    ..@...
    @.@@..
    @@..@.
    @...@.
    @...@.
    @...@.
    ....@.
    ....@.
    ......

u+1f26:
GREEK SMALL LETTER ETA WITH PSILI AND PERISPOMENI:
    .@@@@.
    ...@..
    ..@...
    @.@@..
    @@..@.
    @...@.
    @...@.
    @...@.
    ....@.
    ....@.
    ......

u+1f27:
GREEK SMALL LETTER ETA WITH DASIA AND PERISPOMENI:
    .@@@@.
    ..@...
    ...@..
    @.@@..
    @@..@.
    @...@.
    @...@.
    @...@.
    ....@.
    ....@.
    ......

u+1f28:
GREEK CAPITAL LETTER ETA WITH PSILI:
    ......
    ......
    @@@..@
    .@@..@
    @.@..@
    ..@@@@
    ..@..@
    ..@..@
    ..@..@
    ......
    ......

u+1f29:
GREEK CAPITAL LETTER ETA WITH DASIA:
    ......
    ......
    @@@..@
    @.@..@
    .@@..@
    ..@@@@
    ..@..@
    ..@..@
    ..@..@
    ......
    ......

u+1f2a:
GREEK CAPITAL LETTER ETA WITH PSILI AND VARIA:
    ......
    ......
    @@@..@
    .@@..@
    @.@..@
    @.@@@@
    .@@..@
    ..@..@
    ..@..@
    ......
    ......

u+1f2b:
GREEK CAPITAL LETTER ETA WITH DASIA AND VARIA:
    ......
    ......
    @@@..@
    @.@..@
    .@@..@
    @.@@@@
    .@@..@
    ..@..@
    ..@..@
    ......
    ......

u+1f2c:
GREEK CAPITAL LETTER ETA WITH PSILI AND OXIA:
    ......
    ......
    @@@..@
    .@@..@
    @.@..@
    .@@@@@
    @.@..@
    ..@..@
    ..@..@
    ......
    ......

u+1f2d:
GREEK CAPITAL LETTER ETA WITH DASIA AND OXIA:
    ......
    ......
    @@@..@
    @.@..@
    .@@..@
    .@@@@@
    @.@..@
    ..@..@
    ..@..@
    ......
    ......

u+1f2e:
GREEK CAPITAL LETTER ETA WITH PSILI AND PERISPOMENI:
    ......
    ......
    @@@..@
    ..@..@
    @@@..@
    .@@@@@
    @.@..@
    ..@..@
    ..@..@
    ......
    ......

u+1f2f:
GREEK CAPITAL LETTER ETA WITH DASIA AND PERISPOMENI:
    ......
    ......
    @@@..@
    ..@..@
    @@@..@
    @.@@@@
    .@@..@
    ..@..@
    ..@..@
    ......
    ......

u+1f30:
GREEK SMALL LETTER IOTA WITH PSILI:
    ......
    ......
    .@@...
    ..@...
    .@....
    .@....
    .@....
    .@....
    .@.@..
    ..@...
    ......

u+1f31:
GREEK SMALL LETTER IOTA WITH DASIA:
    ......
    ......
    .@@...
    .@....
    ..@...
    .@....
    .@....
    .@....
    .@.@..
    ..@...
    ......

u+1f32:
GREEK SMALL LETTER IOTA WITH PSILI AND VARIA:
    ......
    ......
    .@@@..
    ..@.@.
    .@....
    ..@...
    ..@...
    ..@...
    ..@.@.
    ...@..
    ......

u+1f33:
GREEK SMALL LETTER IOTA WITH DASIA AND VARIA:
    ......
    ......
    .@@@..
    .@..@.
    ..@...
    ..@...
    ..@...
    ..@...
    ..@.@.
    ...@..
    ......

u+1f34:
GREEK SMALL LETTER IOTA WITH PSILI AND OXIA:
    ......
    ......
    .@@.@.
    ..@@..
    .@....
    ..@...
    ..@...
    ..@...
    ..@.@.
    ...@..
    ......

u+1f35:
GREEK SMALL LETTER IOTA WITH DASIA AND OXIA:
    ......
    ......
    .@@.@.
    .@.@..
    ..@...
    ..@...
    ..@...
    ..@...
    ..@.@.
    ...@..
    ......

u+1f36:
GREEK SMALL LETTER IOTA WITH PSILI AND PERISPOMENI:
    ......
    ......
    .@@@@.
    ...@..
    ..@...
    ..@...
    ..@...
    ..@...
    ..@.@.
    ...@..
    ......

u+1f37:
GREEK SMALL LETTER IOTA WITH DASIA AND PERISPOMENI:
    ......
    ......
    .@@@@.
    ..@...
    ...@..
    ..@...
    ..@...
    ..@...
    ..@.@.
    ...@..
    ......

u+1f38:
GREEK CAPITAL LETTER IOTA WITH PSILI:
    ......
    ......
    @@.@@@
    .@..@.
    @...@.
    ....@.
    ....@.
    ....@.
    ...@@@
    ......
    ......

u+1f39:
GREEK CAPITAL LETTER IOTA WITH DASIA:
    ......
    ......
    @@.@@@
    @...@.
    .@..@.
    ....@.
    ....@.
    ....@.
    ...@@@
    ......
    ......

u+1f3a:
GREEK CAPITAL LETTER IOTA WITH PSILI AND VARIA:
    ......
    ......
    @@.@@@
    .@..@.
    @...@.
    @...@.
    .@..@.
    ....@.
    ...@@@
    ......
    ......

u+1f3b:
GREEK CAPITAL LETTER IOTA WITH DASIA AND VARIA:
    ......
    ......
    @@.@@@
    @...@.
    .@..@.
    @...@.
    .@..@.
    ....@.
    ...@@@
    ......
    ......

u+1f3c:
GREEK CAPITAL LETTER IOTA WITH PSILI AND OXIA:
    ......
    ......
    @@.@@@
    .@..@.
    @...@.
    .@..@.
    @...@.
    ....@.
    ...@@@
    ......
    ......

u+1f3d:
GREEK CAPITAL LETTER IOTA WITH DASIA AND OXIA:
    ......
    ......
    @@.@@@
    @...@.
    .@..@.
    .@..@.
    @...@.
    ....@.
    ...@@@
    ......
    ......

u+1f3e:
GREEK CAPITAL LETTER IOTA WITH PSILI AND PERISPOMENI:
    ......
    ......
    @@.@@@
    ....@.
    @@..@.
    .@..@.
    @...@.
    ....@.
    ...@@@
    ......
    ......

u+1f3f:
GREEK CAPITAL LETTER IOTA WITH DASIA AND PERISPOMENI:
    ......
    ......
    @@.@@@
    ....@.
    @@..@.
    @...@.
    .@..@.
    ....@.
    ...@@@
    ......
    ......

u+1f40:
GREEK SMALL LETTER OMICRON WITH PSILI:
    ......
    ......
    ..@@..
    ...@..
    ..@...
    .@@@..
    @...@.
    @...@.
    @...@.
    .@@@..
    ......

u+1f41:
GREEK SMALL LETTER OMICRON WITH DASIA:
    ......
    ......
    ..@@..
    ..@...
    ...@..
    .@@@..
    @...@.
    @...@.
    @...@.
    .@@@..
    ......

u+1f42:
GREEK SMALL LETTER OMICRON WITH PSILI AND VARIA:
    ......
    ......
    .@@@..
    ..@.@.
    .@....
    .@@@..
    @...@.
    @...@.
    @...@.
    .@@@..
    ......

u+1f43:
GREEK SMALL LETTER OMICRON WITH DASIA AND VARIA:
    ......
    ......
    .@@@..
    .@..@.
    ..@...
    .@@@..
    @...@.
    @...@.
    @...@.
    .@@@..
    ......

u+1f44:
GREEK SMALL LETTER OMICRON WITH PSILI AND OXIA:
    ......
    ......
    .@@.@.
    ..@@..
    .@....
    .@@@..
    @...@.
    @...@.
    @...@.
    .@@@..
    ......

u+1f45:
GREEK SMALL LETTER OMICRON WITH DASIA AND OXIA:
    ......
    ......
    .@@.@.
    .@.@..
    ..@...
    .@@@..
    @...@.
    @...@.
    @...@.
    .@@@..
    ......

u+1f48:
GREEK CAPITAL LETTER OMICRON WITH PSILI:
    ......
    ......
    @@.@@.
    .@@..@
    @.@..@
    ..@..@
    ..@..@
    ..@..@
    ...@@.
    ......
    ......

u+1f49:
GREEK CAPITAL LETTER OMICRON WITH DASIA:
    ......
    ......
    @@.@@.
    @.@..@
    .@@..@
    ..@..@
    ..@..@
    ..@..@
    ...@@.
    ......
    ......

u+1f4a:
GREEK CAPITAL LETTER OMICRON WITH PSILI AND VARIA:
    ......
    ......
    @@.@@.
    .@@..@
    @.@..@
    @.@..@
    .@@..@
    ..@..@
    ...@@.
    ......
    ......

u+1f4b:
GREEK CAPITAL LETTER OMICRON WITH DASIA AND VARIA:
    ......
    ......
    @@.@@.
    @.@..@
    .@@..@
    @.@..@
    .@@..@
    ..@..@
    ...@@.
    ......
    ......

u+1f4c:
GREEK CAPITAL LETTER OMICRON WITH PSILI AND OXIA:
    ......
    ......
    @@.@@.
    .@@..@
    @.@..@
    .@@..@
    @.@..@
    ..@..@
    ...@@.
    ......
    ......

u+1f4d:
GREEK CAPITAL LETTER OMICRON WITH DASIA AND OXIA:
    ......
    ......
    @@.@@.
    @.@..@
    .@@..@
    .@@..@
    @.@..@
    ..@..@
    ...@@.
    ......
    ......

u+1f50:
GREEK SMALL LETTER UPSILON WITH PSILI:
    ......
    ......
    ..@@..
    ...@..
    ..@...
    @...@.
    @...@.
    @...@.
    @...@.
    .@@@..
    ......

u+1f51:
GREEK SMALL LETTER UPSILON WITH DASIA:
    ......
    ......
    ..@@..
    ..@...
    ...@..
    @...@.
    @...@.
    @...@.
    @...@.
    .@@@..
    ......

u+1f52:
GREEK SMALL LETTER UPSILON WITH PSILI AND VARIA:
    ......
    ......
    .@@@..
    ..@.@.
    .@....
    @...@.
    @...@.
    @...@.
    @...@.
    .@@@..
    ......

u+1f53:
GREEK SMALL LETTER UPSILON WITH DASIA AND VARIA:
    ......
    ......
    .@@@..
    .@..@.
    ..@...
    @...@.
    @...@.
    @...@.
    @...@.
    .@@@..
    ......

u+1f54:
GREEK SMALL LETTER UPSILON WITH PSILI AND OXIA:
    ......
    ......
    .@@.@.
    ..@@..
    .@....
    @...@.
    @...@.
    @...@.
    @...@.
    .@@@..
    ......

u+1f55:
GREEK SMALL LETTER UPSILON WITH DASIA AND OXIA:
    ......
    ......
    .@@.@.
    .@.@..
    ..@...
    @...@.
    @...@.
    @...@.
    @...@.
    .@@@..
    ......

u+1f56:
GREEK SMALL LETTER UPSILON WITH PSILI AND PERISPOMENI:
    ......
    ......
    .@@@@.
    ...@..
    ..@...
    @...@.
    @...@.
    @...@.
    @...@.
    .@@@..
    ......

u+1f57:
GREEK SMALL LETTER UPSILON WITH DASIA AND PERISPOMENI:
    ......
    ......
    .@@@@.
    ..@...
    ...@..
    @...@.
    @...@.
    @...@.
    @...@.
    .@@@..
    ......

u+1f59:
GREEK CAPITAL LETTER UPSILON WITH DASIA:
    ......
    ......
    @@.@.@
    @..@.@
    .@.@.@
    ....@.
    ....@.
    ....@.
    ....@.
    ......
    ......

u+1f5b:
GREEK CAPITAL LETTER UPSILON WITH DASIA AND VARIA:
    ......
    ......
    @@.@.@
    @..@.@
    .@.@.@
    @...@.
    .@..@.
    ....@.
    ....@.
    ......
    ......

u+1f5d:
GREEK CAPITAL LETTER UPSILON WITH DASIA AND OXIA:
    ......
    ......
    @@.@.@
    @..@.@
    .@.@.@
    .@..@.
    @...@.
    ....@.
    ....@.
    ......
    ......

u+1f5f:
GREEK CAPITAL LETTER UPSILON WITH DASIA AND PERISPOMENI:
    ......
    ......
    @@.@.@
    ...@.@
    @@.@.@
    @...@.
    .@..@.
    ....@.
    ....@.
    ......
    ......

u+1f60:
GREEK SMALL LETTER OMEGA WITH PSILI:
    ......
    ......
    ..@@..
    ...@..
    ..@...
    @...@.
    @.@.@.
    @.@.@.
    @.@.@.
    .@.@..
    ......

u+1f61:
GREEK SMALL LETTER OMEGA WITH DASIA:
    ......
    ......
    ..@@..
    ..@...
    ...@..
    @...@.
    @.@.@.
    @.@.@.
    @.@.@.
    .@.@..
    ......

u+1f62:
GREEK SMALL LETTER OMEGA WITH PSILI AND VARIA:
    ......
    ......
    .@@@..
    ..@.@.
    .@....
    @...@.
    @.@.@.
    @.@.@.
    @.@.@.
    .@.@..
    ......

u+1f63:
GREEK SMALL LETTER OMEGA WITH DASIA AND VARIA:
    ......
    ......
    .@@@..
    .@..@.
    ..@...
    @...@.
    @.@.@.
    @.@.@.
    @.@.@.
    .@.@..
    ......

u+1f64:
GREEK SMALL LETTER OMEGA WITH PSILI AND OXIA:
    ......
    ......
    .@@.@.
    ..@@..
    .@....
    @...@.
    @.@.@.
    @.@.@.
    @.@.@.
    .@.@..
    ......

u+1f65:
GREEK SMALL LETTER OMEGA WITH DASIA AND OXIA:
    ......
    ......
    .@@.@.
    .@.@..
    ..@...
    @...@.
    @.@.@.
    @.@.@.
    @.@.@.
    .@.@..
    ......

u+1f66:
GREEK SMALL LETTER OMEGA WITH PSILI AND PERISPOMENI:
    ......
    ......
    .@@@@.
    ...@..
    ..@...
    @...@.
    @.@.@.
    @.@.@.
    @.@.@.
    .@.@..
    ......

u+1f67:
GREEK SMALL LETTER OMEGA WITH DASIA AND PERISPOMENI:
    ......
    ......
    .@@@@.
    ..@...
    ...@..
    @...@.
    @.@.@.
    @.@.@.
    @.@.@.
    .@.@..
    ......

u+1f68:
GREEK CAPITAL LETTER OMEGA WITH PSILI:
    ......
    ......
    @@.@@.
    .@@..@
    @.@..@
    ..@..@
    ..@..@
    ...@@.
    ..@@@@
    ......
    ......

u+1f69:
GREEK CAPITAL LETTER OMEGA WITH DASIA:
    ......
    ......
    @@.@@.
    @.@..@
    .@@..@
    ..@..@
    ..@..@
    ...@@.
    ..@@@@
    ......
    ......

u+1f6a:
GREEK CAPITAL LETTER OMEGA WITH PSILI AND VARIA:
    ......
    ......
    @@.@@.
    .@@..@
    @.@..@
    @.@..@
    .@@..@
    ...@@.
    ..@@@@
    ......
    ......

u+1f6b:
GREEK CAPITAL LETTER OMEGA WITH DASIA AND VARIA:
    ......
    ......
    @@.@@.
    @.@..@
    .@@..@
    @.@..@
    .@@..@
    ...@@.
    ..@@@@
    ......
    ......

u+1f6c:
GREEK CAPITAL LETTER OMEGA WITH PSILI AND OXIA:
    ......
    ......
    @@.@@.
    .@@..@
    @.@..@
    .@@..@
    @.@..@
    ...@@.
    ..@@@@
    ......
    ......

u+1f6d:
GREEK CAPITAL LETTER OMEGA WITH DASIA AND OXIA:
    ......
    ......
    @@.@@.
    @.@..@
    .@@..@
    .@@..@
    @.@..@
    ...@@.
    ..@@@@
    ......
    ......

u+1f6e:
GREEK CAPITAL LETTER OMEGA WITH PSILI AND PERISPOMENI:
    ......
    ......
    @@.@@.
    ..@..@
    @@@..@
    .@@..@
    @.@..@
    ...@@.
    ..@@@@
    ......
    ......

u+1f6f:
GREEK CAPITAL LETTER OMEGA WITH DASIA AND PERISPOMENI:
    ......
    ......
    @@.@@.
    ..@..@
    @@@..@
    @.@..@
    .@@..@
    ...@@.
    ..@@@@
    ......
    ......

u+1f70:
GREEK SMALL LETTER ALPHA WITH VARIA:
    ......
    ......
    .@....
    ..@...
    ......
    .@@@..
    @...@.
    @...@.
    @..@@.
    .@@.@.
    ......

u+1f71:
GREEK SMALL LETTER ALPHA WITH OXIA:
    ......
    ......
    ...@..
    ..@...
    ......
    .@@@..
    @...@.
    @...@.
    @..@@.
    .@@.@.
    ......

u+1f72:
GREEK SMALL LETTER EPSILON WITH VARIA:
    ......
    ......
    .@....
    ..@...
    ......
    .@@@..
    @...@.
    .@@...
    @...@.
    .@@@..
    ......

u+1f73:
GREEK SMALL LETTER EPSILON WITH OXIA:
    ......
    ......
    ...@..
    ..@...
    ......
    .@@@..
    @...@.
    .@@...
    @...@.
    .@@@..
    ......

u+1f74:
GREEK SMALL LETTER ETA WITH VARIA:
    .@....
    ..@...
    ......
    @.@@..
    @@..@.
    @...@.
    @...@.
    @...@.
    ....@.
    ....@.
    ......

u+1f75:
GREEK SMALL LETTER ETA WITH OXIA:
    ...@..
    ..@...
    ......
    @.@@..
    @@..@.
    @...@.
    @...@.
    @...@.
    ....@.
    ....@.
    ......

u+1f76:
GREEK SMALL LETTER IOTA WITH VARIA:
    ......
    ......
    .@....
    ..@...
    ......
    ..@...
    ..@...
    ..@...
    ..@.@.
    ...@..
    ......

u+1f77:
GREEK SMALL LETTER IOTA WITH OXIA:
    ......
    ......
    ..@...
    .@....
    ......
    .@....
    .@....
    .@....
    .@.@..
    ..@...
    ......

u+1f78:
GREEK SMALL LETTER OMICRON WITH VARIA:
    ......
    ......
    .@....
    ..@...
    ......
    .@@@..
    @...@.
    @...@.
    @...@.
    .@@@..
    ......

u+1f79:
GREEK SMALL LETTER OMICRON WITH OXIA:
    ......
    ......
    ...@..
    ..@...
    ......
    .@@@..
    @...@.
    @...@.
    @...@.
    .@@@..
    ......

u+1f7a:
GREEK SMALL LETTER UPSILON WITH VARIA:
    ......
    ......
    .@....
    ..@...
    ......
    @...@.
    @...@.
    @...@.
    @...@.
    .@@@..
    ......

u+1f7b:
GREEK SMALL LETTER UPSILON WITH OXIA:
    ......
    ......
    ...@..
    ..@...
    ......
    @...@.
    @...@.
    @...@.
    @...@.
    .@@@..
    ......

u+1f7c:
GREEK SMALL LETTER OMEGA WITH VARIA:
    ......
    ......
    .@....
    ..@...
    ......
    @...@.
    @.@.@.
    @.@.@.
    @.@.@.
    .@.@..
    ......

u+1f7d:
GREEK SMALL LETTER OMEGA WITH OXIA:
    ......
    ......
    ...@..
    ..@...
    ......
    @...@.
    @.@.@.
    @.@.@.
    @.@.@.
    .@.@..
    ......

u+1f80:
GREEK SMALL LETTER ALPHA WITH PSILI AND YPOGEGRAMMENI:
    ..@@..
    ...@..
    ..@...
    .@@@..
    @...@.
    @...@.
    @..@@.
    .@@.@.
    ......
    ..@...
    ......

u+1f81:
GREEK SMALL LETTER ALPHA WITH DASIA AND YPOGEGRAMMENI:
    ..@@..
    ..@...
    ...@..
    .@@@..
    @...@.
    @...@.
    @..@@.
    .@@.@.
    ......
    ..@...
    ......

u+1f82:
GREEK SMALL LETTER ALPHA WITH PSILI AND VARIA AND YPOGEGRAMMENI:
    .@@@..
    ..@.@.
    .@....
    .@@@..
    @...@.
    @...@.
    @..@@.
    .@@.@.
    ......
    ..@...
    ......

u+1f83:
GREEK SMALL LETTER ALPHA WITH DASIA AND VARIA AND YPOGEGRAMMENI:
    .@@@..
    .@..@.
    ..@...
    .@@@..
    @...@.
    @...@.
    @..@@.
    .@@.@.
    ......
    ..@...
    ......

u+1f84:
GREEK SMALL LETTER ALPHA WITH PSILI AND OXIA AND YPOGEGRAMMENI:
    .@@.@.
    ..@@..
    .@....
    .@@@..
    @...@.
    @...@.
    @..@@.
    .@@.@.
    ......
    ..@...
    ......

u+1f85:
GREEK SMALL LETTER ALPHA WITH DASIA AND OXIA AND YPOGEGRAMMENI:
    .@@.@.
    .@.@..
    ..@...
    .@@@..
    @...@.
    @...@.
    @..@@.
    .@@.@.
    ......
    ..@...
    ......

u+1f86:
GREEK SMALL LETTER ALPHA WITH PSILI AND PERISPOMENI AND YPOGEGRAMMENI:
    .@@@@.
    ...@..
    ..@...
    .@@@..
    @...@.
    @...@.
    @..@@.
    .@@.@.
    ......
    ..@...
    ......

u+1f87:
GREEK SMALL LETTER ALPHA WITH DASIA AND PERISPOMENI AND YPOGEGRAMMENI:
    .@@@@.
    ..@...
    ...@..
    .@@@..
    @...@.
    @...@.
    @..@@.
    .@@.@.
    ......
    ..@...
    ......

u+1f88:
GREEK CAPITAL LETTER ALPHA WITH PSILI AND PROSGEGRAMMENI:
    @@.@@.
    .@@..@
    @.@..@
    ..@..@
    ..@@@@
    ..@..@
    ..@..@
    ......
    ...@..
    ......
    ......

u+1f89:
GREEK CAPITAL LETTER ALPHA WITH DASIA AND PROSGEGRAMMENI:
    @@.@@.
    @.@..@
    .@@..@
    ..@..@
    ..@@@@
    ..@..@
    ..@..@
    ......
    ...@..
    ......
    ......

u+1f8a:
GREEK CAPITAL LETTER ALPHA WITH PSILI AND VARIA AND PROSGEGRAMMENI:
    @@.@@.
    .@@..@
    @.@..@
    @.@..@
    .@@@@@
    ..@..@
    ..@..@
    ......
    ...@..
    ......
    ......

u+1f8b:
GREEK CAPITAL LETTER ALPHA WITH DASIA AND VARIA AND PROSGEGRAMMENI:
    @@.@@.
    @.@..@
    .@@..@
    @.@..@
    .@@@@@
    ..@..@
    ..@..@
    ......
    ...@..
    ......
    ......

u+1f8c:
GREEK CAPITAL LETTER ALPHA WITH PSILI AND OXIA AND PROSGEGRAMMENI:
    @@.@@.
    .@@..@
    @.@..@
    .@@..@
    @.@@@@
    ..@..@
    ..@..@
    ......
    ...@..
    ......
    ......

u+1f8d:
GREEK CAPITAL LETTER ALPHA WITH DASIA AND OXIA AND PROSGEGRAMMENI:
    @@.@@.
    @.@..@
    .@@..@
    .@@..@
    @.@@@@
    ..@..@
    ..@..@
    ......
    ...@..
    ......
    ......

u+1f8e:
GREEK CAPITAL LETTER ALPHA WITH PSILI AND PERISPOMENI AND PROSGEGRAMMENI:
    @@.@@.
    ..@..@
    @@@..@
    .@@..@
    @.@@@@
    ..@..@
    ..@..@
    ......
    ...@..
    ......
    ......

u+1f8f:
GREEK CAPITAL LETTER ALPHA WITH DASIA AND PERISPOMENI AND PROSGEGRAMMENI:
    @@.@@.
    ..@..@
    @@@..@
    @.@..@
    .@@@@@
    ..@..@
    ..@..@
    ......
    ...@..
    ......
    ......

u+1f90:
GREEK SMALL LETTER ETA WITH PSILI AND YPOGEGRAMMENI:
    ..@@..
    ...@..
    ..@...
    @.@@..
    @@..@.
    @...@.
    @...@.
    @...@.
    ....@.
    @...@.
    ......

u+1f91:
GREEK SMALL LETTER ETA WITH DASIA AND YPOGEGRAMMENI:
    ..@@..
    ..@...
    ...@..
    @.@@..
    @@..@.
    @...@.
    @...@.
    @...@.
    ....@.
    @...@.
    ......

u+1f92:
GREEK SMALL LETTER ETA WITH PSILI AND VARIA AND YPOGEGRAMMENI:
    .@@@..
    ..@.@.
    .@....
    @.@@..
    @@..@.
    @...@.
    @...@.
    @...@.
    ....@.
    @...@.
    ......

u+1f93:
GREEK SMALL LETTER ETA WITH DASIA AND VARIA AND YPOGEGRAMMENI:
    .@@@..
    .@..@.
    ..@...
    @.@@..
    @@..@.
    @...@.
    @...@.
    @...@.
    ....@.
    @...@.
    ......

u+1f94:
GREEK SMALL LETTER ETA WITH PSILI AND OXIA AND YPOGEGRAMMENI:
    .@@.@.
    ..@@..
    .@....
    @.@@..
    @@..@.
    @...@.
    @...@.
    @...@.
    ....@.
    @...@.
    ......

u+1f95:
GREEK SMALL LETTER ETA WITH DASIA AND OXIA AND YPOGEGRAMMENI:
    .@@.@.
    .@.@..
    ..@...
    @.@@..
    @@..@.
    @...@.
    @...@.
    @...@.
    ....@.
    @...@.
    ......

u+1f96:
GREEK SMALL LETTER ETA WITH PSILI AND PERISPOMENI AND YPOGEGRAMMENI:
    .@@@@.
    ...@..
    ..@...
    @.@@..
    @@..@.
    @...@.
    @...@.
    @...@.
    ....@.
    @...@.
    ......

u+1f97:
GREEK SMALL LETTER ETA WITH DASIA AND PERISPOMENI AND YPOGEGRAMMENI:
    .@@@@.
    ..@...
    ...@..
    @.@@..
    @@..@.
    @...@.
    @...@.
    @...@.
    ....@.
    @...@.
    ......

u+1f98:
GREEK CAPITAL LETTER ETA WITH PSILI AND PROSGEGRAMMENI:
    @@@..@
    .@@..@
    @.@..@
    ..@@@@
    ..@..@
    ..@..@
    ..@..@
    ......
    ...@..
    ......
    ......

u+1f99:
GREEK CAPITAL LETTER ETA WITH DASIA AND PROSGEGRAMMENI:
    @@@..@
    @.@..@
    .@@..@
    ..@@@@
    ..@..@
    ..@..@
    ..@..@
    ......
    ...@..
    ......
    ......

u+1f9a:
GREEK CAPITAL LETTER ETA WITH PSILI AND VARIA AND PROSGEGRAMMENI:
    @@@..@
    .@@..@
    @.@..@
    @.@@@@
    .@@..@
    ..@..@
    ..@..@
    ......
    ...@..
    ......
    ......

u+1f9b:
GREEK CAPITAL LETTER ETA WITH DASIA AND VARIA AND PROSGEGRAMMENI:
    @@@..@
    @.@..@
    .@@..@
    @.@@@@
    .@@..@
    ..@..@
    ..@..@
    ......
    ...@..
    ......
    ......

u+1f9c:
GREEK CAPITAL LETTER ETA WITH PSILI AND OXIA AND PROSGEGRAMMENI:
    @@@..@
    .@@..@
    @.@..@
    .@@@@@
    @.@..@
    ..@..@
    ..@..@
    ......
    ...@..
    ......
    ......

u+1f9d:
GREEK CAPITAL LETTER ETA WITH DASIA AND OXIA AND PROSGEGRAMMENI:
    @@@..@
    @.@..@
    .@@..@
    .@@@@@
    @.@..@
    ..@..@
    ..@..@
    ......
    ...@..
    ......
    ......

u+1f9e:
GREEK CAPITAL LETTER ETA WITH PSILI AND PERISPOMENI AND PROSGEGRAMMENI:
    @@@..@
    ..@..@
    @@@..@
    .@@@@@
    @.@..@
    ..@..@
    ..@..@
    ......
    ...@..
    ......
    ......

u+1f9f:
GREEK CAPITAL LETTER ETA WITH DASIA AND PERISPOMENI AND PROSGEGRAMMENI:
    @@@..@
    ..@..@
    @@@..@
    @.@@@@
    .@@..@
    ..@..@
    ..@..@
    ......
    ...@..
    ......
    ......

u+1fa0:
GREEK SMALL LETTER OMEGA WITH PSILI AND YPOGEGRAMMENI:
    ..@@..
    ...@..
    ..@...
    @...@.
    @.@.@.
    @.@.@.
    @.@.@.
    .@.@..
    ......
    ..@...
    ......

u+1fa1:
GREEK SMALL LETTER OMEGA WITH DASIA AND YPOGEGRAMMENI:
    ..@@..
    ..@...
    ...@..
    @...@.
    @.@.@.
    @.@.@.
    @.@.@.
    .@.@..
    ......
    ..@...
    ......

u+1fa2:
GREEK SMALL LETTER OMEGA WITH PSILI AND VARIA AND YPOGEGRAMMENI:
    .@@@..
    ..@.@.
    .@....
    @...@.
    @.@.@.
    @.@.@.
    @.@.@.
    .@.@..
    ......
    ..@...
    ......

u+1fa3:
GREEK SMALL LETTER OMEGA WITH DASIA AND VARIA AND YPOGEGRAMMENI:
    .@@@..
    .@..@.
    ..@...
    @...@.
    @.@.@.
    @.@.@.
    @.@.@.
    .@.@..
    ......
    ..@...
    ......

u+1fa4:
GREEK SMALL LETTER OMEGA WITH PSILI AND OXIA AND YPOGEGRAMMENI:
    .@@.@.
    ..@@..
    .@....
    @...@.
    @.@.@.
    @.@.@.
    @.@.@.
    .@.@..
    ......
    ..@...
    ......

u+1fa5:
GREEK SMALL LETTER OMEGA WITH DASIA AND OXIA AND YPOGEGRAMMENI:
    .@@.@.
    .@.@..
    ..@...
    @...@.
    @.@.@.
    @.@.@.
    @.@.@.
    .@.@..
    ......
    ..@...
    ......

u+1fa6:
GREEK SMALL LETTER OMEGA WITH PSILI AND PERISPOMENI AND YPOGEGRAMMENI:
    .@@@@.
    ...@..
    ..@...
    @...@.
    @.@.@.
    @.@.@.
    @.@.@.
    .@.@..
    ......
    ..@...
    ......

u+1fa7:
GREEK SMALL LETTER OMEGA WITH DASIA AND PERISPOMENI AND YPOGEGRAMMENI:
    .@@@@.
    ..@...
    ...@..
    @...@.
    @.@.@.
    @.@.@.
    @.@.@.
    .@.@..
    ......
    ..@...
    ......

u+1fa8:
GREEK CAPITAL LETTER OMEGA WITH PSILI AND PROSGEGRAMMENI:
    @@.@@.
    .@@..@
    @.@..@
    ..@..@
    ..@..@
    ...@@.
    ..@@@@
    ......
    ...@..
    ......
    ......

u+1fa9:
GREEK CAPITAL LETTER OMEGA WITH DASIA AND PROSGEGRAMMENI:
    @@.@@.
    @.@..@
    .@@..@
    ..@..@
    ..@..@
    ...@@.
    ..@@@@
    ......
    ...@..
    ......
    ......

u+1faa:
GREEK CAPITAL LETTER OMEGA WITH PSILI AND VARIA AND PROSGEGRAMMENI:
    @@.@@.
    .@@..@
    @.@..@
    @.@..@
    .@@..@
    ...@@.
    ..@@@@
    ......
    ...@..
    ......
    ......

u+1fab:
GREEK CAPITAL LETTER OMEGA WITH DASIA AND VARIA AND PROSGEGRAMMENI:
    @@.@@.
    @.@..@
    .@@..@
    @.@..@
    .@@..@
    ...@@.
    ..@@@@
    ......
    ...@..
    ......
    ......

u+1fac:
GREEK CAPITAL LETTER OMEGA WITH PSILI AND OXIA AND PROSGEGRAMMENI:
    @@.@@.
    .@@..@
    @.@..@
    .@@..@
    @.@..@
    ...@@.
    ..@@@@
    ......
    ...@..
    ......
    ......

u+1fad:
GREEK CAPITAL LETTER OMEGA WITH DASIA AND OXIA AND PROSGEGRAMMENI:
    @@.@@.
    @.@..@
    .@@..@
    .@@..@
    @.@..@
    ...@@.
    ..@@@@
    ......
    ...@..
    ......
    ......

u+1fae:
GREEK CAPITAL LETTER OMEGA WITH PSILI AND PERISPOMENI AND PROSGEGRAMMENI:
    @@.@@.
    ..@..@
    @@@..@
    .@@..@
    @.@..@
    ...@@.
    ..@@@@
    ......
    ...@..
    ......
    ......

u+1faf:
GREEK CAPITAL LETTER OMEGA WITH DASIA AND PERISPOMENI AND PROSGEGRAMMENI:
    @@.@@.
    ..@..@
    @@@..@
    @.@..@
    .@@..@
    ...@@.
    ..@@@@
    ......
    ...@..
    ......
    ......

u+1fb0:
GREEK SMALL LETTER ALPHA WITH VRACHY:
    ......
    ......
    @...@.
    .@@@..
    ......
    .@@@..
    @...@.
    @...@.
    @..@@.
    .@@.@.
    ......

u+1fb1:
GREEK SMALL LETTER ALPHA WITH MACRON:
    ......
    ......
    @@@@@.
    ......
    .@@@..
    @...@.
    @...@.
    @..@@.
    .@@.@.
    ......
    ......

u+1fb2:
GREEK SMALL LETTER ALPHA WITH VARIA AND YPOGEGRAMMENI:
    .@....
    ..@...
    ......
    .@@@..
    @...@.
    @...@.
    @..@@.
    .@@.@.
    ......
    ..@...
    ......

u+1fb3:
GREEK SMALL LETTER ALPHA WITH YPOGEGRAMMENI:
    .@@@..
    @...@.
    @...@.
    @..@@.
    .@@.@.
    ......
    ..@...
    ......
    ......
    ......
    ......

u+1fb4:
GREEK SMALL LETTER ALPHA WITH OXIA AND YPOGEGRAMMENI:
    ...@..
    ..@...
    ......
    .@@@..
    @...@.
    @...@.
    @..@@.
    .@@.@.
    ......
    ..@...
    ......

u+1fb6:
GREEK SMALL LETTER ALPHA WITH PERISPOMENI:
    ......
    ......
    .@@@@.
    ......
    .@@@..
    @...@.
    @...@.
    @..@@.
    .@@.@.
    ......
    ......

u+1fb7:
GREEK SMALL LETTER ALPHA WITH PERISPOMENI AND YPOGEGRAMMENI:
    .@@@@.
    ......
    .@@@..
    @...@.
    @...@.
    @..@@.
    .@@.@.
    ......
    ..@...
    ......
    ......

u+1fb8:
GREEK CAPITAL LETTER ALPHA WITH VRACHY:
    ......
    ......
    @...@.
    .@@@..
    .@@@..
    @...@.
    @...@.
    @@@@@.
    @...@.
    @...@.
    ......

u+1fb9:
GREEK CAPITAL LETTER ALPHA WITH MACRON:
    ......
    ......
    @@@@@.
    ......
    .@@@..
    @...@.
    @...@.
    @@@@@.
    @...@.
    @...@.
    ......

u+1fba:
GREEK CAPITAL LETTER ALPHA WITH VARIA:
    ......
    ......
    @..@@.
    .@@..@
    ..@..@
    ..@..@
    ..@@@@
    ..@..@
    ..@..@
    ......
    ......

u+1fbb:
GREEK CAPITAL LETTER ALPHA WITH OXIA:
    ......
    ......
    .@.@@.
    @.@..@
    ..@..@
    ..@..@
    ..@@@@
    ..@..@
    ..@..@
    ......
    ......

u+1fbc:
GREEK CAPITAL LETTER ALPHA WITH PROSGEGRAMMENI:
    ..@...
    .@.@..
    @...@.
    @...@.
    @@@@@.
    @...@.
    @...@.
    ..@...
    ..@@..
    ......
    ......

u+1fbd:
GREEK KORONIS:
    ......
    ......
    ......
    ......
    ......
    ......
    ..@@..
    ...@..
    ..@...
    ......
    ......

u+1fbe:
GREEK PROSGEGRAMMENI:
    ......
    ......
    ..@...
    ..@...
    ...@..
    ......
    ......
    ......
    ......
    ......
    ......

u+1fbf:
GREEK PSILI:
    ......
    ......
    ......
    ......
    ......
    ......
    ..@@..
    ...@..
    ..@...
    ......
    ......

u+1fc0:
GREEK PERISPOMENI:
    ......
    ......
    ......
    ......
    ......
    ......
    ......
    ......
    .@@@@.
    ......
    ......

u+1fc1:
GREEK DIALYTIKA AND PERISPOMENI:
    ......
    ......
    ......
    ......
    ......
    ......
    @@@@@.
    ......
    @...@.
    ......
    ......

u+1fc2:
GREEK SMALL LETTER ETA WITH VARIA AND YPOGEGRAMMENI:
    .@....
    ..@...
    ......
    @.@@..
    @@..@.
    @...@.
    @...@.
    @...@.
    ....@.
    @...@.
    ......

u+1fc3:
GREEK SMALL LETTER ETA WITH YPOGEGRAMMENI:
    @.@@..
    @@..@.
    @...@.
    @...@.
    @...@.
    ....@.
    @...@.
    ......
    ......
    ......
    ......

u+1fc4:
GREEK SMALL LETTER ETA WITH OXIA AND YPOGEGRAMMENI:
    ...@..
    ..@...
    ......
    @.@@..
    @@..@.
    @...@.
    @...@.
    @...@.
    ....@.
    @...@.
    ......

u+1fc6:
GREEK SMALL LETTER ETA WITH PERISPOMENI:
    .@@@@.
    ......
    @.@@..
    @@..@.
    @...@.
    @...@.
    @...@.
    ....@.
    ....@.
    ......
    ......

u+1fc7:
GREEK SMALL LETTER ETA WITH PERISPOMENI AND YPOGEGRAMMENI:
    .@@@@.
    ......
    @.@@..
    @@..@.
    @...@.
    @...@.
    @...@.
    ....@.
    @...@.
    ......
    ......

u+1fc8:
GREEK CAPITAL LETTER EPSILON WITH VARIA:
    ......
    ......
    @.@@@@
    .@@...
    ..@...
    ..@@@.
    ..@...
    ..@...
    ..@@@@
    ......
    ......

u+1fc9:
GREEK CAPITAL LETTER EPSILON WITH OXIA:
    ......
    ......
    .@@@@@
    @.@...
    ..@...
    ..@@@.
    ..@...
    ..@...
    ..@@@@
    ......
    ......

u+1fca:
GREEK CAPITAL LETTER ETA WITH VARIA:
    ......
    ......
    @.@..@
    .@@..@
    ..@..@
    ..@@@@
    ..@..@
    ..@..@
    ..@..@
    ......
    ......

u+1fcb:
GREEK CAPITAL LETTER ETA WITH OXIA:
    ......
    ......
    .@@..@
    @.@..@
    ..@..@
    ..@@@@
    ..@..@
    ..@..@
    ..@..@
    ......
    ......

u+1fcc:
GREEK CAPITAL LETTER ETA WITH PROSGEGRAMMENI:
    @...@.
    @...@.
    @...@.
    @@@@@.
    @...@.
    @...@.
    @...@.
    ..@...
    ..@@..
    ......
    ......

u+1fcd:
GREEK PSILI AND VARIA:
    ......
    ......
    ......
    ......
    ......
    ......
    .@@@..
    ..@.@.
    .@....
    ......
    ......

u+1fce:
GREEK PSILI AND OXIA:
    ......
    ......
    ......
    ......
    ......
    ......
    .@@.@.
    ..@@..
    .@....
    ......
    ......

u+1fcf:
GREEK PSILI AND PERISPOMENI:
    ......
    ......
    ......
    ......
    ......
    ......
    .@@@@.
    ...@..
    ..@...
    ......
    ......

u+1fd0:
GREEK SMALL LETTER IOTA WITH VRACHY:
    ......
    ......
    @...@.
    .@@@..
    ......
    ..@...
    ..@...
    ..@...
    ..@.@.
    ...@..
    ......

u+1fd1:
GREEK SMALL LETTER IOTA WITH MACRON:
    ......
    ......
    @@@@@.
    ......
    ..@...
    ..@...
    ..@...
    ..@.@.
    ...@..
    ......
    ......

u+1fd2:
GREEK SMALL LETTER IOTA WITH DIALYTIKA AND VARIA:
    ......
    ......
    .@....
    @.@.@.
    ......
    ..@...
    ..@...
    ..@...
    ..@.@.
    ...@..
    ......

u+1fd3:
GREEK SMALL LETTER IOTA WITH DIALYTIKA AND OXIA:
    ......
    ......
    ...@..
    @.@.@.
    ......
    ..@...
    ..@...
    ..@...
    ..@.@.
    ...@..
    ......

u+1fd6:
GREEK SMALL LETTER IOTA WITH PERISPOMENI:
    ......
    ......
    .@@@@.
    ......
    ..@...
    ..@...
    ..@...
    ..@.@.
    ...@..
    ......
    ......

u+1fd7:
GREEK SMALL LETTER IOTA WITH DIALYTIKA AND PERISPOMENI:
    ......
    ......
    @@@@@.
    ......
    @...@.
    ..@...
    ..@...
    ..@...
    ..@.@.
    ...@..
    ......

u+1fd8:
GREEK CAPITAL LETTER IOTA WITH VRACHY:
    ......
    ......
    @...@.
    .@@@..
    .@@@..
    ..@...
    ..@...
    ..@...
    ..@...
    .@@@..
    ......

u+1fd9:
GREEK CAPITAL LETTER IOTA WITH MACRON:
    ......
    ......
    @@@@@.
    ......
    .@@@..
    ..@...
    ..@...
    ..@...
    ..@...
    .@@@..
    ......

u+1fda:
GREEK CAPITAL LETTER IOTA WITH VARIA:
    ......
    ......
    @..@@@
    .@..@.
    ....@.
    ....@.
    ....@.
    ....@.
    ...@@@
    ......
    ......

u+1fdb:
GREEK CAPITAL LETTER IOTA WITH OXIA:
    ......
    ......
    .@.@@@
    @...@.
    ....@.
    ....@.
    ....@.
    ....@.
    ...@@@
    ......
    ......

u+1fdd:
GREEK DASIA AND VARIA:
    ......
    ......
    ......
    ......
    ......
    ......
    .@@.@.
    ..@@..
    .@....
    ......
    ......

u+1fde:
GREEK DASIA AND OXIA:
    ......
    ......
    ......
    ......
    ......
    ......
    .@@.@.
    .@.@..
    ..@...
    ......
    ......

u+1fdf:
GREEK DASIA AND PERISPOMENI:
    ......
    ......
    ......
    ......
    ......
    ......
    .@@@@.
    ..@...
    ...@..
    ......
    ......

u+1fe0:
GREEK SMALL LETTER UPSILON WITH VRACHY:
    ......
    ......
    @...@.
    .@@@..
    ......
    @...@.
    @...@.
    @...@.
    @...@.
    .@@@..
    ......

u+1fe1:
GREEK SMALL LETTER UPSILON WITH MACRON:
    ......
    ......
    @@@@@.
    ......
    @...@.
    @...@.
    @...@.
    @...@.
    .@@@..
    ......
    ......

u+1fe2:
GREEK SMALL LETTER UPSILON WITH DIALYTIKA AND VARIA:
    ......
    ......
    .@....
    @.@.@.
    ......
    @...@.
    @...@.
    @...@.
    @...@.
    .@@@..
    ......

u+1fe3:
GREEK SMALL LETTER UPSILON WITH DIALYTIKA AND OXIA:
    ......
    ......
    ...@..
    @.@.@.
    ......
    @...@.
    @...@.
    @...@.
    @...@.
    .@@@..
    ......

u+1fe4:
GREEK SMALL LETTER RHO WITH PSILI:
    ..@@..
    ...@..
    ..@...
    .@@@..
    @...@.
    @...@.
    @...@.
    @@@@..
    @.....
    @.....
    ......

u+1fe5:
GREEK SMALL LETTER RHO WITH DASIA:
    ..@@..
    ..@...
    ...@..
    .@@@..
    @...@.
    @...@.
    @...@.
    @@@@..
    @.....
    @.....
    ......

u+1fe6:
GREEK SMALL LETTER UPSILON WITH PERISPOMENI:
    ......
    ......
    .@@@@.
    ......
    @...@.
    @...@.
    @...@.
    @...@.
    .@@@..
    ......
    ......

u+1fe7:
GREEK SMALL LETTER UPSILON WITH DIALYTIKA AND PERISPOMENI:
    ......
    ......
    @@@@@.
    ......
    @...@.
    ......
    @...@.
    @...@.
    @...@.
    .@@@..
    ......

u+1fe8:
GREEK CAPITAL LETTER UPSILON WITH VRACHY:
    ......
    ......
    @...@.
    .@@@..
    @...@.
    @...@.
    .@.@..
    ..@...
    ..@...
    ..@...
    ......

u+1fe9:
GREEK CAPITAL LETTER UPSILON WITH MACRON:
    ......
    ......
    @@@@@.
    ......
    @...@.
    @...@.
    .@.@..
    ..@...
    ..@...
    ..@...
    ......

u+1fea:
GREEK CAPITAL LETTER UPSILON WITH VARIA:
    ......
    ......
    @..@.@
    .@.@.@
    ...@.@
    ....@.
    ....@.
    ....@.
    ....@.
    ......
    ......

u+1feb:
GREEK CAPITAL LETTER UPSILON WITH OXIA:
    ......
    ......
    .@.@.@
    @..@.@
    ...@.@
    ....@.
    ....@.
    ....@.
    ....@.
    ......
    ......

u+1fec:
GREEK CAPITAL LETTER RHO WITH DASIA:
    ......
    ......
    @@@@@.
    @.@..@
    .@@..@
    ..@@@.
    ..@...
    ..@...
    ..@...
    ......
    ......

u+1fed:
GREEK DIALYTIKA AND VARIA:
    ......
    ......
    ......
    ......
    ......
    ......
    ......
    .@....
    @.@.@.
    ......
    ......

u+1fee:
GREEK DIALYTIKA AND OXIA:
    ......
    ......
    ......
    ......
    ......
    ......
    ......
    ...@..
    @.@.@.
    ......
    ......

u+1fef:
GREEK VARIA:
    ......
    ......
    ......
    ......
    ......
    ......
    ......
    ..@...
    ...@..
    ......
    ......

u+1ff2:
GREEK SMALL LETTER OMEGA WITH VARIA AND YPOGEGRAMMENI:
    .@....
    ..@...
    ......
    @...@.
    @.@.@.
    @.@.@.
    @.@.@.
    .@.@..
    ......
    ..@...
    ......

u+1ff3:
GREEK SMALL LETTER OMEGA WITH YPOGEGRAMMENI:
    @...@.
    @.@.@.
    @.@.@.
    @.@.@.
    .@.@..
    ......
    ..@...
    ......
    ......
    ......
    ......

u+1ff4:
GREEK SMALL LETTER OMEGA WITH OXIA AND YPOGEGRAMMENI:
    ...@..
    ..@...
    ......
    @...@.
    @.@.@.
    @.@.@.
    @.@.@.
    .@.@..
    ......
    ..@...
    ......

u+1ff6:
GREEK SMALL LETTER OMEGA WITH PERISPOMENI:
    ......
    ......
    .@@@@.
    ......
    @...@.
    @.@.@.
    @.@.@.
    @.@.@.
    .@.@..
    ......
    ......

u+1ff7:
GREEK SMALL LETTER OMEGA WITH PERISPOMENI AND YPOGEGRAMMENI:
    .@@@@.
    ......
    @...@.
    @.@.@.
    @.@.@.
    @.@.@.
    .@.@..
    ......
    ..@...
    ......
    ......

u+1ff8:
GREEK CAPITAL LETTER OMICRON WITH VARIA:
    ......
    ......
    @..@@.
    .@@..@
    ..@..@
    ..@..@
    ..@..@
    ..@..@
    ...@@.
    ......
    ......

u+1ff9:
GREEK CAPITAL LETTER OMICRON WITH OXIA:
    ......
    ......
    .@.@@.
    @.@..@
    ..@..@
    ..@..@
    ..@..@
    ..@..@
    ...@@.
    ......
    ......

u+1ffa:
GREEK CAPITAL LETTER OMEGA WITH VARIA:
    ......
    ......
    @..@@.
    .@@..@
    ..@..@
    ..@..@
    ..@..@
    ...@@.
    ..@@@@
    ......
    ......

u+1ffb:
GREEK CAPITAL LETTER OMEGA WITH OXIA:
    ......
    ......
    .@.@@.
    @.@..@
    ..@..@
    ..@..@
    ..@..@
    ...@@.
    ..@@@@
    ......
    ......

u+1ffc:
GREEK CAPITAL LETTER OMEGA WITH PROSGEGRAMMENI:
    .@@@..
    @...@.
    @...@.
    @...@.
    @...@.
    .@.@..
    @@.@@.
    ..@...
    ..@@..
    ......
    ......

u+1ffd:
GREEK OXIA:
    ......
    ......
    ......
    ......
    ......
    ......
    ......
    ...@..
    ..@...
    ......
    ......

u+1ffe:
GREEK DASIA:
    ......
    ......
    ......
    ......
    ......
    ......
    ..@@..
    ..@...
    ...@..
    ......
    ......

u+2010:
HYPHEN:
    ......
    ......
    ......
    ......
    ......
    .@@@@.
    ......
    ......
    ......
    ......
    ......

u+2011:
NON-BREAKING HYPHEN:
    ......
    ......
    ......
    ......
    ......
    .@@@@.
    ......
    ......
    ......
    ......
    ......

u+2012:
FIGURE DASH:
    ......
    ......
    ......
    ......
    ......
    @@@@@.
    ......
    ......
    ......
    ......
    ......

u+2013:
EN DASH:
    ......
    ......
    ......
    ......
    ......
    @@@@@.
    ......
    ......
    ......
    ......
    ......

u+2014:
EM DASH:
    ......
    ......
    ......
    ......
    ......
    @@@@@@
    ......
    ......
    ......
    ......
    ......

u+2015:
HORIZONTAL BAR:
    ......
    ......
    ......
    ......
    ......
    @@@@@@
    ......
    ......
    ......
    ......
    ......

u+2016:
DOUBLE VERTICAL LINE:
    ......
    ......
    .@.@..
    .@.@..
    .@.@..
    .@.@..
    .@.@..
    .@.@..
    .@.@..
    .@.@..
    ......

u+2017:
DOUBLE LOW LINE:
    @@@@@@
    ......
    @@@@@@
    ......
    ......
    ......
    ......
    ......
    ......
    ......
    ......

u+2018:
LEFT SINGLE QUOTATION MARK:
    ......
    ......
    ......
    ......
    ......
    ......
    ...@..
    ..@...
    ..@@..
    ......
    ......

u+2019:
RIGHT SINGLE QUOTATION MARK:
    ......
    ......
    ......
    ......
    ......
    ......
    ..@@..
    ...@..
    ..@...
    ......
    ......

u+201a:
SINGLE LOW-9 QUOTATION MARK:
    ......
    ..@@..
    ...@..
    ..@...
    ......
    ......
    ......
    ......
    ......
    ......
    ......

u+201b:
SINGLE HIGH-REVERSED-9 QUOTATION MARK:
    ......
    ......
    ......
    ......
    ......
    ......
    ..@@..
    ..@...
    ...@..
    ......
    ......

u+201c:
LEFT DOUBLE QUOTATION MARK:
    ......
    ......
    ......
    ......
    ......
    ......
    .@..@.
    @..@..
    @@.@@.
    ......
    ......

u+201d:
RIGHT DOUBLE QUOTATION MARK:
    ......
    ......
    ......
    ......
    ......
    ......
    @@.@@.
    .@..@.
    @..@..
    ......
    ......

u+201e:
DOUBLE LOW-9 QUOTATION MARK:
    ......
    @@.@@.
    .@..@.
    @..@..
    ......
    ......
    ......
    ......
    ......
    ......
    ......

u+201f:
DOUBLE HIGH-REVERSED-9 QUOTATION MARK:
    ......
    ......
    ......
    ......
    ......
    ......
    @@.@@.
    @..@..
    .@..@.
    ......
    ......

u+2020:
DAGGER:
    ......
    ......
    ..@...
    ..@...
    @@@@@.
    ..@...
    ..@...
    ..@...
    ..@...
    ......
    ......

u+2021:
DOUBLE DAGGER:
    ......
    ......
    ..@...
    ..@...
    @@@@@.
    ..@...
    @@@@@.
    ..@...
    ..@...
    ......
    ......

u+2022:
BULLET:
    ......
    ......
    ......
    ..@@..
    .@@@@.
    .@@@@.
    ..@@..
    ......
    ......
    ......
    ......

u+2023:
TRIANGULAR BULLET:
    ......
    ......
    ......
    ......
    ..@...
    .@@@..
    @@@@@.
    ......
    ......
    ......
    ......

u+2024:
ONE DOT LEADER:
    ......
    ......
    ..@...
    ......
    ......
    ......
    ......
    ......
    ......
    ......
    ......

u+2025:
TWO DOT LEADER:
    ......
    ......
    @...@.
    ......
    ......
    ......
    ......
    ......
    ......
    ......
    ......

u+2026:
HORIZONTAL ELLIPSIS:
    ......
    ......
    @.@.@.
    ......
    ......
    ......
    ......
    ......
    ......
    ......
    ......

u+2027:
HYPHENATION POINT:
    ......
    ......
    ......
    ......
    ......
    ..@@..
    ......
    ......
    ......
    ......
    ......

u+2030:
PER MILLE SIGN:
    ......
    ......
    .@..@.
    @.@.@.
    .@.@..
    ..@...
    .@@.@.
    @@.@.@
    @.@.@.
    ......
    ......

u+2032:
PRIME:
    ......
    ......
    ......
    ......
    ......
    ......
    ......
    ...@..
    ...@..
    ..@...
    ......

u+2033:
DOUBLE PRIME:
    ......
    ......
    ......
    ......
    ......
    ......
    ......
    ..@.@.
    ..@.@.
    .@.@..
    ......

u+2034:
TRIPLE PRIME:
    ......
    ......
    ......
    ......
    ......
    ......
    ......
    .@.@.@
    .@.@.@
    @.@.@.
    ......

u+2035:
REVERSED PRIME:
    ......
    ......
    ......
    ......
    ......
    ......
    ......
    ..@...
    ..@...
    ...@..
    ......

u+2036:
REVERSED DOUBLE PRIME:
    ......
    ......
    ......
    ......
    ......
    ......
    ......
    .@.@..
    .@.@..
    ..@.@.
    ......

u+2037:
REVERSED TRIPLE PRIME:
    ......
    ......
    ......
    ......
    ......
    ......
    ......
    @.@.@.
    @.@.@.
    .@.@.@
    ......

u+2039:
SINGLE LEFT-POINTING ANGLE QUOTATION MARK:
    ......
    ......
    ...@..
    ..@...
    .@....
    ..@...
    ...@..
    ......
    ......
    ......
    ......

u+203a:
SINGLE RIGHT-POINTING ANGLE QUOTATION MARK:
    ......
    ......
    .@....
    ..@...
    ...@..
    ..@...
    .@....
    ......
    ......
    ......
    ......

u+203c:
DOUBLE EXCLAMATION MARK:
    ......
    ......
    .@.@..
    .@.@..
    .@.@..
    .@.@..
    .@.@..
    ......
    .@.@..
    ......
    ......

u+203e:
OVERLINE:
    ......
    ......
    ......
    ......
    ......
    ......
    ......
    ......
    ......
    @@@@@@
    ......

u+2044:
FRACTION SLASH:
    ......
    ......
    ....@.
    ....@.
    ...@..
    ..@...
    .@....
    @.....
    @.....
    ......
    ......

u+2070:
SUPERSCRIPT ZERO:
    ......
    ......
    ......
    ......
    ......
    ..@@..
    .@..@.
    .@..@.
    .@..@.
    ..@@..
    ......

u+2071:
SUPERSCRIPT LATIN SMALL LETTER I:
    ......
    ......
    ......
    ......
    ......
    ..@...
    ......
    .@@...
    ..@...
    .@@@..
    ......

u+2074:
SUPERSCRIPT FOUR:
    ......
    ......
    ......
    ......
    ......
    ...@..
    ..@@..
    .@.@..
    .@@@@.
    ...@..
    ......

u+2075:
SUPERSCRIPT FIVE:
    ......
    ......
    ......
    ......
    ......
    .@@@@.
    .@....
    .@@@..
    ....@.
    .@@@..
    ......

u+2076:
SUPERSCRIPT SIX:
    ......
    ......
    ......
    ......
    ......
    ..@@@.
    .@....
    .@@@..
    .@..@.
    ..@@..
    ......

u+2077:
SUPERSCRIPT SEVEN:
    ......
    ......
    ......
    ......
    ......
    .@@@@.
    ....@.
    ...@..
    ..@...
    ..@...
    ......

u+2078:
SUPERSCRIPT EIGHT:
    ......
    ......
    ......
    ......
    ......
    ..@@..
    .@..@.
    ..@@..
    .@..@.
    ..@@..
    ......

u+2079:
SUPERSCRIPT NINE:
    ......
    ......
    ......
    ......
    ......
    ..@@..
    .@..@.
    ..@@@.
    ....@.
    ..@@..
    ......

u+207a:
SUPERSCRIPT PLUS SIGN:
    ......
    ......
    ......
    ......
    ......
    ......
    ..@...
    .@@@..
    ..@...
    ......
    ......

u+207b:
SUPERSCRIPT MINUS:
    ......
    ......
    ......
    ......
    ......
    ......
    ......
    .@@@..
    ......
    ......
    ......

u+207c:
SUPERSCRIPT EQUALS SIGN:
    ......
    ......
    ......
    ......
    ......
    ......
    .@@@@.
    ......
    .@@@@.
    ......
    ......

u+207d:
SUPERSCRIPT LEFT PARENTHESIS:
    ......
    ......
    ......
    ......
    ......
    ...@..
    ..@...
    ..@...
    ..@...
    ...@..
    ......

u+207e:
SUPERSCRIPT RIGHT PARENTHESIS:
    ......
    ......
    ......
    ......
    ......
    ..@...
    ...@..
    ...@..
    ...@..
    ..@...
    ......

u+207f:
SUPERSCRIPT LATIN SMALL LETTER N:
    ......
    ......
    ......
    ......
    ......
    .@.@..
    .@@.@.
    .@..@.
    .@..@.
    ......
    ......

u+2080:
SUBSCRIPT ZERO:
    ..@@..
    .@..@.
    .@..@.
    .@..@.
    ..@@..
    ......
    ......
    ......
    ......
    ......
    ......

u+2081:
SUBSCRIPT ONE:
    ..@...
    .@@...
    ..@...
    ..@...
    .@@@..
    ......
    ......
    ......
    ......
    ......
    ......

u+2082:
SUBSCRIPT TWO:
    ..@@..
    .@..@.
    ...@..
    ..@...
    .@@@@.
    ......
    ......
    ......
    ......
    ......
    ......

u+2083:
SUBSCRIPT THREE:
    .@@@..
    ....@.
    ..@@..
    ....@.
    .@@@..
    ......
    ......
    ......
    ......
    ......
    ......

u+2084:
SUBSCRIPT FOUR:
    ...@..
    ..@@..
    .@.@..
    .@@@@.
    ...@..
    ......
    ......
    ......
    ......
    ......
    ......

u+2085:
SUBSCRIPT FIVE:
    .@@@@.
    .@....
    .@@@..
    ....@.
    .@@@..
    ......
    ......
    ......
    ......
    ......
    ......

u+2086:
SUBSCRIPT SIX:
    ..@@@.
    .@....
    .@@@..
    .@..@.
    ..@@..
    ......
    ......
    ......
    ......
    ......
    ......

u+2087:
SUBSCRIPT SEVEN:
    .@@@@.
    ....@.
    ...@..
    ..@...
    ..@...
    ......
    ......
    ......
    ......
    ......
    ......

u+2088:
SUBSCRIPT EIGHT:
    ..@@..
    .@..@.
    ..@@..
    .@..@.
    ..@@..
    ......
    ......
    ......
    ......
    ......
    ......

u+2089:
SUBSCRIPT NINE:
    ..@@..
    .@..@.
    ..@@@.
    ....@.
    ..@@..
    ......
    ......
    ......
    ......
    ......
    ......

u+208a:
SUBSCRIPT PLUS SIGN:
    ......
    ..@...
    .@@@..
    ..@...
    ......
    ......
    ......
    ......
    ......
    ......
    ......

u+208b:
SUBSCRIPT MINUS:
    ......
    ......
    .@@@..
    ......
    ......
    ......
    ......
    ......
    ......
    ......
    ......

u+208c:
SUBSCRIPT EQUALS SIGN:
    ......
    .@@@@.
    ......
    .@@@@.
    ......
    ......
    ......
    ......
    ......
    ......
    ......

u+208d:
SUBSCRIPT LEFT PARENTHESIS:
    ...@..
    ..@...
    ..@...
    ..@...
    ...@..
    ......
    ......
    ......
    ......
    ......
    ......

u+208e:
SUBSCRIPT RIGHT PARENTHESIS:
    ..@...
    ...@..
    ...@..
    ...@..
    ..@...
    ......
    ......
    ......
    ......
    ......
    ......

u+20a3:
FRENCH FRANC SIGN:
    ......
    ......
    @@@@@.
    @.....
    @.....
    @@@.@.
    @.@@..
    @.@...
    @.@...
    ......
    ......

u+20a4:
LIRA SIGN:
    ......
    ......
    ..@@..
    .@..@.
    @@@...
    .@....
    @@@...
    .@..@.
    @.@@..
    ......
    ......

u+20a7:
PESETA SIGN:
    ......
    ......
    .@@@..
    .@..@.
    @@@@@@
    .@..@.
    .@@@..
    .@....
    .@....
    ......
    ......

u+20ab:
DONG SIGN:
    ....@.
    ..@@@@
    .@@.@.
    @..@@.
    @...@.
    @..@@.
    .@@.@.
    ......
    @@@@@.
    ......
    ......

u+20ac:
EURO SIGN:
    ......
    ......
    ..@@..
    .@..@.
    @@@...
    .@....
    @@@...
    .@..@.
    ..@@..
    ......
    ......

u+20af:
DRACHMA SIGN:
    ......
    ......
    .@....
    .@@@..
    @@..@.
    .@..@.
    .@..@.
    @@@.@.
    @@.@..
    ......
    ......

u+20d0:
COMBINING LEFT HARPOON ABOVE:
    ......
    ......
    ......
    ......
    ......
    ......
    ......
    ......
    .@....
    @@@@@.
    ......

u+20d1:
COMBINING RIGHT HARPOON ABOVE:
    ......
    ......
    ......
    ......
    ......
    ......
    ......
    ......
    ...@..
    @@@@@.
    ......

u+20d2:
COMBINING LONG VERTICAL LINE OVERLAY:
    ..@...
    ..@...
    ..@...
    ..@...
    ..@...
    ..@...
    ..@...
    ..@...
    ..@...
    ..@...
    ..@...

u+20d3:
COMBINING SHORT VERTICAL LINE OVERLAY:
    ......
    ......
    ..@...
    ..@...
    ..@...
    ..@...
    ..@...
    ..@...
    ......
    ......
    ......

u+20d4:
COMBINING ANTICLOCKWISE ARROW ABOVE:
    ......
    ......
    ......
    ......
    ......
    ......
    ......
    @.@@..
    @@..@.
    @@@...
    ......

u+20d5:
COMBINING CLOCKWISE ARROW ABOVE:
    ......
    ......
    ......
    ......
    ......
    ......
    ......
    .@@.@.
    @..@@.
    ..@@@.
    ......

u+20d6:
COMBINING LEFT ARROW ABOVE:
    ......
    ......
    ......
    ......
    ......
    ......
    ......
    .@....
    @@@@@.
    .@....
    ......

u+20d7:
COMBINING RIGHT ARROW ABOVE:
    ......
    ......
    ......
    ......
    ......
    ......
    ......
    ...@..
    @@@@@.
    ...@..
    ......

u+2102:
DOUBLE-STRUCK CAPITAL C:
    ......
    ......
    .@@@..
    @.@.@.
    @.@...
    @.@...
    @.@...
    @.@.@.
    .@@@..
    ......
    ......

u+2105:
CARE OF:
    ......
    .@@...
    @.....
    @.....
    .@@...
    ......
    ..@@..
    .@..@.
    .@..@.
    ..@@..
    ......

u+2113:
SCRIPT SMALL L:
    ......
    ......
    ...@..
    ..@.@.
    ..@.@.
    ..@.@.
    ..@@..
    ..@...
    .@.@@.
    ......
    ......

u+2115:
DOUBLE-STRUCK CAPITAL N:
    ......
    ......
    @...@.
    @@..@.
    @@..@.
    @@@.@.
    @@.@@.
    @@.@@.
    @@..@.
    ......
    ......

u+2116:
NUMERO SIGN:
    ......
    ......
    @..@..
    @..@..
    @@.@@.
    @.@@.@
    @..@.@
    @..@@.
    @..@@@
    ......
    ......

u+211a:
DOUBLE-STRUCK CAPITAL Q:
    ......
    .@@@..
    @.@.@.
    @.@.@.
    @.@.@.
    @.@.@.
    @.@.@.
    .@@@..
    ...@@.
    ......
    ......

u+211d:
DOUBLE-STRUCK CAPITAL R:
    ......
    ......
    @@@@..
    @.@.@.
    @.@.@.
    @.@@..
    @.@.@.
    @.@.@.
    @.@.@.
    ......
    ......

u+2122:
TRADE MARK SIGN:
    ......
    ......
    ......
    ......
    ......
    ......
    @@@@@@
    .@.@@@
    .@.@.@
    .@.@.@
    ......

u+2124:
DOUBLE-STRUCK CAPITAL Z:
    ......
    ......
    @@@@@.
    ..@.@.
    ..@.@.
    .@.@..
    @.@...
    @.@...
    @@@@@.
    ......
    ......

u+2126:
OHM SIGN:
    ......
    ......
    .@@@..
    @...@.
    @...@.
    @...@.
    @...@.
    .@.@..
    @@.@@.
    ......
    ......

u+2127:
INVERTED OHM SIGN:
    ......
    ......
    @@.@@.
    .@.@..
    @...@.
    @...@.
    @...@.
    @...@.
    .@@@..
    ......
    ......

u+212e:
ESTIMATED SYMBOL:
    ......
    ......
    .@@@..
    @@.@@.
    @@@@@.
    @@....
    .@@@..
    ......
    ......
    ......
    ......

u+215b:
VULGAR FRACTION ONE EIGHTH:
    .@....
    @@....
    .@....
    .@....
    @@@...
    ....@.
    ...@.@
    ....@.
    ...@.@
    ....@.
    ......

u+215c:
VULGAR FRACTION THREE EIGHTHS:
    @@....
    ..@...
    .@....
    ..@...
    @@....
    ...@..
    ..@.@.
    ...@..
    ..@.@.
    ...@..
    ......

u+215d:
VULGAR FRACTION FIVE EIGHTHS:
    @@@...
    @.....
    @@....
    ..@...
    @@....
    ...@..
    ..@.@.
    ...@..
    ..@.@.
    ...@..
    ......

u+215e:
VULGAR FRACTION SEVEN EIGHTHS:
    @@@...
    ..@...
    ..@...
    .@....
    .@....
    ...@..
    ..@.@.
    ...@..
    ..@.@.
    ...@..
    ......

u+2190:
LEFTWARDS ARROW:
    ......
    ......
    ..@...
    .@....
    @@@@@@
    .@....
    ..@...
    ......
    ......
    ......
    ......

u+2191:
UPWARDS ARROW:
    ......
    ......
    ..@...
    .@@@..
    @.@.@.
    ..@...
    ..@...
    ..@...
    ..@...
    ......
    ......

u+2192:
RIGHTWARDS ARROW:
    ......
    ......
    ...@..
    ....@.
    @@@@@@
    ....@.
    ...@..
    ......
    ......
    ......
    ......

u+2193:
DOWNWARDS ARROW:
    ......
    ......
    ..@...
    ..@...
    ..@...
    ..@...
    @.@.@.
    .@@@..
    ..@...
    ......
    ......

u+2194:
LEFT RIGHT ARROW:
    ......
    ......
    ......
    .@..@.
    @@@@@@
    .@..@.
    ......
    ......
    ......
    ......
    ......

u+2195:
UP DOWN ARROW:
    ......
    ..@...
    .@@@..
    @.@.@.
    ..@...
    ..@...
    @.@.@.
    .@@@..
    ..@...
    ......
    ......

u+2196:
NORTH WEST ARROW:
    ......
    ......
    ......
    @@@@..
    @@....
    @.@...
    @..@..
    ....@.
    ......
    ......
    ......

u+2197:
NORTH EAST ARROW:
    ......
    ......
    ......
    .@@@@.
    ...@@.
    ..@.@.
    .@..@.
    @.....
    ......
    ......
    ......

u+2198:
SOUTH EAST ARROW:
    ......
    ......
    ......
    @.....
    .@..@.
    ..@.@.
    ...@@.
    .@@@@.
    ......
    ......
    ......

u+2199:
SOUTH WEST ARROW:
    ......
    ......
    ......
    ....@.
    @..@..
    @.@...
    @@....
    @@@@..
    ......
    ......
    ......

u+21a4:
LEFTWARDS ARROW FROM BAR:
    ......
    ......
    ..@..@
    .@...@
    @@@@@@
    .@...@
    ..@..@
    ......
    ......
    ......
    ......

u+21a5:
UPWARDS ARROW FROM BAR:
    ......
    ......
    ..@...
    .@@@..
    @.@.@.
    ..@...
    ..@...
    ..@...
    .@@@..
    ......
    ......

u+21a6:
RIGHTWARDS ARROW FROM BAR:
    ......
    ......
    ...@..
    @...@.
    @@@@@@
    @...@.
    ...@..
    ......
    ......
    ......
    ......

u+21a7:
DOWNWARDS ARROW FROM BAR:
    ......
    ......
    .@@@..
    ..@...
    ..@...
    ..@...
    @.@.@.
    .@@@..
    ..@...
    ......
    ......

u+21a8:
UP DOWN ARROW WITH BASE:
    ......
    ..@...
    .@@@..
    @.@.@.
    ..@...
    ..@...
    @.@.@.
    .@@@..
    ..@...
    @@@@@.
    ......

u+21c4:
RIGHTWARDS ARROW OVER LEFTWARDS ARROW:
    ...@..
    ....@.
    @@@@@@
    ....@.
    ..@@..
    .@....
    @@@@@@
    .@....
    ..@...
    ......
    ......

u+21c6:
LEFTWARDS ARROW OVER RIGHTWARDS ARROW:
    ..@...
    .@....
    @@@@@@
    .@....
    ..@@..
    ....@.
    @@@@@@
    ....@.
    ...@..
    ......
    ......

u+21cb:
LEFTWARDS HARPOON OVER RIGHTWARDS HARPOON:
    ......
    ..@...
    .@....
    @@@@@@
    ......
    @@@@@@
    ....@.
    ...@..
    ......
    ......
    ......

u+21cc:
RIGHTWARDS HARPOON OVER LEFTWARDS HARPOON:
    ......
    ...@..
    ....@.
    @@@@@@
    ......
    @@@@@@
    .@....
    ..@...
    ......
    ......
    ......

u+21d0:
LEFTWARDS DOUBLE ARROW:
    ......
    ......
    ...@..
    ..@...
    .@@@@@
    @.....
    .@@@@@
    ..@...
    ...@..
    ......
    ......

u+21d1:
UPWARDS DOUBLE ARROW:
    ......
    ......
    ..@...
    .@@@..
    @@.@@.
    .@.@..
    .@.@..
    .@.@..
    .@.@..
    ......
    ......

u+21d2:
RIGHTWARDS DOUBLE ARROW:
    ......
    ......
    ..@...
    ...@..
    @@@@@.
    .....@
    @@@@@.
    ...@..
    ..@...
    ......
    ......

u+21d3:
DOWNWARDS DOUBLE ARROW:
    ......
    ......
    .@.@..
    .@.@..
    .@.@..
    .@.@..
    @@.@@.
    .@@@..
    ..@...
    ......
    ......

u+21d4:
LEFT RIGHT DOUBLE ARROW:
    ......
    ......
    ......
    ......
    .@@@@.
    @....@
    .@@@@.
    ......
    ......
    ......
    ......

u+21d5:
UP DOWN DOUBLE ARROW:
    ......
    ..@...
    .@.@..
    @@.@@.
    .@.@..
    .@.@..
    @@.@@.
    .@.@..
    ..@...
    ......
    ......

u+2200:
FOR ALL:
    ......
    ......
    @...@.
    @...@.
    .@@@..
    .@.@..
    .@.@..
    ..@...
    ..@...
    ......
    ......

u+2201:
COMPLEMENT:
    ......
    ......
    ..@...
    .@.@..
    .@....
    .@....
    .@....
    .@.@..
    ..@...
    ......
    ......

u+2202:
PARTIAL DIFFERENTIAL:
    ......
    ......
    ..@@..
    ....@.
    .@@.@.
    @..@@.
    @...@.
    @...@.
    .@@@..
    ......
    ......

u+2203:
THERE EXISTS:
    ......
    ......
    @@@@@.
    ....@.
    ....@.
    .@@@@.
    ....@.
    ....@.
    @@@@@.
    ......
    ......

u+2204:
THERE DOES NOT EXIST:
    ......
    ..@...
    @@@@@.
    ..@.@.
    ..@.@.
    .@@@@.
    ..@.@.
    ..@.@.
    @@@@@.
    ..@...
    ......

u+2205:
EMPTY SET:
    ......
    ......
    ..@@.@
    .@..@.
    @..@.@
    @.@..@
    .@..@.
    @.@@..
    ......
    ......
    ......

u+2206:
INCREMENT:
    ......
    ......
    ..@...
    ..@...
    .@.@..
    .@.@..
    @...@.
    @@@@@.
    ......
    ......
    ......

u+2207:
NABLA:
    ......
    ......
    @@@@@.
    @...@.
    .@.@..
    .@.@..
    ..@...
    ..@...
    ......
    ......
    ......

u+2208:
ELEMENT OF:
    ......
    ......
    .@@@@.
    @.....
    @.....
    @@@@..
    @.....
    @.....
    .@@@@.
    ......
    ......

u+2209:
NOT AN ELEMENT OF:
    ......
    ..@...
    .@@@@.
    @.@...
    @.@...
    @@@@..
    @.@...
    @.@...
    .@@@@.
    ..@...
    ......

u+220b:
CONTAINS AS MEMBER:
    ......
    ......
    @@@@..
    ....@.
    ....@.
    .@@@@.
    ....@.
    ....@.
    @@@@..
    ......
    ......

u+220c:
DOES NOT CONTAIN AS MEMBER:
    ......
    ..@...
    @@@@..
    ..@.@.
    ..@.@.
    .@@@@.
    ..@.@.
    ..@.@.
    @@@@..
    ..@...
    ......

u+220f:
N-ARY PRODUCT:
    ......
    @@@@@.
    .@.@..
    .@.@..
    .@.@..
    .@.@..
    .@.@..
    .@.@..
    .@.@..
    .@.@..
    ......

u+2211:
N-ARY SUMMATION:
    ......
    @@@@@.
    @.....
    .@....
    ..@...
    ...@..
    ..@...
    .@....
    @.....
    @@@@@.
    ......

u+2212:
MINUS SIGN:
    ......
    ......
    ......
    ......
    ......
    @@@@@.
    ......
    ......
    ......
    ......
    ......

u+2213:
MINUS-OR-PLUS SIGN:
    ......
    ......
    @@@@@.
    ..@...
    ..@...
    @@@@@.
    ..@...
    ..@...
    ......
    ......
    ......

u+2215:
DIVISION SLASH:
    ......
    ......
    ....@.
    ....@.
    ...@..
    ..@...
    .@....
    @.....
    @.....
    ......
    ......

u+2218:
RING OPERATOR:
    ......
    ......
    ......
    ..@@..
    .@..@.
    .@..@.
    ..@@..
    ......
    ......
    ......
    ......

u+2219:
BULLET OPERATOR:
    ......
    ......
    ......
    ..@@..
    .@@@@.
    .@@@@.
    ..@@..
    ......
    ......
    ......
    ......

u+221a:
SQUARE ROOT:
    ......
    ......
    ....@@
    ...@..
    ...@..
    ..@...
    @.@...
    .@....
    ......
    ......
    ......

u+221d:
PROPORTIONAL TO:
    ......
    ......
    ......
    ..@.@.
    .@.@..
    .@.@..
    ..@.@.
    ......
    ......
    ......
    ......

u+221e:
INFINITY:
    ......
    ......
    ......
    .@.@..
    @.@.@.
    @.@.@.
    .@.@..
    ......
    ......
    ......
    ......

u+221f:
RIGHT ANGLE:
    ......
    ......
    ......
    @.....
    @.....
    @.....
    @.....
    @@@@@.
    ......
    ......
    ......

u+2221:
MEASURED ANGLE:
    ......
    .@.@..
    ..@...
    .@.@..
    @..@..
    @@@@@.
    ...@..
    ......
    ......
    ......
    ......

u+2224:
DOES NOT DIVIDE:
    ......
    ......
    ..@...
    ..@...
    ..@@..
    ..@...
    .@@...
    ..@...
    ..@...
    ......
    ......

u+2225:
PARALLEL TO:
    ......
    ......
    .@.@..
    .@.@..
    .@.@..
    .@.@..
    .@.@..
    .@.@..
    .@.@..
    ......
    ......

u+2226:
NOT PARALLEL TO:
    ......
    ......
    .@.@..
    .@.@..
    .@.@@.
    .@@@..
    @@.@..
    .@.@..
    .@.@..
    ......
    ......

u+2227:
LOGICAL AND:
    ......
    ......
    ..@...
    ..@...
    .@.@..
    .@.@..
    @...@.
    @...@.
    ......
    ......
    ......

u+2228:
LOGICAL OR:
    ......
    ......
    @...@.
    @...@.
    .@.@..
    .@.@..
    ..@...
    ..@...
    ......
    ......
    ......

u+2229:
INTERSECTION:
    ......
    ......
    .@@@..
    @...@.
    @...@.
    @...@.
    @...@.
    @...@.
    ......
    ......
    ......

u+222a:
UNION:
    ......
    ......
    @...@.
    @...@.
    @...@.
    @...@.
    @...@.
    .@@@..
    ......
    ......
    ......

u+222b:
INTEGRAL:
    ...@..
    ..@.@.
    ..@...
    ..@...
    ..@...
    ..@...
    ..@...
    ..@...
    @.@...
    .@....
    ......

u+222e:
CONTOUR INTEGRAL:
    ...@..
    ..@.@.
    ..@...
    .@@@..
    @.@.@.
    @.@.@.
    .@@@..
    ..@...
    @.@...
    .@....
    ......

u+223c:
TILDE OPERATOR:
    ......
    ......
    ......
    ......
    .@..@.
    @.@.@.
    @..@..
    ......
    ......
    ......
    ......

u+2243:
ASYMPTOTICALLY EQUAL TO:
    ......
    ......
    .@....
    @.@.@.
    ...@..
    ......
    @@@@@.
    ......
    ......
    ......
    ......

u+2245:
APPROXIMATELY EQUAL TO:
    ......
    ......
    .@....
    @.@.@.
    ...@..
    ......
    @@@@@.
    ......
    @@@@@.
    ......
    ......

u+2248:
ALMOST EQUAL TO:
    ......
    ......
    .@....
    @.@.@.
    .@.@..
    @.@.@.
    ...@..
    ......
    ......
    ......
    ......

u+2249:
NOT ALMOST EQUAL TO:
    ......
    ..@...
    .@@...
    @.@.@.
    .@@@..
    @.@.@.
    ..@@..
    ..@...
    ......
    ......
    ......

u+2259:
ESTIMATES:
    ......
    ......
    ..@...
    .@.@..
    ......
    @@@@@.
    ......
    @@@@@.
    ......
    ......
    ......

u+225f:
QUESTIONED EQUAL TO:
    ......
    .@@...
    ...@..
    ..@...
    ......
    ..@...
    ......
    @@@@@.
    ......
    @@@@@.
    ......

u+2260:
NOT EQUAL TO:
    ......
    ......
    ....@.
    ...@..
    @@@@@.
    ..@...
    @@@@@.
    .@....
    @.....
    ......
    ......

u+2261:
IDENTICAL TO:
    ......
    ......
    @@@@@.
    ......
    @@@@@.
    ......
    @@@@@.
    ......
    ......
    ......
    ......

u+2262:
NOT IDENTICAL TO:
    ......
    ....@.
    @@@@@.
    ...@..
    @@@@@.
    ..@...
    @@@@@.
    .@....
    ......
    ......
    ......

u+2264:
LESS-THAN OR EQUAL TO:
    ......
    ......
    ...@@.
    .@@...
    @.....
    .@@...
    ...@@.
    ......
    @@@@@.
    ......
    ......

u+2265:
GREATER-THAN OR EQUAL TO:
    ......
    ......
    @@....
    ..@@..
    ....@.
    ..@@..
    @@....
    ......
    @@@@@.
    ......
    ......

u+226a:
MUCH LESS-THAN:
    ......
    ......
    ..@..@
    .@..@.
    @..@..
    .@..@.
    ..@..@
    ......
    ......
    ......
    ......

u+226b:
MUCH GREATER-THAN:
    ......
    ......
    @..@..
    .@..@.
    ..@..@
    .@..@.
    @..@..
    ......
    ......
    ......
    ......

u+2282:
SUBSET OF:
    ......
    ......
    .@@@@.
    @.....
    @.....
    @.....
    .@@@@.
    ......
    ......
    ......
    ......

u+2283:
SUPERSET OF:
    ......
    ......
    @@@@..
    ....@.
    ....@.
    ....@.
    @@@@..
    ......
    ......
    ......
    ......

u+2284:
NOT A SUBSET OF:
    ......
    ..@...
    .@@@@.
    @.@...
    @.@...
    @.@...
    .@@@@.
    ..@...
    ......
    ......
    ......

u+2285:
NOT A SUPERSET OF:
    ......
    ..@...
    @@@@..
    ..@.@.
    ..@.@.
    ..@.@.
    @@@@..
    ..@...
    ......
    ......
    ......

u+2286:
SUBSET OF OR EQUAL TO:
    ......
    ......
    .@@@@.
    @.....
    @.....
    @.....
    .@@@@.
    ......
    @@@@@.
    ......
    ......

u+2287:
SUPERSET OF OR EQUAL TO:
    ......
    ......
    @@@@..
    ....@.
    ....@.
    ....@.
    @@@@..
    ......
    @@@@@.
    ......
    ......

u+2288:
NEITHER A SUBSET OF NOR EQUAL TO:
    ......
    ..@...
    .@@@@.
    @.@...
    @.@...
    @.@...
    .@@@@.
    ..@...
    @@@@@.
    ..@...
    ......

u+2289:
NEITHER A SUPERSET OF NOR EQUAL TO:
    ......
    ..@...
    @@@@..
    ..@.@.
    ..@.@.
    ..@.@.
    @@@@..
    ..@...
    @@@@@.
    ..@...
    ......

u+228a:
SUBSET OF WITH NOT EQUAL TO:
    ......
    .@@@@.
    @.....
    @.....
    @.....
    .@@@@.
    ..@...
    @@@@@.
    ..@...
    ......
    ......

u+228b:
SUPERSET OF WITH NOT EQUAL TO:
    ......
    @@@@..
    ....@.
    ....@.
    ....@.
    @@@@..
    ..@...
    @@@@@.
    ..@...
    ......
    ......

u+2295:
CIRCLED PLUS:
    ......
    ......
    ......
    .@@@..
    @.@.@.
    @@@@@.
    @.@.@.
    .@@@..
    ......
    ......
    ......

u+2297:
CIRCLED TIMES:
    ......
    ......
    ......
    .@@@..
    @@.@@.
    @.@.@.
    @@.@@.
    .@@@..
    ......
    ......
    ......

u+22a4:
DOWN TACK:
    ......
    ......
    @@@@@.
    ..@...
    ..@...
    ..@...
    ..@...
    ..@...
    ..@...
    ......
    ......

u+22a5:
UP TACK:
    ......
    ......
    ..@...
    ..@...
    ..@...
    ..@...
    ..@...
    ..@...
    @@@@@.
    ......
    ......

u+22a6:
ASSERTION:
    ......
    ......
    .@....
    .@....
    .@....
    .@@@..
    .@....
    .@....
    .@....
    ......
    ......

u+22a7:
MODELS:
    ......
    ......
    .@....
    .@....
    .@@@..
    .@....
    .@@@..
    .@....
    .@....
    ......
    ......

u+22c0:
N-ARY LOGICAL AND:
    ......
    ..@...
    ..@...
    ..@...
    .@.@..
    .@.@..
    .@.@..
    @...@.
    @...@.
    @...@.
    ......

u+22c1:
N-ARY LOGICAL OR:
    ......
    @...@.
    @...@.
    @...@.
    .@.@..
    .@.@..
    .@.@..
    ..@...
    ..@...
    ..@...
    ......

u+22c2:
N-ARY INTERSECTION:
    ......
    .@@@..
    @...@.
    @...@.
    @...@.
    @...@.
    @...@.
    @...@.
    @...@.
    @...@.
    ......

u+22c3:
N-ARY UNION:
    ......
    @...@.
    @...@.
    @...@.
    @...@.
    @...@.
    @...@.
    @...@.
    @...@.
    .@@@..
    ......

u+22c5:
DOT OPERATOR:
    ......
    ......
    ......
    ......
    ......
    ..@...
    ......
    ......
    ......
    ......
    ......

u+22ee:
VERTICAL ELLIPSIS:
    ......
    ......
    ..@...
    ......
    ......
    ..@...
    ......
    ......
    ..@...
    ......
    ......

u+22ef:
MIDLINE HORIZONTAL ELLIPSIS:
    ......
    ......
    ......
    ......
    ......
    @.@.@.
    ......
    ......
    ......
    ......
    ......

u+22f0:
UP RIGHT DIAGONAL ELLIPSIS:
    ......
    ......
    ....@.
    ......
    ......
    ..@...
    ......
    ......
    @.....
    ......
    ......

u+22f1:
DOWN RIGHT DIAGONAL ELLIPSIS:
    ......
    ......
    @.....
    ......
    ......
    ..@...
    ......
    ......
    ....@.
    ......
    ......

u+2300:
DIAMETER SIGN:
    ......
    ......
    .@@@@.
    @..@@.
    @.@.@.
    @@..@.
    @@@@..
    ......
    ......
    ......
    ......

u+2302:
HOUSE:
    ......
    ......
    ..@...
    .@.@..
    @...@.
    @...@.
    @...@.
    @@@@@.
    ......
    ......
    ......

u+2308:
LEFT CEILING:
    ......
    ......
    .@@@..
    .@....
    .@....
    .@....
    .@....
    .@....
    .@....
    ......
    ......

u+2309:
RIGHT CEILING:
    ......
    ......
    .@@@..
    ...@..
    ...@..
    ...@..
    ...@..
    ...@..
    ...@..
    ......
    ......

u+230a:
LEFT FLOOR:
    ......
    ......
    .@....
    .@....
    .@....
    .@....
    .@....
    .@....
    .@@@..
    ......
    ......

u+230b:
RIGHT FLOOR:
    ......
    ......
    ...@..
    ...@..
    ...@..
    ...@..
    ...@..
    ...@..
    .@@@..
    ......
    ......

u+2310:
REVERSED NOT SIGN:
    ......
    ......
    ......
    ......
    .@@@@.
    .@....
    ......
    ......
    ......
    ......
    ......

u+2320:
TOP HALF INTEGRAL:
    ...@..
    ..@.@.
    ..@...
    ..@...
    ..@...
    ..@...
    ..@...
    ..@...
    ......
    ......
    ......

u+2321:
BOTTOM HALF INTEGRAL:
    ......
    ......
    ..@...
    ..@...
    ..@...
    ..@...
    ..@...
    ..@...
    ..@...
    @.@...
    .@....

u+23ba:
HORIZONTAL SCAN LINE-1:
    ......
    ......
    ......
    ......
    ......
    ......
    ......
    ......
    ......
    @@@@@@
    ......

u+23bb:
HORIZONTAL SCAN LINE-3:
    ......
    ......
    ......
    ......
    ......
    ......
    ......
    @@@@@@
    ......
    ......
    ......

u+23bc:
HORIZONTAL SCAN LINE-7:
    ......
    ......
    @@@@@@
    ......
    ......
    ......
    ......
    ......
    ......
    ......
    ......

u+23bd:
HORIZONTAL SCAN LINE-9:
    @@@@@@
    ......
    ......
    ......
    ......
    ......
    ......
    ......
    ......
    ......
    ......

u+2409:
SYMBOL FOR HORIZONTAL TABULATION:
    @..@..
    @..@..
    @@@@..
    @..@..
    @..@..
    .@@@@.
    ...@..
    ...@..
    ...@..
    ......
    ......

u+240a:
SYMBOL FOR LINE FEED:
    @.....
    @.....
    @.....
    @@@@..
    .@@@@.
    .@....
    .@@@..
    .@....
    .@....
    ......
    ......

u+240b:
SYMBOL FOR VERTICAL TABULATION:
    @..@..
    @..@..
    .@@...
    .@....
    .@@@@.
    ...@..
    ...@..
    ...@..
    ...@..
    ......
    ......

u+240c:
SYMBOL FOR FORM FEED:
    @@@...
    @.....
    @@....
    @.....
    @.@@@.
    ..@...
    ..@@..
    ..@...
    ..@...
    ......
    ......

u+240d:
SYMBOL FOR CARRIAGE RETURN:
    .@@@..
    @.....
    @.....
    .@@@..
    .@@@..
    .@..@.
    .@@@..
    .@..@.
    .@..@.
    ......
    ......

u+2424:
SYMBOL FOR NEWLINE:
    @..@..
    @@.@..
    @@.@..
    @.@@..
    @..@..
    .@....
    .@....
    .@....
    .@@@@.
    ......
    ......

u+2500:
BOX DRAWINGS LIGHT HORIZONTAL:
    ......
    ......
    ......
    ......
    @@@@@@
    ......
    ......
    ......
    ......
    ......
    ......

u+2501:
BOX DRAWINGS HEAVY HORIZONTAL:
    ......
    ......
    ......
    ......
    @@@@@@
    @@@@@@
    ......
    ......
    ......
    ......
    ......

u+2502:
BOX DRAWINGS LIGHT VERTICAL:
    ..@...
    ..@...
    ..@...
    ..@...
    ..@...
    ..@...
    ..@...
    ..@...
    ..@...
    ..@...
    ..@...

u+2503:
BOX DRAWINGS HEAVY VERTICAL:
    ..@@..
    ..@@..
    ..@@..
    ..@@..
    ..@@..
    ..@@..
    ..@@..
    ..@@..
    ..@@..
    ..@@..
    ..@@..

u+2504:
BOX DRAWINGS LIGHT TRIPLE DASH HORIZONTAL:
    ......
    ......
    ......
    ......
    @.@.@.
    ......
    ......
    ......
    ......
    ......
    ......

u+2505:
BOX DRAWINGS HEAVY TRIPLE DASH HORIZONTAL:
    ......
    ......
    ......
    ......
    @.@.@.
    @.@.@.
    ......
    ......
    ......
    ......
    ......

u+2506:
BOX DRAWINGS LIGHT TRIPLE DASH VERTICAL:
    ......
    ..@...
    ..@...
    ..@...
    ......
    ..@...
    ..@...
    ..@...
    ......
    ..@...
    ..@...

u+2507:
BOX DRAWINGS HEAVY TRIPLE DASH VERTICAL:
    ......
    ..@@..
    ..@@..
    ..@@..
    ......
    ..@@..
    ..@@..
    ..@@..
    ......
    ..@@..
    ..@@..

u+2508:
BOX DRAWINGS LIGHT QUADRUPLE DASH HORIZONTAL:
    ......
    ......
    ......
    ......
    @.@.@.
    ......
    ......
    ......
    ......
    ......
    ......

u+2509:
BOX DRAWINGS HEAVY QUADRUPLE DASH HORIZONTAL:
    ......
    ......
    ......
    ......
    @.@.@.
    @.@.@.
    ......
    ......
    ......
    ......
    ......

u+250a:
BOX DRAWINGS LIGHT QUADRUPLE DASH VERTICAL:
    ......
    ..@...
    ..@...
    ......
    ..@...
    ......
    ..@...
    ..@...
    ......
    ..@...
    ......

u+250b:
BOX DRAWINGS HEAVY QUADRUPLE DASH VERTICAL:
    ......
    ..@@..
    ..@@..
    ......
    ..@@..
    ......
    ..@@..
    ..@@..
    ......
    ..@@..
    ......

u+250c:
BOX DRAWINGS LIGHT DOWN AND RIGHT:
    ..@@@@
    ..@...
    ..@...
    ..@...
    ..@...
    ......
    ......
    ......
    ......
    ......
    ......

u+250d:
BOX DRAWINGS DOWN LIGHT AND RIGHT HEAVY:
    ..@@@@
    ..@@@@
    ..@...
    ..@...
    ..@...
    ..@...
    ......
    ......
    ......
    ......
    ......

u+250e:
BOX DRAWINGS DOWN HEAVY AND RIGHT LIGHT:
    ..@@@@
    ..@@..
    ..@@..
    ..@@..
    ..@@..
    ......
    ......
    ......
    ......
    ......
    ......

u+250f:
BOX DRAWINGS HEAVY DOWN AND RIGHT:
    ..@@@@
    ..@@@@
    ..@@..
    ..@@..
    ..@@..
    ..@@..
    ......
    ......
    ......
    ......
    ......

u+2510:
BOX DRAWINGS LIGHT DOWN AND LEFT:
    @@@...
    ..@...
    ..@...
    ..@...
    ..@...
    ......
    ......
    ......
    ......
    ......
    ......

u+2511:
BOX DRAWINGS DOWN LIGHT AND LEFT HEAVY:
    @@@...
    @@@...
    ..@...
    ..@...
    ..@...
    ..@...
    ......
    ......
    ......
    ......
    ......

u+2512:
BOX DRAWINGS DOWN HEAVY AND LEFT LIGHT:
    @@@@..
    ..@@..
    ..@@..
    ..@@..
    ..@@..
    ......
    ......
    ......
    ......
    ......
    ......

u+2513:
BOX DRAWINGS HEAVY DOWN AND LEFT:
    @@@@..
    @@@@..
    ..@@..
    ..@@..
    ..@@..
    ..@@..
    ......
    ......
    ......
    ......
    ......

u+2514:
BOX DRAWINGS LIGHT UP AND RIGHT:
    ......
    ......
    ......
    ......
    ..@...
    ..@...
    ..@...
    ..@...
    ..@...
    ..@...
    ..@@@@

u+2515:
BOX DRAWINGS UP LIGHT AND RIGHT HEAVY:
    ......
    ......
    ......
    ......
    ..@...
    ..@...
    ..@...
    ..@...
    ..@...
    ..@@@@
    ..@@@@

u+2516:
BOX DRAWINGS UP HEAVY AND RIGHT LIGHT:
    ......
    ......
    ......
    ......
    ..@@..
    ..@@..
    ..@@..
    ..@@..
    ..@@..
    ..@@..
    ..@@@@

u+2517:
BOX DRAWINGS HEAVY UP AND RIGHT:
    ......
    ......
    ......
    ......
    ..@@..
    ..@@..
    ..@@..
    ..@@..
    ..@@..
    ..@@@@
    ..@@@@

u+2518:
BOX DRAWINGS LIGHT UP AND LEFT:
    ......
    ......
    ......
    ......
    ..@...
    ..@...
    ..@...
    ..@...
    ..@...
    ..@...
    @@@...

u+2519:
BOX DRAWINGS UP LIGHT AND LEFT HEAVY:
    ......
    ......
    ......
    ......
    ..@...
    ..@...
    ..@...
    ..@...
    ..@...
    @@@...
    @@@...

u+251a:
BOX DRAWINGS UP HEAVY AND LEFT LIGHT:
    ......
    ......
    ......
    ......
    ..@@..
    ..@@..
    ..@@..
    ..@@..
    ..@@..
    ..@@..
    @@@@..

u+251b:
BOX DRAWINGS HEAVY UP AND LEFT:
    ......
    ......
    ......
    ......
    ..@@..
    ..@@..
    ..@@..
    ..@@..
    ..@@..
    @@@@..
    @@@@..

u+251c:
BOX DRAWINGS LIGHT VERTICAL AND RIGHT:
    ..@...
    ..@...
    ..@...
    ..@...
    ..@...
    ..@...
    ..@@@@
    ..@...
    ..@...
    ..@...
    ..@...

u+251d:
BOX DRAWINGS VERTICAL LIGHT AND RIGHT HEAVY:
    ..@...
    ..@...
    ..@...
    ..@...
    ..@...
    ..@@@@
    ..@@@@
    ..@...
    ..@...
    ..@...
    ..@...

u+251e:
BOX DRAWINGS UP HEAVY AND RIGHT DOWN LIGHT:
    ..@@..
    ..@@..
    ..@@..
    ..@@..
    ..@@..
    ..@@..
    ..@@@@
    ..@...
    ..@...
    ..@...
    ..@...

u+251f:
BOX DRAWINGS DOWN HEAVY AND RIGHT UP LIGHT:
    ..@...
    ..@...
    ..@...
    ..@...
    ..@...
    ..@...
    ..@@@@
    ..@@..
    ..@@..
    ..@@..
    ..@@..

u+2520:
BOX DRAWINGS VERTICAL HEAVY AND RIGHT LIGHT:
    ..@@..
    ..@@..
    ..@@..
    ..@@..
    ..@@..
    ..@@..
    ..@@@@
    ..@@..
    ..@@..
    ..@@..
    ..@@..

u+2521:
BOX DRAWINGS DOWN LIGHT AND RIGHT UP HEAVY:
    ..@@..
    ..@@..
    ..@@..
    ..@@..
    ..@@..
    ..@@@@
    ..@@@@
    ..@...
    ..@...
    ..@...
    ..@...

u+2522:
BOX DRAWINGS UP LIGHT AND RIGHT DOWN HEAVY:
    ..@...
    ..@...
    ..@...
    ..@...
    ..@...
    ..@@@@
    ..@@@@
    ..@@..
    ..@@..
    ..@@..
    ..@@..

u+2523:
BOX DRAWINGS HEAVY VERTICAL AND RIGHT:
    ..@@..
    ..@@..
    ..@@..
    ..@@..
    ..@@..
    ..@@@@
    ..@@@@
    ..@@..
    ..@@..
    ..@@..
    ..@@..

u+2524:
BOX DRAWINGS LIGHT VERTICAL AND LEFT:
    ..@...
    ..@...
    ..@...
    ..@...
    ..@...
    ..@...
    @@@...
    ..@...
    ..@...
    ..@...
    ..@...

u+2525:
BOX DRAWINGS VERTICAL LIGHT AND LEFT HEAVY:
    ..@...
    ..@...
    ..@...
    ..@...
    ..@...
    @@@...
    @@@...
    ..@...
    ..@...
    ..@...
    ..@...

u+2526:
BOX DRAWINGS UP HEAVY AND LEFT DOWN LIGHT:
    ..@@..
    ..@@..
    ..@@..
    ..@@..
    ..@@..
    ..@@..
    @@@...
    ..@...
    ..@...
    ..@...
    ..@...

u+2527:
BOX DRAWINGS DOWN HEAVY AND LEFT UP LIGHT:
    ..@...
    ..@...
    ..@...
    ..@...
    ..@...
    ..@...
    @@@@..
    ..@@..
    ..@@..
    ..@@..
    ..@@..

u+2528:
BOX DRAWINGS VERTICAL HEAVY AND LEFT LIGHT:
    ..@@..
    ..@@..
    ..@@..
    ..@@..
    ..@@..
    ..@@..
    @@@@..
    ..@@..
    ..@@..
    ..@@..
    ..@@..

u+2529:
BOX DRAWINGS DOWN LIGHT AND LEFT UP HEAVY:
    ..@@..
    ..@@..
    ..@@..
    ..@@..
    ..@@..
    @@@@..
    @@@...
    ..@...
    ..@...
    ..@...
    ..@...

u+252a:
BOX DRAWINGS UP LIGHT AND LEFT DOWN HEAVY:
    ..@...
    ..@...
    ..@...
    ..@...
    ..@...
    @@@...
    @@@@..
    ..@@..
    ..@@..
    ..@@..
    ..@@..

u+252b:
BOX DRAWINGS HEAVY VERTICAL AND LEFT:
    ..@@..
    ..@@..
    ..@@..
    ..@@..
    ..@@..
    @@@@..
    @@@@..
    ..@@..
    ..@@..
    ..@@..
    ..@@..

u+252c:
BOX DRAWINGS LIGHT DOWN AND HORIZONTAL:
    @@@@@@
    ..@...
    ..@...
    ..@...
    ..@...
    ......
    ......
    ......
    ......
    ......
    ......

u+252d:
BOX DRAWINGS LEFT HEAVY AND RIGHT DOWN LIGHT:
    @@@...
    @@@@@@
    ..@...
    ..@...
    ..@...
    ..@...
    ......
    ......
    ......
    ......
    ......

u+252e:
BOX DRAWINGS RIGHT HEAVY AND LEFT DOWN LIGHT:
    ...@@@
    @@@@@@
    ..@...
    ..@...
    ..@...
    ..@...
    ......
    ......
    ......
    ......
    ......

u+252f:
BOX DRAWINGS DOWN LIGHT AND HORIZONTAL HEAVY:
    @@@@@@
    @@@@@@
    ..@...
    ..@...
    ..@...
    ..@...
    ......
    ......
    ......
    ......
    ......

u+2530:
BOX DRAWINGS DOWN HEAVY AND HORIZONTAL LIGHT:
    @@@@@@
    ..@@..
    ..@@..
    ..@@..
    ..@@..
    ......
    ......
    ......
    ......
    ......
    ......

u+2531:
BOX DRAWINGS RIGHT LIGHT AND LEFT DOWN HEAVY:
    @@@...
    @@@@@@
    ..@@..
    ..@@..
    ..@@..
    ..@@..
    ......
    ......
    ......
    ......
    ......

u+2532:
BOX DRAWINGS LEFT LIGHT AND RIGHT DOWN HEAVY:
    ...@@@
    @@@@@@
    ..@@..
    ..@@..
    ..@@..
    ..@@..
    ......
    ......
    ......
    ......
    ......

u+2533:
BOX DRAWINGS HEAVY DOWN AND HORIZONTAL:
    @@@@@@
    @@@@@@
    ..@@..
    ..@@..
    ..@@..
    ..@@..
    ......
    ......
    ......
    ......
    ......

u+2534:
BOX DRAWINGS LIGHT UP AND HORIZONTAL:
    ......
    ......
    ......
    ......
    ..@...
    ..@...
    ..@...
    ..@...
    ..@...
    ..@...
    @@@@@@

u+2535:
BOX DRAWINGS LEFT HEAVY AND RIGHT UP LIGHT:
    ......
    ......
    ......
    ......
    ..@...
    ..@...
    ..@...
    ..@...
    ..@...
    @@@...
    @@@@@@

u+2536:
BOX DRAWINGS RIGHT HEAVY AND LEFT UP LIGHT:
    ......
    ......
    ......
    ......
    ..@...
    ..@...
    ..@...
    ..@...
    ..@...
    ..@@@@
    @@@@@@

u+2537:
BOX DRAWINGS UP LIGHT AND HORIZONTAL HEAVY:
    ......
    ......
    ......
    ......
    ..@...
    ..@...
    ..@...
    ..@...
    ..@...
    @@@@@@
    @@@@@@

u+2538:
BOX DRAWINGS UP HEAVY AND HORIZONTAL LIGHT:
    ......
    ......
    ......
    ......
    ..@@..
    ..@@..
    ..@@..
    ..@@..
    ..@@..
    ..@@..
    @@@@@@

u+2539:
BOX DRAWINGS RIGHT LIGHT AND LEFT UP HEAVY:
    ......
    ......
    ......
    ......
    ..@@..
    ..@@..
    ..@@..
    ..@@..
    ..@@..
    @@@@..
    @@@@@@

u+253a:
BOX DRAWINGS LEFT LIGHT AND RIGHT UP HEAVY:
    ......
    ......
    ......
    ......
    ..@@..
    ..@@..
    ..@@..
    ..@@..
    ..@@..
    ..@@@@
    @@@@@@

u+253b:
BOX DRAWINGS HEAVY UP AND HORIZONTAL:
    ......
    ......
    ......
    ......
    ..@@..
    ..@@..
    ..@@..
    ..@@..
    ..@@..
    @@@@@@
    @@@@@@

u+253c:
BOX DRAWINGS LIGHT VERTICAL AND HORIZONTAL:
    ..@...
    ..@...
    ..@...
    ..@...
    ..@...
    ..@...
    @@@@@@
    ..@...
    ..@...
    ..@...
    ..@...

u+253d:
BOX DRAWINGS LEFT HEAVY AND RIGHT VERTICAL LIGHT:
    ..@...
    ..@...
    ..@...
    ..@...
    ..@...
    @@@...
    @@@@@@
    ..@...
    ..@...
    ..@...
    ..@...

u+253e:
BOX DRAWINGS RIGHT HEAVY AND LEFT VERTICAL LIGHT:
    ..@...
    ..@...
    ..@...
    ..@...
    ..@...
    ..@@@@
    @@@@@@
    ..@...
    ..@...
    ..@...
    ..@...

u+253f:
BOX DRAWINGS VERTICAL LIGHT AND HORIZONTAL HEAVY:
    ..@...
    ..@...
    ..@...
    ..@...
    ..@...
    @@@@@@
    @@@@@@
    ..@...
    ..@...
    ..@...
    ..@...

u+2540:
BOX DRAWINGS UP HEAVY AND DOWN HORIZONTAL LIGHT:
    ..@@..
    ..@@..
    ..@@..
    ..@@..
    ..@@..
    ..@@..
    @@@@@@
    ..@...
    ..@...
    ..@...
    ..@...

u+2541:
BOX DRAWINGS DOWN HEAVY AND UP HORIZONTAL LIGHT:
    ..@...
    ..@...
    ..@...
    ..@...
    ..@...
    ..@...
    @@@@@@
    ..@@..
    ..@@..
    ..@@..
    ..@@..

u+2542:
BOX DRAWINGS VERTICAL HEAVY AND HORIZONTAL LIGHT:
    ..@@..
    ..@@..
    ..@@..
    ..@@..
    ..@@..
    ..@@..
    @@@@@@
    ..@@..
    ..@@..
    ..@@..
    ..@@..

u+2543:
BOX DRAWINGS LEFT UP HEAVY AND RIGHT DOWN LIGHT:
    ..@@..
    ..@@..
    ..@@..
    ..@@..
    ..@@..
    @@@@..
    @@@@@@
    ..@...
    ..@...
    ..@...
    ..@...

u+2544:
BOX DRAWINGS RIGHT UP HEAVY AND LEFT DOWN LIGHT:
    ..@@..
    ..@@..
    ..@@..
    ..@@..
    ..@@..
    ..@@@@
    @@@@@@
    ..@...
    ..@...
    ..@...
    ..@...

u+2545:
BOX DRAWINGS LEFT DOWN HEAVY AND RIGHT UP LIGHT:
    ..@...
    ..@...
    ..@...
    ..@...
    ..@...
    @@@...
    @@@@@@
    ..@@..
    ..@@..
    ..@@..
    ..@@..

u+2546:
BOX DRAWINGS RIGHT DOWN HEAVY AND LEFT UP LIGHT:
    ..@...
    ..@...
    ..@...
    ..@...
    ..@...
    ..@@@@
    @@@@@@
    ..@@..
    ..@@..
    ..@@..
    ..@@..

u+2547:
BOX DRAWINGS DOWN LIGHT AND UP HORIZONTAL HEAVY:
    ..@@..
    ..@@..
    ..@@..
    ..@@..
    ..@@..
    @@@@@@
    @@@@@@
    ..@...
    ..@...
    ..@...
    ..@...

u+2548:
BOX DRAWINGS UP LIGHT AND DOWN HORIZONTAL HEAVY:
    ..@...
    ..@...
    ..@...
    ..@...
    ..@...
    @@@@@@
    @@@@@@
    ..@@..
    ..@@..
    ..@@..
    ..@@..

u+2549:
BOX DRAWINGS RIGHT LIGHT AND LEFT VERTICAL HEAVY:
    ..@@..
    ..@@..
    ..@@..
    ..@@..
    ..@@..
    @@@@..
    @@@@@@
    ..@@..
    ..@@..
    ..@@..
    ..@@..

u+254a:
BOX DRAWINGS LEFT LIGHT AND RIGHT VERTICAL HEAVY:
    ..@@..
    ..@@..
    ..@@..
    ..@@..
    ..@@..
    ..@@@@
    @@@@@@
    ..@@..
    ..@@..
    ..@@..
    ..@@..

u+254b:
BOX DRAWINGS HEAVY VERTICAL AND HORIZONTAL:
    ..@@..
    ..@@..
    ..@@..
    ..@@..
    ..@@..
    @@@@@@
    @@@@@@
    ..@@..
    ..@@..
    ..@@..
    ..@@..

u+254c:
BOX DRAWINGS LIGHT DOUBLE DASH HORIZONTAL:
    ......
    ......
    ......
    ......
    @@.@@.
    ......
    ......
    ......
    ......
    ......
    ......

u+254d:
BOX DRAWINGS HEAVY DOUBLE DASH HORIZONTAL:
    ......
    ......
    ......
    ......
    @@.@@.
    @@.@@.
    ......
    ......
    ......
    ......
    ......

u+254e:
BOX DRAWINGS LIGHT DOUBLE DASH VERTICAL:
    ......
    ..@...
    ..@...
    ..@...
    ..@...
    ......
    ..@...
    ..@...
    ..@...
    ..@...
    ......

u+254f:
BOX DRAWINGS HEAVY DOUBLE DASH VERTICAL:
    ......
    ..@@..
    ..@@..
    ..@@..
    ..@@..
    ......
    ..@@..
    ..@@..
    ..@@..
    ..@@..
    ......

u+2550:
BOX DRAWINGS DOUBLE HORIZONTAL:
    ......
    ......
    ......
    @@@@@@
    ......
    @@@@@@
    ......
    ......
    ......
    ......
    ......

u+2551:
BOX DRAWINGS DOUBLE VERTICAL:
    .@.@..
    .@.@..
    .@.@..
    .@.@..
    .@.@..
    .@.@..
    .@.@..
    .@.@..
    .@.@..
    .@.@..
    .@.@..

u+2552:
BOX DRAWINGS DOWN SINGLE AND RIGHT DOUBLE:
    ..@@@@
    ..@...
    ..@@@@
    ..@...
    ..@...
    ..@...
    ......
    ......
    ......
    ......
    ......

u+2553:
BOX DRAWINGS DOWN DOUBLE AND RIGHT SINGLE:
    .@@@@@
    .@.@..
    .@.@..
    .@.@..
    .@.@..
    ......
    ......
    ......
    ......
    ......
    ......

u+2554:
BOX DRAWINGS DOUBLE DOWN AND RIGHT:
    .@@@@@
    .@....
    .@.@@@
    .@.@..
    .@.@..
    .@.@..
    ......
    ......
    ......
    ......
    ......

u+2555:
BOX DRAWINGS DOWN SINGLE AND LEFT DOUBLE:
    @@@...
    ..@...
    @@@...
    ..@...
    ..@...
    ..@...
    ......
    ......
    ......
    ......
    ......

u+2556:
BOX DRAWINGS DOWN DOUBLE AND LEFT SINGLE:
    @@@@..
    .@.@..
    .@.@..
    .@.@..
    .@.@..
    ......
    ......
    ......
    ......
    ......
    ......

u+2557:
BOX DRAWINGS DOUBLE DOWN AND LEFT:
    @@@@..
    ...@..
    @@.@..
    .@.@..
    .@.@..
    .@.@..
    ......
    ......
    ......
    ......
    ......

u+2558:
BOX DRAWINGS UP SINGLE AND RIGHT DOUBLE:
    ......
    ......
    ......
    ..@...
    ..@...
    ..@...
    ..@...
    ..@...
    ..@@@@
    ..@...
    ..@@@@

u+2559:
BOX DRAWINGS UP DOUBLE AND RIGHT SINGLE:
    ......
    ......
    ......
    ......
    .@.@..
    .@.@..
    .@.@..
    .@.@..
    .@.@..
    .@.@..
    .@@@@@

u+255a:
BOX DRAWINGS DOUBLE UP AND RIGHT:
    ......
    ......
    ......
    .@.@..
    .@.@..
    .@.@..
    .@.@..
    .@.@..
    .@.@@@
    .@....
    .@@@@@

u+255b:
BOX DRAWINGS UP SINGLE AND LEFT DOUBLE:
    ......
    ......
    ......
    ..@...
    ..@...
    ..@...
    ..@...
    ..@...
    @@@...
    ..@...
    @@@...

u+255c:
BOX DRAWINGS UP DOUBLE AND LEFT SINGLE:
    ......
    ......
    ......
    ......
    .@.@..
    .@.@..
    .@.@..
    .@.@..
    .@.@..
    .@.@..
    @@@@..

u+255d:
BOX DRAWINGS DOUBLE UP AND LEFT:
    ......
    ......
    ......
    .@.@..
    .@.@..
    .@.@..
    .@.@..
    .@.@..
    @@.@..
    ...@..
    @@@@..

u+255e:
BOX DRAWINGS VERTICAL SINGLE AND RIGHT DOUBLE:
    ..@...
    ..@...
    ..@...
    ..@...
    ..@...
    ..@@@@
    ..@...
    ..@@@@
    ..@...
    ..@...
    ..@...

u+255f:
BOX DRAWINGS VERTICAL DOUBLE AND RIGHT SINGLE:
    .@.@..
    .@.@..
    .@.@..
    .@.@..
    .@.@..
    .@.@..
    .@.@@@
    .@.@..
    .@.@..
    .@.@..
    .@.@..

u+2560:
BOX DRAWINGS DOUBLE VERTICAL AND RIGHT:
    .@.@..
    .@.@..
    .@.@..
    .@.@..
    .@.@..
    .@.@@@
    .@....
    .@.@@@
    .@.@..
    .@.@..
    .@.@..

u+2561:
BOX DRAWINGS VERTICAL SINGLE AND LEFT DOUBLE:
    ..@...
    ..@...
    ..@...
    ..@...
    ..@...
    @@@...
    ..@...
    @@@...
    ..@...
    ..@...
    ..@...

u+2562:
BOX DRAWINGS VERTICAL DOUBLE AND LEFT SINGLE:
    .@.@..
    .@.@..
    .@.@..
    .@.@..
    .@.@..
    .@.@..
    @@.@..
    .@.@..
    .@.@..
    .@.@..
    .@.@..

